<?xml version="1.0" encoding="UTF-8" standalone="no"?>
<svg height="420mm" width="594mm" id="svg2" xmlns:freecad="http://www.freecadweb.org/wiki/index.php?title=Svg_Namespace" xmlns="http://www.w3.org/2000/svg" version="1.1" xmlns:dc="http://purl.org/dc/elements/1.1/" xmlns:rdf="http://www.w3.org/1999/02/22-rdf-syntax-ns#" xmlns:cc="http://creativecommons.org/ns#" xmlns:svg="http://www.w3.org/2000/svg" viewBox="0 0 594 420">
 <polygon points="0,0 10,0 10,5 5,5 5,10 0,10 " style="fill:black;stroke:black;stroke-width:0"/>
 <polygon points="594,0 584,0 584,5 589,5 589,10 594,10 " style="fill:black;stroke:black;stroke-width:0"/>
 <polygon points="594,420 584,420 584,415 589,415 589,410 594,410 " style="fill:black;stroke:black;stroke-width:0"/>
 <polygon points="0,420 10,420 10,415 5,415 5,410 0,410 " style="fill:black;stroke:black;stroke-width:0"/>
 <rect y="5" x="15" height="410" width="574" style="fill:none;stroke:black;stroke-width:0.35"/>
 <rect y="10" x="20" height="400" width="564" style="fill:none;stroke:black;stroke-width:0.7"/>
 <line x1="297" y1="5" x2="297" style="stroke:black;stroke-width:0.7" y2="20"/>
 <line x1="297" y1="415" x2="297" style="stroke:black;stroke-width:0.7" y2="400"/>
 <line x1="15" y1="210" x2="30" style="stroke:black;stroke-width:0.7" y2="210"/>
 <line x1="589" y1="210" x2="574" style="stroke:black;stroke-width:0.7" y2="210"/>
 <line x1="247" y1="5" x2="247" style="stroke:black;stroke-width:0.35" y2="10"/>
 <line x1="247" y1="415" x2="247" style="stroke:black;stroke-width:0.35" y2="410"/>
 <line x1="197" y1="5" x2="197" style="stroke:black;stroke-width:0.35" y2="10"/>
 <line x1="197" y1="415" x2="197" style="stroke:black;stroke-width:0.35" y2="410"/>
 <line x1="147" y1="5" x2="147" style="stroke:black;stroke-width:0.35" y2="10"/>
 <line x1="147" y1="415" x2="147" style="stroke:black;stroke-width:0.35" y2="410"/>
 <line x1="97" y1="5" x2="97" style="stroke:black;stroke-width:0.35" y2="10"/>
 <line x1="97" y1="415" x2="97" style="stroke:black;stroke-width:0.35" y2="410"/>
 <line x1="47" y1="5" x2="47" style="stroke:black;stroke-width:0.35" y2="10"/>
 <line x1="47" y1="415" x2="47" style="stroke:black;stroke-width:0.35" y2="410"/>
 <text y="9.25" x="28.5" style="fill: #000000; stroke: none; font-family: osifont; font-size: 4.86111; text-anchor: middle;">1</text>
 <text y="414.25" x="28.5" style="fill: #000000; stroke: none; font-family: osifont; font-size: 4.86111; text-anchor: middle;">1</text>
 <text y="9.25" x="72" style="fill: #000000; stroke: none; font-family: osifont; font-size: 4.86111; text-anchor: middle;">2</text>
 <text y="414.25" x="72" style="fill: #000000; stroke: none; font-family: osifont; font-size: 4.86111; text-anchor: middle;">2</text>
 <text y="9.25" x="122" style="fill: #000000; stroke: none; font-family: osifont; font-size: 4.86111; text-anchor: middle;">3</text>
 <text y="414.25" x="122" style="fill: #000000; stroke: none; font-family: osifont; font-size: 4.86111; text-anchor: middle;">3</text>
 <text y="9.25" x="172" style="fill: #000000; stroke: none; font-family: osifont; font-size: 4.86111; text-anchor: middle;">4</text>
 <text y="414.25" x="172" style="fill: #000000; stroke: none; font-family: osifont; font-size: 4.86111; text-anchor: middle;">4</text>
 <text y="9.25" x="222" style="fill: #000000; stroke: none; font-family: osifont; font-size: 4.86111; text-anchor: middle;">5</text>
 <text y="414.25" x="222" style="fill: #000000; stroke: none; font-family: osifont; font-size: 4.86111; text-anchor: middle;">5</text>
 <text y="9.25" x="272" style="fill: #000000; stroke: none; font-family: osifont; font-size: 4.86111; text-anchor: middle;">6</text>
 <text y="414.25" x="272" style="fill: #000000; stroke: none; font-family: osifont; font-size: 4.86111; text-anchor: middle;">6</text>
 <text y="9.25" x="322" style="fill: #000000; stroke: none; font-family: osifont; font-size: 4.86111; text-anchor: middle;">7</text>
 <text y="414.25" x="322" style="fill: #000000; stroke: none; font-family: osifont; font-size: 4.86111; text-anchor: middle;">7</text>
 <line x1="347" y1="5" x2="347" style="stroke:black;stroke-width:0.35" y2="10"/>
 <text y="9.25" x="372" style="fill: #000000; stroke: none; font-family: osifont; font-size: 4.86111; text-anchor: middle;">8</text>
 <line x1="347" y1="415" x2="347" style="stroke:black;stroke-width:0.35" y2="410"/>
 <text y="414.25" x="372" style="fill: #000000; stroke: none; font-family: osifont; font-size: 4.86111; text-anchor: middle;">8</text>
 <line x1="397" y1="5" x2="397" style="stroke:black;stroke-width:0.35" y2="10"/>
 <text y="9.25" x="422" style="fill: #000000; stroke: none; font-family: osifont; font-size: 4.86111; text-anchor: middle;">9</text>
 <line x1="397" y1="415" x2="397" style="stroke:black;stroke-width:0.35" y2="410"/>
 <text y="414.25" x="422" style="fill: #000000; stroke: none; font-family: osifont; font-size: 4.86111; text-anchor: middle;">9</text>
 <line x1="447" y1="5" x2="447" style="stroke:black;stroke-width:0.35" y2="10"/>
 <text y="9.25" x="472" style="fill: #000000; stroke: none; font-family: osifont; font-size: 4.86111; text-anchor: middle;">10</text>
 <line x1="447" y1="415" x2="447" style="stroke:black;stroke-width:0.35" y2="410"/>
 <text y="414.25" x="472" style="fill: #000000; stroke: none; font-family: osifont; font-size: 4.86111; text-anchor: middle;">10</text>
 <line x1="497" y1="5" x2="497" style="stroke:black;stroke-width:0.35" y2="10"/>
 <text y="9.25" x="522" style="fill: #000000; stroke: none; font-family: osifont; font-size: 4.86111; text-anchor: middle;">11</text>
 <line x1="497" y1="415" x2="497" style="stroke:black;stroke-width:0.35" y2="410"/>
 <text y="414.25" x="522" style="fill: #000000; stroke: none; font-family: osifont; font-size: 4.86111; text-anchor: middle;">11</text>
 <line x1="547" y1="5" x2="547" style="stroke:black;stroke-width:0.35" y2="10"/>
 <text y="9.25" x="572" style="fill: #000000; stroke: none; font-family: osifont; font-size: 4.86111; text-anchor: middle;">12</text>
 <line x1="547" y1="415" x2="547" style="stroke:black;stroke-width:0.35" y2="410"/>
 <text y="414.25" x="570.5" style="fill: #000000; stroke: none; font-family: osifont; font-size: 4.86111; text-anchor: middle;">A2</text>
 <line x1="15" y1="160" x2="20" style="stroke:black;stroke-width:0.35" y2="160"/>
 <line x1="589" y1="160" x2="584" style="stroke:black;stroke-width:0.35" y2="160"/>
 <line x1="15" y1="110" x2="20" style="stroke:black;stroke-width:0.35" y2="110"/>
 <line x1="589" y1="110" x2="584" style="stroke:black;stroke-width:0.35" y2="110"/>
 <line x1="15" y1="60" x2="20" style="stroke:black;stroke-width:0.35" y2="60"/>
 <line x1="589" y1="60" x2="584" style="stroke:black;stroke-width:0.35" y2="60"/>
 <text y="36.75" x="17.5" style="fill: #000000; stroke: none; font-family: osifont; font-size: 4.86111; text-anchor: middle;">A</text>
 <text y="36.75" x="586.5" style="fill: #000000; stroke: none; font-family: osifont; font-size: 4.86111; text-anchor: middle;">A</text>
 <text y="86.75" x="17.5" style="fill: #000000; stroke: none; font-family: osifont; font-size: 4.86111; text-anchor: middle;">B</text>
 <text y="86.75" x="586.5" style="fill: #000000; stroke: none; font-family: osifont; font-size: 4.86111; text-anchor: middle;">B</text>
 <text y="136.75" x="17.5" style="fill: #000000; stroke: none; font-family: osifont; font-size: 4.86111; text-anchor: middle;">C</text>
 <text y="136.75" x="586.5" style="fill: #000000; stroke: none; font-family: osifont; font-size: 4.86111; text-anchor: middle;">C</text>
 <text y="186.75" x="17.5" style="fill: #000000; stroke: none; font-family: osifont; font-size: 4.86111; text-anchor: middle;">D</text>
 <text y="186.75" x="586.5" style="fill: #000000; stroke: none; font-family: osifont; font-size: 4.86111; text-anchor: middle;">D</text>
 <text y="236.75" x="17.5" style="fill: #000000; stroke: none; font-family: osifont; font-size: 4.86111; text-anchor: middle;">E</text>
 <text y="236.75" x="586.5" style="fill: #000000; stroke: none; font-family: osifont; font-size: 4.86111; text-anchor: middle;">E</text>
 <line x1="15" y1="260" x2="20" style="stroke:black;stroke-width:0.35" y2="260"/>
 <text y="286.75" x="17.5" style="fill: #000000; stroke: none; font-family: osifont; font-size: 4.86111; text-anchor: middle;">F</text>
 <line x1="589" y1="260" x2="584" style="stroke:black;stroke-width:0.35" y2="260"/>
 <text y="286.75" x="586.5" style="fill: #000000; stroke: none; font-family: osifont; font-size: 4.86111; text-anchor: middle;">F</text>
 <line x1="15" y1="310" x2="20" style="stroke:black;stroke-width:0.35" y2="310"/>
 <text y="336.75" x="17.5" style="fill: #000000; stroke: none; font-family: osifont; font-size: 4.86111; text-anchor: middle;">G</text>
 <line x1="589" y1="310" x2="584" style="stroke:black;stroke-width:0.35" y2="310"/>
 <text y="336.75" x="586.5" style="fill: #000000; stroke: none; font-family: osifont; font-size: 4.86111; text-anchor: middle;">G</text>
 <line x1="15" y1="360" x2="20" style="stroke:black;stroke-width:0.35" y2="360"/>
 <text y="386.75" x="17.5" style="fill: #000000; stroke: none; font-family: osifont; font-size: 4.86111; text-anchor: middle;">H</text>
 <line x1="589" y1="360" x2="584" style="stroke:black;stroke-width:0.35" y2="360"/>
 <text y="386.75" x="586.5" style="fill: #000000; stroke: none; font-family: osifont; font-size: 4.86111; text-anchor: middle;">H</text>
 <rect y="322" x="404" height="88" width="180" style="fill:none;stroke:black;stroke-width:0.7"/>
 <line x1="484" y1="322" x2="484" style="stroke:black;stroke-width:0.35" y2="410"/>
 <line x1="544" y1="322" x2="544" style="stroke:black;stroke-width:0.35" y2="410"/>
 <line x1="556" y1="388" x2="556" style="stroke:black;stroke-width:0.35" y2="410"/>
 <text y="325.3" x="405.5" style="fill: #000000; stroke: none; font-family: osifont; font-size: 2.5; text-anchor: start;">Option 1</text>
 <text y="325.3" x="485.5" style="fill: #000000; stroke: none; font-family: osifont; font-size: 2.5; text-anchor: start;">Option 2</text>
 <text y="325.3" x="545.5" style="fill: #000000; stroke: none; font-family: osifont; font-size: 2.5; text-anchor: start;">Option 3</text>
 <text y="330.75" x="405.5" freecad:editable="Option 14" style="fill: #000000; stroke: none; font-family: osifont; font-size: 3.47222; text-anchor: start;">
  <tspan y="330.75" x="405.5" style="fill: #000000; stroke: none; font-family: osifont; font-size: 3.47222; text-anchor: start;">.</tspan>
 </text>
 <text y="330.75" x="485.5" freecad:editable="Option 24" style="fill: #000000; stroke: none; font-family: osifont; font-size: 3.47222; text-anchor: start;">
  <tspan y="330.75" x="485.5" style="fill: #000000; stroke: none; font-family: osifont; font-size: 3.47222; text-anchor: start;">.</tspan>
 </text>
 <text y="330.75" x="545.5" freecad:editable="Option 34" style="fill: #000000; stroke: none; font-family: osifont; font-size: 3.47222; text-anchor: start;">
  <tspan y="330.75" x="545.5" style="fill: #000000; stroke: none; font-family: osifont; font-size: 3.47222; text-anchor: start;">.</tspan>
 </text>
 <line x1="404" y1="333" x2="584" style="stroke:black;stroke-width:0.35" y2="333"/>
 <text y="336.3" x="405.5" style="fill: #000000; stroke: none; font-family: osifont; font-size: 2.5; text-anchor: start;">Surface treatment</text>
 <text y="336.3" x="485.5" style="fill: #000000; stroke: none; font-family: osifont; font-size: 2.5; text-anchor: start;">Weight</text>
 <text y="336.3" x="545.5" style="fill: #000000; stroke: none; font-family: osifont; font-size: 2.5; text-anchor: start;">Standard</text>
 <text y="341.75" x="405.5" freecad:editable="Surface treatment4" style="fill: #000000; stroke: none; font-family: osifont; font-size: 3.47222; text-anchor: start;">
  <tspan y="341.75" x="405.5" style="fill: #000000; stroke: none; font-family: osifont; font-size: 3.47222; text-anchor: start;">.</tspan>
 </text>
 <text y="341.75" x="485.5" freecad:editable="Weight4" style="fill: #000000; stroke: none; font-family: osifont; font-size: 3.47222; text-anchor: start;">
  <tspan y="341.75" x="485.5" style="fill: #000000; stroke: none; font-family: osifont; font-size: 3.47222; text-anchor: start;">.</tspan>
 </text>
 <text y="341.75" x="545.5" freecad:editable="Standard4" style="fill: #000000; stroke: none; font-family: osifont; font-size: 3.47222; text-anchor: start;">
  <tspan y="341.75" x="545.5" style="fill: #000000; stroke: none; font-family: osifont; font-size: 3.47222; text-anchor: start;">.</tspan>
 </text>
 <line x1="404" y1="344" x2="584" style="stroke:black;stroke-width:0.35" y2="344"/>
 <text y="347.3" x="405.5" style="fill: #000000; stroke: none; font-family: osifont; font-size: 2.5; text-anchor: start;">Raw dimensions</text>
 <text y="347.3" x="485.5" style="fill: #000000; stroke: none; font-family: osifont; font-size: 2.5; text-anchor: start;">Projection</text>
 <text y="347.3" x="545.5" style="fill: #000000; stroke: none; font-family: osifont; font-size: 2.5; text-anchor: start;">Scale</text>
 <text y="352.75" x="405.5" freecad:editable="Raw dimensions4" style="fill: #000000; stroke: none; font-family: osifont; font-size: 3.47222; text-anchor: start;">
  <tspan y="352.75" x="405.5" style="fill: #000000; stroke: none; font-family: osifont; font-size: 3.47222; text-anchor: start;">.</tspan>
 </text>
 <text y="352.75" x="485.5" freecad:editable="Projection4" style="fill: #000000; stroke: none; font-family: osifont; font-size: 3.47222; text-anchor: start;">
  <tspan y="352.75" x="485.5" style="fill: #000000; stroke: none; font-family: osifont; font-size: 3.47222; text-anchor: start;">.</tspan>
 </text>
 <text y="352.75" x="545.5" freecad:editable="Scale4" style="fill: #000000; stroke: none; font-family: osifont; font-size: 3.47222; text-anchor: start;">
  <tspan y="352.75" x="545.5" style="fill: #000000; stroke: none; font-family: osifont; font-size: 3.47222; text-anchor: start;">.</tspan>
 </text>
 <line x1="541.083" y1="345.333" x2="541.083" style="stroke:black;stroke-width:0.35" y2="353.667"/>
 <line x1="541.083" y1="353.667" x2="532.75" style="stroke:black;stroke-width:0.35" y2="351.167"/>
 <line x1="532.75" y1="351.167" x2="532.75" style="stroke:black;stroke-width:0.35" y2="347.833"/>
 <line x1="532.75" y1="347.833" x2="541.083" style="stroke:black;stroke-width:0.35" y2="345.333"/>
 <circle cy="349.5" cx="527.333" r="2.08333" style="stroke:black;stroke-width:0.35" fill="none"/>
 <circle cy="349.5" cx="527.333" r="4.16667" style="stroke:black;stroke-width:0.35" fill="none"/>
 <line x1="522.333" y1="349.5" x2="523.773" style="stroke:black;stroke-width:0.18" y2="349.5"/>
 <line x1="524.133" y1="349.5" x2="524.493" style="stroke:black;stroke-width:0.18" y2="349.5"/>
 <line x1="524.853" y1="349.5" x2="526.293" style="stroke:black;stroke-width:0.18" y2="349.5"/>
 <line x1="526.653" y1="349.5" x2="527.013" style="stroke:black;stroke-width:0.18" y2="349.5"/>
 <line x1="527.373" y1="349.5" x2="528.813" style="stroke:black;stroke-width:0.18" y2="349.5"/>
 <line x1="529.173" y1="349.5" x2="529.533" style="stroke:black;stroke-width:0.18" y2="349.5"/>
 <line x1="529.893" y1="349.5" x2="531.333" style="stroke:black;stroke-width:0.18" y2="349.5"/>
 <line x1="531.693" y1="349.5" x2="532.053" style="stroke:black;stroke-width:0.18" y2="349.5"/>
 <line x1="532.413" y1="349.5" x2="533.853" style="stroke:black;stroke-width:0.18" y2="349.5"/>
 <line x1="534.213" y1="349.5" x2="534.573" style="stroke:black;stroke-width:0.18" y2="349.5"/>
 <line x1="534.933" y1="349.5" x2="536.373" style="stroke:black;stroke-width:0.18" y2="349.5"/>
 <line x1="536.733" y1="349.5" x2="537.093" style="stroke:black;stroke-width:0.18" y2="349.5"/>
 <line x1="537.453" y1="349.5" x2="538.893" style="stroke:black;stroke-width:0.18" y2="349.5"/>
 <line x1="539.253" y1="349.5" x2="539.613" style="stroke:black;stroke-width:0.18" y2="349.5"/>
 <line x1="539.973" y1="349.5" x2="541.413" style="stroke:black;stroke-width:0.18" y2="349.5"/>
 <line x1="541.773" y1="349.5" x2="541.917" style="stroke:black;stroke-width:0.18" y2="349.5"/>
 <line x1="527.333" y1="344.5" x2="527.333" style="stroke:black;stroke-width:0.18" y2="345.94"/>
 <line x1="527.333" y1="346.3" x2="527.333" style="stroke:black;stroke-width:0.18" y2="346.66"/>
 <line x1="527.333" y1="347.02" x2="527.333" style="stroke:black;stroke-width:0.18" y2="348.46"/>
 <line x1="527.333" y1="348.82" x2="527.333" style="stroke:black;stroke-width:0.18" y2="349.18"/>
 <line x1="527.333" y1="349.54" x2="527.333" style="stroke:black;stroke-width:0.18" y2="350.98"/>
 <line x1="527.333" y1="351.34" x2="527.333" style="stroke:black;stroke-width:0.18" y2="351.7"/>
 <line x1="527.333" y1="352.06" x2="527.333" style="stroke:black;stroke-width:0.18" y2="353.5"/>
 <line x1="527.333" y1="353.86" x2="527.333" style="stroke:black;stroke-width:0.18" y2="354.22"/>
 <line x1="404" y1="355" x2="584" style="stroke:black;stroke-width:0.35" y2="355"/>
 <text y="358.3" x="405.5" style="fill: #000000; stroke: none; font-family: osifont; font-size: 2.5; text-anchor: start;">Created by</text>
 <text y="358.3" x="485.5" style="fill: #000000; stroke: none; font-family: osifont; font-size: 2.5; text-anchor: start;">Valid from to</text>
 <text y="358.3" x="545.5" style="fill: #000000; stroke: none; font-family: osifont; font-size: 2.5; text-anchor: start;">Document state</text>
 <text y="363.75" x="405.5" freecad:editable="Created by4" style="fill: #000000; stroke: none; font-family: osifont; font-size: 3.47222; text-anchor: start;">
  <tspan y="363.75" x="405.5" style="fill: #000000; stroke: none; font-family: osifont; font-size: 3.47222; text-anchor: start;">.</tspan>
 </text>
 <text y="363.75" x="485.5" freecad:editable="Valid from to4" style="fill: #000000; stroke: none; font-family: osifont; font-size: 3.47222; text-anchor: start;">
  <tspan y="363.75" x="485.5" style="fill: #000000; stroke: none; font-family: osifont; font-size: 3.47222; text-anchor: start;">.</tspan>
 </text>
 <text y="363.75" x="545.5" freecad:editable="Document state4" style="fill: #000000; stroke: none; font-family: osifont; font-size: 3.47222; text-anchor: start;">
  <tspan y="363.75" x="545.5" style="fill: #000000; stroke: none; font-family: osifont; font-size: 3.47222; text-anchor: start;">.</tspan>
 </text>
 <line x1="404" y1="366" x2="584" style="stroke:black;stroke-width:0.35" y2="366"/>
 <text y="369.3" x="405.5" style="fill: #000000; stroke: none; font-family: osifont; font-size: 2.5; text-anchor: start;">Approved by</text>
 <text y="369.3" x="485.5" style="fill: #000000; stroke: none; font-family: osifont; font-size: 2.5; text-anchor: start;">Project</text>
 <text y="369.3" x="545.5" style="fill: #000000; stroke: none; font-family: osifont; font-size: 2.5; text-anchor: start;">Document type</text>
 <text y="374.75" x="405.5" freecad:editable="Approved by4" style="fill: #000000; stroke: none; font-family: osifont; font-size: 3.47222; text-anchor: start;">
  <tspan y="374.75" x="405.5" style="fill: #000000; stroke: none; font-family: osifont; font-size: 3.47222; text-anchor: start;">.</tspan>
 </text>
 <text y="374.75" x="485.5" freecad:editable="Project4" style="fill: #000000; stroke: none; font-family: osifont; font-size: 3.47222; text-anchor: start;">
  <tspan y="374.75" x="485.5" style="fill: #000000; stroke: none; font-family: osifont; font-size: 3.47222; text-anchor: start;"></tspan>
 </text>
 <text y="374.75" x="545.5" freecad:editable="Document type4" style="fill: #000000; stroke: none; font-family: osifont; font-size: 3.47222; text-anchor: start;">
  <tspan y="374.75" x="545.5" style="fill: #000000; stroke: none; font-family: osifont; font-size: 3.47222; text-anchor: start;">.</tspan>
 </text>
 <line x1="404" y1="377" x2="584" style="stroke:black;stroke-width:0.35" y2="377"/>
 <text y="380.3" x="405.5" style="fill: #000000; stroke: none; font-family: osifont; font-size: 2.5; text-anchor: start;">Legal owner</text>
 <text y="380.3" x="485.5" style="fill: #000000; stroke: none; font-family: osifont; font-size: 2.5; text-anchor: start;">Title, Supplementary title</text>
 <text y="380.3" x="545.5" style="fill: #000000; stroke: none; font-family: osifont; font-size: 2.5; text-anchor: start;">Document number</text>
 <text y="391" x="405.5" freecad:editable="Legal owner4" style="fill: #000000; stroke: none; font-family: osifont; font-size: 6.94444; text-anchor: start;">
  <tspan y="391" x="405.5" style="fill: #000000; stroke: none; font-family: osifont; font-size: 6.94444; text-anchor: start;">.</tspan>
 </text>
 <text y="391" x="485.5" freecad:editable="Title, Supplementary title4" style="fill: #000000; stroke: none; font-family: osifont; font-size: 6.94444; text-anchor: start;">
  <tspan y="391" x="485.5" style="fill: #000000; stroke: none; font-family: osifont; font-size: 6.94444; text-anchor: start;">.</tspan>
 </text>
 <text y="385.75" x="545.5" freecad:editable="Document number4" style="fill: #000000; stroke: none; font-family: osifont; font-size: 3.47222; text-anchor: start;">
  <tspan y="385.75" x="545.5" style="fill: #000000; stroke: none; font-family: osifont; font-size: 3.47222; text-anchor: start;">.</tspan>
 </text>
 <line x1="544" y1="388" x2="584" style="stroke:black;stroke-width:0.35" y2="388"/>
 <text y="391.3" x="545.5" style="fill: #000000; stroke: none; font-family: osifont; font-size: 2.5; text-anchor: start;">Rev.</text>
 <text y="391.3" x="557.5" style="fill: #000000; stroke: none; font-family: osifont; font-size: 2.5; text-anchor: start;">Date of issue</text>
 <text y="396.75" x="545.5" freecad:editable="Rev.4" style="fill: #000000; stroke: none; font-family: osifont; font-size: 3.47222; text-anchor: start;">
  <tspan y="396.75" x="545.5" style="fill: #000000; stroke: none; font-family: osifont; font-size: 3.47222; text-anchor: start;">.</tspan>
 </text>
 <text y="396.75" x="557.5" freecad:editable="Date of issue4" style="fill: #000000; stroke: none; font-family: osifont; font-size: 3.47222; text-anchor: start;">
  <tspan y="396.75" x="557.5" style="fill: #000000; stroke: none; font-family: osifont; font-size: 3.47222; text-anchor: start;">.</tspan>
 </text>
 <line x1="544" y1="399" x2="584" style="stroke:black;stroke-width:0.35" y2="399"/>
 <text y="402.3" x="545.5" style="fill: #000000; stroke: none; font-family: osifont; font-size: 2.5; text-anchor: start;">Lang.</text>
 <text y="402.3" x="557.5" style="fill: #000000; stroke: none; font-family: osifont; font-size: 2.5; text-anchor: start;">Sheet</text>
 <text y="407.75" x="545.5" freecad:editable="Lang.4" style="fill: #000000; stroke: none; font-family: osifont; font-size: 3.47222; text-anchor: start;">
  <tspan y="407.75" x="545.5" style="fill: #000000; stroke: none; font-family: osifont; font-size: 3.47222; text-anchor: start;">EN</tspan>
 </text>
 <text y="407.75" x="557.5" freecad:editable="Sheet4" style="fill: #000000; stroke: none; font-family: osifont; font-size: 3.47222; text-anchor: start;">
  <tspan y="407.75" x="557.5" style="fill: #000000; stroke: none; font-family: osifont; font-size: 3.47222; text-anchor: start;">.</tspan>
 </text>
 <line x1="116" y1="0" x2="116" style="stroke:black;stroke-width:0.35" y2="5"/>
 <line x1="116" y1="420" x2="116" style="stroke:black;stroke-width:0.35" y2="415"/>
 <line x1="212" y1="0" x2="212" style="stroke:black;stroke-width:0.35" y2="5"/>
 <line x1="212" y1="420" x2="212" style="stroke:black;stroke-width:0.35" y2="415"/>
 <line x1="308" y1="0" x2="308" style="stroke:black;stroke-width:0.35" y2="5"/>
 <line x1="308" y1="420" x2="308" style="stroke:black;stroke-width:0.35" y2="415"/>
 <line x1="404" y1="0" x2="404" style="stroke:black;stroke-width:0.35" y2="5"/>
 <line x1="404" y1="420" x2="404" style="stroke:black;stroke-width:0.35" y2="415"/>
 <line x1="0" y1="123" x2="5" style="stroke:black;stroke-width:0.35" y2="123"/>
 <line x1="594" y1="123" x2="589" style="stroke:black;stroke-width:0.35" y2="123"/>
</svg>
