<?xml version="1.0" encoding="UTF-8"?>
<svg width="210mm" height="150mm" version="1.1" viewBox="0 0 210 150" xmlns="http://www.w3.org/2000/svg" xmlns:cc="http://creativecommons.org/ns#" xmlns:dc="http://purl.org/dc/elements/1.1/" xmlns:freecad="http://www.freecadweb.org/wiki/index.php?title=Svg_Namespace" xmlns:rdf="http://www.w3.org/1999/02/22-rdf-syntax-ns#">
 <metadata>
  <rdf:RDF>
   <cc:Work rdf:about="">
    <dc:format>image/svg+xml</dc:format>
    <dc:type rdf:resource="http://purl.org/dc/dcmitype/StillImage"/>
    <dc:title/>
   </cc:Work>
  </rdf:RDF>
 </metadata>
 <g stroke-width="0">
  <polygon points="0 0 10 0 10 5 5 5 5 10 0 10"/>
  <polygon points="210 0 200 0 200 5 205 5 205 10 210 10"/>
  <polygon points="210 150 200 150 200 145 205 145 205 140 210 140"/>
  <polygon points="0 150 10 150 10 145 5 145 5 140 0 140"/>
 </g>
 <g stroke="#000">
  <rect x="15" y="5" width="190" height="140" fill="none" stroke-width=".35"/>
  <g stroke-width=".7">
   <rect x="20" y="10" width="180" height="130" fill="none"/>
   <line x1="105" x2="105" y1="5" y2="10"/>
   <line x1="105" x2="105" y1="145" y2="140"/>
   <line x1="15" x2="30" y1="75" y2="75"/>
   <line x1="205" x2="190" y1="75" y2="75"/>
  </g>
  <line x1="55" x2="55" y1="5" y2="10" stroke-width=".35"/>
  <line x1="55" x2="55" y1="145" y2="140" stroke-width=".35"/>
 </g>
 <g fill="#000000" font-family="osifont" font-size="4.8611" text-anchor="middle">
  <text x="30" y="9.25">1</text>
  <text x="80" y="9.25">2</text>
  <text x="130" y="9.25">3</text>
 </g>
 <line x1="155" x2="155" y1="5" y2="10" stroke="#000" stroke-width=".35"/>
 <text x="180" y="9.25" fill="#000000" font-family="osifont" font-size="4.8611" text-anchor="middle">4</text>
 <line x1="155" x2="155" y1="145" y2="140" stroke="#000" stroke-width=".35"/>
 <text x="182.5" y="144.25" fill="#000000" font-family="osifont" font-size="4.8611" text-anchor="middle">210x150</text>
 <line x1="15" x2="20" y1="25" y2="25" stroke="#000" stroke-width=".35"/>
 <line x1="205" x2="200" y1="25" y2="25" stroke="#000" stroke-width=".35"/>
 <g fill="#000000" font-family="osifont" font-size="4.8611" text-anchor="middle">
  <text x="17.5" y="19.25">A</text>
  <text x="17.5" y="51.75">B</text>
  <text x="17.5" y="101.75">C</text>
 </g>
 <line x1="15" x2="20" y1="125" y2="125" stroke="#000" stroke-width=".35"/>
 <text x="17.5" y="134.25" fill="#000000" font-family="osifont" font-size="4.8611" text-anchor="middle">D</text>
 <g stroke="#000">
  <line x1="205" x2="200" y1="125" y2="125" stroke-width=".35"/>
  <rect x="20" y="85" width="180" height="55" fill="none" stroke-width=".7"/>
  <g stroke-width=".35">
   <line x1="100" x2="100" y1="85" y2="140"/>
   <line x1="160" x2="160" y1="85" y2="140"/>
   <line x1="172" x2="172" y1="118" y2="140"/>
  </g>
 </g>
 <g fill="#000000" font-family="osifont">
  <g font-size="2.5">
   <text x="21.5" y="88.3">Created by</text>
   <text x="101.5" y="88.3">Valid from to</text>
   <text x="161.5" y="88.3">Document state</text>
  </g>
  <g font-size="3.4722">
   <text x="21.5" y="93.75" freecad:editable="Created by4"><tspan x="21.5" y="93.75" fill="#000000" font-family="osifont" font-size="3.4722">.</tspan></text>
   <text x="101.5" y="93.75" freecad:editable="Valid from to4"><tspan x="101.5" y="93.75" fill="#000000" font-family="osifont" font-size="3.4722">.</tspan></text>
   <text x="161.5" y="93.75" freecad:editable="Document state4"><tspan x="161.5" y="93.75" fill="#000000" font-family="osifont" font-size="3.4722">.</tspan></text>
  </g>
 </g>
 <line x1="20" x2="200" y1="96" y2="96" stroke="#000" stroke-width=".35"/>
 <g fill="#000000" font-family="osifont">
  <g font-size="2.5">
   <text x="21.5" y="99.3">Approved by</text>
   <text x="101.5" y="99.3">Project</text>
   <text x="161.5" y="99.3">Document type</text>
  </g>
  <g font-size="3.4722">
   <text x="21.5" y="104.75" freecad:editable="Approved by4"><tspan x="21.5" y="104.75" fill="#000000" font-family="osifont" font-size="3.4722">.</tspan></text>
   <text x="101.5" y="104.75" freecad:editable="Project4"><tspan x="101.5" y="104.75" fill="#000000" font-family="osifont" font-size="3.4722"/></text>
   <text x="161.5" y="104.75" freecad:editable="Document type4"><tspan x="161.5" y="104.75" fill="#000000" font-family="osifont" font-size="3.4722">.</tspan></text>
  </g>
 </g>
 <line x1="20" x2="200" y1="107" y2="107" stroke="#000" stroke-width=".35"/>
 <g fill="#000000" font-family="osifont">
  <g font-size="2.5">
   <text x="21.5" y="110.3">Legal owner</text>
   <text x="101.5" y="110.3">Title, Supplementary title</text>
   <text x="161.5" y="110.3">Document number</text>
  </g>
  <text x="21.5" y="121" font-size="6.9444" freecad:editable="Legal owner4"><tspan x="21.5" y="121" fill="#000000" font-family="osifont" font-size="6.9444">.</tspan></text>
  <text x="101.5" y="121" font-size="6.9444" freecad:editable="Title, Supplementary title4"><tspan x="101.5" y="121" fill="#000000" font-family="osifont" font-size="6.9444">.</tspan></text>
  <text x="161.5" y="115.75" font-size="3.4722" freecad:editable="Document number4"><tspan x="161.5" y="115.75" fill="#000000" font-family="osifont" font-size="3.4722">.</tspan></text>
 </g>
 <line x1="160" x2="200" y1="118" y2="118" stroke="#000" stroke-width=".35"/>
 <g fill="#000000" font-family="osifont">
  <text x="161.5" y="121.3" font-size="2.5">Rev.</text>
  <text x="173.5" y="121.3" font-size="2.5">Date of issue</text>
  <text x="161.5" y="126.75" font-size="3.4722" freecad:editable="Rev.4"><tspan x="161.5" y="126.75" fill="#000000" font-family="osifont" font-size="3.4722">.</tspan></text>
  <text x="173.5" y="126.75" font-size="3.4722" freecad:editable="Date of issue4"><tspan x="173.5" y="126.75" fill="#000000" font-family="osifont" font-size="3.4722">.</tspan></text>
 </g>
 <line x1="160" x2="200" y1="129" y2="129" stroke="#000" stroke-width=".35"/>
 <g fill="#000000" font-family="osifont">
  <text x="161.5" y="132.3" font-size="2.5">Lang.</text>
  <text x="173.5" y="132.3" font-size="2.5">Sheet</text>
  <text x="161.5" y="137.75" font-size="3.4722" freecad:editable="Lang.4"><tspan x="161.5" y="137.75" fill="#000000" font-family="osifont" font-size="3.4722">EN</tspan></text>
  <text x="173.5" y="137.75" font-size="3.4722" freecad:editable="Sheet4"><tspan x="173.5" y="137.75" fill="#000000" font-family="osifont" font-size="3.4722">.</tspan></text>
 </g>
 <rect x="20" y="10" width="180" height="48.5" fill="none" stroke="#000" stroke-width=".7"/>
 <text x="110" y="12.9" fill="#000000" font-family="osifont" font-size="2.5" text-anchor="middle">Revision History</text>
 <line x1="200" x2="20" y1="14" y2="14" stroke="#000" stroke-width=".35"/>
 <g fill="#000000" font-family="osifont" font-size="2.5" text-anchor="middle">
  <text x="27.5" y="16.9">Zone</text>
  <text x="45" y="16.9">Rev.</text>
  <text x="102.5" y="16.9">Description</text>
  <text x="160" y="16.9">Date</text>
  <text x="185" y="16.9">Created by</text>
 </g>
 <g stroke="#000">
  <line x1="200" x2="20" y1="18" y2="18" stroke-width=".7"/>
  <g stroke-width=".35">
   <line x1="35" x2="35" y1="10" y2="58.5"/>
   <line x1="55" x2="55" y1="10" y2="58.5"/>
   <line x1="150" x2="150" y1="10" y2="58.5"/>
   <line x1="170" x2="170" y1="10" y2="58.5"/>
   <line x1="200" x2="20" y1="18" y2="18"/>
  </g>
 </g>
 <g fill="#000000" font-family="osifont" font-size="3.4722" text-anchor="middle">
  <text x="27.5" y="22" freecad:editable="Option 110"><tspan x="27.5" y="22" fill="#000000" font-family="osifont" font-size="3.4722" text-anchor="middle">.</tspan></text>
  <text x="27.5" y="25.75" freecad:editable="Option 111"><tspan x="27.5" y="25.75" fill="#000000" font-family="osifont" font-size="3.4722" text-anchor="middle">.</tspan></text>
  <text x="27.5" y="29.5" freecad:editable="Option 112"><tspan x="27.5" y="29.5" fill="#000000" font-family="osifont" font-size="3.4722" text-anchor="middle">.</tspan></text>
  <text x="45" y="22" freecad:editable="Option 210"><tspan x="45" y="22" fill="#000000" font-family="osifont" font-size="3.4722" text-anchor="middle">.</tspan></text>
  <text x="45" y="25.75" freecad:editable="Option 211"><tspan x="45" y="25.75" fill="#000000" font-family="osifont" font-size="3.4722" text-anchor="middle">.</tspan></text>
  <text x="45" y="29.5" freecad:editable="Option 212"><tspan x="45" y="29.5" fill="#000000" font-family="osifont" font-size="3.4722" text-anchor="middle">.</tspan></text>
  <text x="102.5" y="22" freecad:editable="Option 310"><tspan x="102.5" y="22" fill="#000000" font-family="osifont" font-size="3.4722" text-anchor="middle">.</tspan></text>
  <text x="102.5" y="25.75" freecad:editable="Option 311"><tspan x="102.5" y="25.75" fill="#000000" font-family="osifont" font-size="3.4722" text-anchor="middle">.</tspan></text>
  <text x="102.5" y="29.5" freecad:editable="Option 312"><tspan x="102.5" y="29.5" fill="#000000" font-family="osifont" font-size="3.4722" text-anchor="middle">.</tspan></text>
  <text x="160" y="22" freecad:editable="Surface treatment10"><tspan x="160" y="22" fill="#000000" font-family="osifont" font-size="3.4722" text-anchor="middle">.</tspan></text>
  <text x="160" y="25.75" freecad:editable="Surface treatment11"><tspan x="160" y="25.75" fill="#000000" font-family="osifont" font-size="3.4722" text-anchor="middle">.</tspan></text>
  <text x="160" y="29.5" freecad:editable="Surface treatment12"><tspan x="160" y="29.5" fill="#000000" font-family="osifont" font-size="3.4722" text-anchor="middle">.</tspan></text>
  <text x="185" y="22" freecad:editable="Weight10"><tspan x="185" y="22" fill="#000000" font-family="osifont" font-size="3.4722" text-anchor="middle">.</tspan></text>
  <text x="185" y="25.75" freecad:editable="Weight11"><tspan x="185" y="25.75" fill="#000000" font-family="osifont" font-size="3.4722" text-anchor="middle">.</tspan></text>
  <text x="185" y="29.5" freecad:editable="Weight12"><tspan x="185" y="29.5" fill="#000000" font-family="osifont" font-size="3.4722" text-anchor="middle">.</tspan></text>
 </g>
 <line x1="200" x2="20" y1="31.5" y2="31.5" stroke="#000" stroke-width=".35"/>
 <g fill="#000000" font-family="osifont" font-size="3.4722" text-anchor="middle">
  <text x="27.5" y="35.5" freecad:editable="Option 120"><tspan x="27.5" y="35.5" fill="#000000" font-family="osifont" font-size="3.4722" text-anchor="middle">.</tspan></text>
  <text x="27.5" y="39.25" freecad:editable="Option 121"><tspan x="27.5" y="39.25" fill="#000000" font-family="osifont" font-size="3.4722" text-anchor="middle">.</tspan></text>
  <text x="27.5" y="43" freecad:editable="Option 122"><tspan x="27.5" y="43" fill="#000000" font-family="osifont" font-size="3.4722" text-anchor="middle">.</tspan></text>
  <text x="45" y="35.5" freecad:editable="Option 220"><tspan x="45" y="35.5" fill="#000000" font-family="osifont" font-size="3.4722" text-anchor="middle">.</tspan></text>
  <text x="45" y="39.25" freecad:editable="Option 221"><tspan x="45" y="39.25" fill="#000000" font-family="osifont" font-size="3.4722" text-anchor="middle">.</tspan></text>
  <text x="45" y="43" freecad:editable="Option 222"><tspan x="45" y="43" fill="#000000" font-family="osifont" font-size="3.4722" text-anchor="middle">.</tspan></text>
  <text x="102.5" y="35.5" freecad:editable="Option 320"><tspan x="102.5" y="35.5" fill="#000000" font-family="osifont" font-size="3.4722" text-anchor="middle">.</tspan></text>
  <text x="102.5" y="39.25" freecad:editable="Option 321"><tspan x="102.5" y="39.25" fill="#000000" font-family="osifont" font-size="3.4722" text-anchor="middle">.</tspan></text>
  <text x="102.5" y="43" freecad:editable="Option 322"><tspan x="102.5" y="43" fill="#000000" font-family="osifont" font-size="3.4722" text-anchor="middle">.</tspan></text>
  <text x="160" y="35.5" freecad:editable="Surface treatment20"><tspan x="160" y="35.5" fill="#000000" font-family="osifont" font-size="3.4722" text-anchor="middle">.</tspan></text>
  <text x="160" y="39.25" freecad:editable="Surface treatment21"><tspan x="160" y="39.25" fill="#000000" font-family="osifont" font-size="3.4722" text-anchor="middle">.</tspan></text>
  <text x="160" y="43" freecad:editable="Surface treatment22"><tspan x="160" y="43" fill="#000000" font-family="osifont" font-size="3.4722" text-anchor="middle">.</tspan></text>
  <text x="185" y="35.5" freecad:editable="Weight20"><tspan x="185" y="35.5" fill="#000000" font-family="osifont" font-size="3.4722" text-anchor="middle">.</tspan></text>
  <text x="185" y="39.25" freecad:editable="Weight21"><tspan x="185" y="39.25" fill="#000000" font-family="osifont" font-size="3.4722" text-anchor="middle">.</tspan></text>
  <text x="185" y="43" freecad:editable="Weight22"><tspan x="185" y="43" fill="#000000" font-family="osifont" font-size="3.4722" text-anchor="middle">.</tspan></text>
 </g>
 <line x1="200" x2="20" y1="45" y2="45" stroke="#000" stroke-width=".35"/>
 <g fill="#000000" font-family="osifont" font-size="3.4722" text-anchor="middle">
  <text x="27.5" y="49" freecad:editable="Option 130"><tspan x="27.5" y="49" fill="#000000" font-family="osifont" font-size="3.4722" text-anchor="middle">.</tspan></text>
  <text x="27.5" y="52.75" freecad:editable="Option 131"><tspan x="27.5" y="52.75" fill="#000000" font-family="osifont" font-size="3.4722" text-anchor="middle">.</tspan></text>
  <text x="27.5" y="56.5" freecad:editable="Option 132"><tspan x="27.5" y="56.5" fill="#000000" font-family="osifont" font-size="3.4722" text-anchor="middle">.</tspan></text>
  <text x="45" y="49" freecad:editable="Option 230"><tspan x="45" y="49" fill="#000000" font-family="osifont" font-size="3.4722" text-anchor="middle">.</tspan></text>
  <text x="45" y="52.75" freecad:editable="Option 231"><tspan x="45" y="52.75" fill="#000000" font-family="osifont" font-size="3.4722" text-anchor="middle">.</tspan></text>
  <text x="45" y="56.5" freecad:editable="Option 232"><tspan x="45" y="56.5" fill="#000000" font-family="osifont" font-size="3.4722" text-anchor="middle">.</tspan></text>
  <text x="102.5" y="49" freecad:editable="Option 330"><tspan x="102.5" y="49" fill="#000000" font-family="osifont" font-size="3.4722" text-anchor="middle">.</tspan></text>
  <text x="102.5" y="52.75" freecad:editable="Option 331"><tspan x="102.5" y="52.75" fill="#000000" font-family="osifont" font-size="3.4722" text-anchor="middle">.</tspan></text>
  <text x="102.5" y="56.5" freecad:editable="Option 332"><tspan x="102.5" y="56.5" fill="#000000" font-family="osifont" font-size="3.4722" text-anchor="middle">.</tspan></text>
  <text x="160" y="49" freecad:editable="Surface treatment30"><tspan x="160" y="49" fill="#000000" font-family="osifont" font-size="3.4722" text-anchor="middle">.</tspan></text>
  <text x="160" y="52.75" freecad:editable="Surface treatment31"><tspan x="160" y="52.75" fill="#000000" font-family="osifont" font-size="3.4722" text-anchor="middle">.</tspan></text>
  <text x="160" y="56.5" freecad:editable="Surface treatment32"><tspan x="160" y="56.5" fill="#000000" font-family="osifont" font-size="3.4722" text-anchor="middle">.</tspan></text>
  <text x="185" y="49" freecad:editable="Weight30"><tspan x="185" y="49" fill="#000000" font-family="osifont" font-size="3.4722" text-anchor="middle">.</tspan></text>
  <text x="185" y="52.75" freecad:editable="Weight31"><tspan x="185" y="52.75" fill="#000000" font-family="osifont" font-size="3.4722" text-anchor="middle">.</tspan></text>
  <text x="185" y="56.5" freecad:editable="Weight32"><tspan x="185" y="56.5" fill="#000000" font-family="osifont" font-size="3.4722" text-anchor="middle">.</tspan></text>
 </g>
</svg>
