<?xml version="1.0" encoding="UTF-8"?>
<svg width="210mm" height="120mm" version="1.1" viewBox="0 0 210 120" xmlns="http://www.w3.org/2000/svg" xmlns:cc="http://creativecommons.org/ns#" xmlns:dc="http://purl.org/dc/elements/1.1/" xmlns:freecad="http://www.freecadweb.org/wiki/index.php?title=Svg_Namespace" xmlns:rdf="http://www.w3.org/1999/02/22-rdf-syntax-ns#">
 <metadata>
  <rdf:RDF>
   <cc:Work rdf:about="">
    <dc:format>image/svg+xml</dc:format>
    <dc:type rdf:resource="http://purl.org/dc/dcmitype/StillImage"/>
    <dc:title/>
   </cc:Work>
  </rdf:RDF>
 </metadata>
 <g stroke-width="0">
  <polygon points="0 0 10 0 10 5 5 5 5 10 0 10"/>
  <polygon points="210 0 200 0 200 5 205 5 205 10 210 10"/>
  <polygon points="210 120 200 120 200 115 205 115 205 110 210 110"/>
  <polygon points="0 120 10 120 10 115 5 115 5 110 0 110"/>
 </g>
 <g stroke="#000">
  <rect x="15" y="5" width="190" height="110" fill="none" stroke-width=".35"/>
  <g stroke-width=".7">
   <rect x="20" y="10" width="180" height="100" fill="none"/>
   <line x1="105" x2="105" y1="5" y2="20"/>
   <line x1="105" x2="105" y1="115" y2="110"/>
   <line x1="15" x2="20" y1="60" y2="60"/>
   <line x1="205" x2="200" y1="60" y2="60"/>
  </g>
  <line x1="55" x2="55" y1="5" y2="10" stroke-width=".35"/>
  <line x1="55" x2="55" y1="115" y2="110" stroke-width=".35"/>
 </g>
 <g fill="#000000" font-family="osifont" font-size="4.8611" text-anchor="middle">
  <text x="30" y="9.25">1</text>
  <text x="80" y="9.25">2</text>
  <text x="130" y="9.25">3</text>
 </g>
 <line x1="155" x2="155" y1="5" y2="10" stroke="#000" stroke-width=".35"/>
 <text x="180" y="9.25" fill="#000000" font-family="osifont" font-size="4.8611" text-anchor="middle">4</text>
 <line x1="155" x2="155" y1="115" y2="110" stroke="#000" stroke-width=".35"/>
 <g fill="#000000" font-family="osifont" font-size="4.8611" text-anchor="middle">
  <text x="182.5" y="114.25">210x120</text>
  <text x="17.5" y="36.75">A</text>
  <text x="17.5" y="86.75">B</text>
 </g>
 <rect x="20" y="28.8" width="180" height="26.2" fill="none" stroke="#000" stroke-width=".7"/>
 <text x="21.5" y="32.1" fill="#000000" font-family="osifont" font-size="2.5">Description</text>
 <text x="21.5" y="37.55" fill="#000000" font-family="osifont" font-size="3.4722" freecad:editable="Description4"><tspan x="21.5" y="37.55" fill="#000000" font-family="osifont" font-size="3.4722">.</tspan></text>
 <g stroke="#000">
  <rect x="20" y="55" width="180" height="55" fill="none" stroke-width=".7"/>
  <g stroke-width=".35">
   <line x1="100" x2="100" y1="55" y2="110"/>
   <line x1="160" x2="160" y1="55" y2="110"/>
   <line x1="172" x2="172" y1="88" y2="110"/>
  </g>
 </g>
 <g fill="#000000" font-family="osifont">
  <g font-size="2.5">
   <text x="21.5" y="58.3">Created by</text>
   <text x="101.5" y="58.3">Valid from to</text>
   <text x="161.5" y="58.3">Document state</text>
  </g>
  <g font-size="3.4722">
   <text x="21.5" y="63.75" freecad:editable="Created by4"><tspan x="21.5" y="63.75" fill="#000000" font-family="osifont" font-size="3.4722">.</tspan></text>
   <text x="101.5" y="63.75" freecad:editable="Valid from to4"><tspan x="101.5" y="63.75" fill="#000000" font-family="osifont" font-size="3.4722">.</tspan></text>
   <text x="161.5" y="63.75" freecad:editable="Document state4"><tspan x="161.5" y="63.75" fill="#000000" font-family="osifont" font-size="3.4722">.</tspan></text>
  </g>
 </g>
 <line x1="20" x2="200" y1="66" y2="66" stroke="#000" stroke-width=".35"/>
 <g fill="#000000" font-family="osifont">
  <g font-size="2.5">
   <text x="21.5" y="69.3">Approved by</text>
   <text x="101.5" y="69.3">Project</text>
   <text x="161.5" y="69.3">Document type</text>
  </g>
  <g font-size="3.4722">
   <text x="21.5" y="74.75" freecad:editable="Approved by4"><tspan x="21.5" y="74.75" fill="#000000" font-family="osifont" font-size="3.4722">.</tspan></text>
   <text x="101.5" y="74.75" freecad:editable="Project4"><tspan x="101.5" y="74.75" fill="#000000" font-family="osifont" font-size="3.4722"/></text>
   <text x="161.5" y="74.75" freecad:editable="Document type4"><tspan x="161.5" y="74.75" fill="#000000" font-family="osifont" font-size="3.4722">.</tspan></text>
  </g>
 </g>
 <line x1="20" x2="200" y1="77" y2="77" stroke="#000" stroke-width=".35"/>
 <g fill="#000000" font-family="osifont">
  <g font-size="2.5">
   <text x="21.5" y="80.3">Legal owner</text>
   <text x="101.5" y="80.3">Title, Supplementary title</text>
   <text x="161.5" y="80.3">Document number</text>
  </g>
  <text x="21.5" y="91" font-size="6.9444" freecad:editable="Legal owner4"><tspan x="21.5" y="91" fill="#000000" font-family="osifont" font-size="6.9444">.</tspan></text>
  <text x="101.5" y="91" font-size="6.9444" freecad:editable="Title, Supplementary title4"><tspan x="101.5" y="91" fill="#000000" font-family="osifont" font-size="6.9444">.</tspan></text>
  <text x="161.5" y="85.75" font-size="3.4722" freecad:editable="Document number4"><tspan x="161.5" y="85.75" fill="#000000" font-family="osifont" font-size="3.4722">.</tspan></text>
 </g>
 <line x1="160" x2="200" y1="88" y2="88" stroke="#000" stroke-width=".35"/>
 <g fill="#000000" font-family="osifont">
  <text x="161.5" y="91.3" font-size="2.5">Rev.</text>
  <text x="173.5" y="91.3" font-size="2.5">Date of issue</text>
  <text x="161.5" y="96.75" font-size="3.4722" freecad:editable="Rev.4"><tspan x="161.5" y="96.75" fill="#000000" font-family="osifont" font-size="3.4722">.</tspan></text>
  <text x="173.5" y="96.75" font-size="3.4722" freecad:editable="Date of issue4"><tspan x="173.5" y="96.75" fill="#000000" font-family="osifont" font-size="3.4722">.</tspan></text>
 </g>
 <line x1="160" x2="200" y1="99" y2="99" stroke="#000" stroke-width=".35"/>
 <g fill="#000000" font-family="osifont">
  <text x="161.5" y="102.3" font-size="2.5">Lang.</text>
  <text x="173.5" y="102.3" font-size="2.5">Sheet</text>
  <text x="161.5" y="107.75" font-size="3.4722" freecad:editable="Lang.4"><tspan x="161.5" y="107.75" fill="#000000" font-family="osifont" font-size="3.4722">EN</tspan></text>
  <text x="173.5" y="107.75" font-size="3.4722" freecad:editable="Sheet4"><tspan x="173.5" y="107.75" fill="#000000" font-family="osifont" font-size="3.4722">.</tspan></text>
 </g>
</svg>
