<?xml version="1.0" encoding="UTF-8"?>
<svg width="210mm" height="150mm" version="1.1" viewBox="0 0 210 150" xmlns="http://www.w3.org/2000/svg" xmlns:cc="http://creativecommons.org/ns#" xmlns:dc="http://purl.org/dc/elements/1.1/" xmlns:freecad="http://www.freecadweb.org/wiki/index.php?title=Svg_Namespace" xmlns:rdf="http://www.w3.org/1999/02/22-rdf-syntax-ns#">
 <metadata>
  <rdf:RDF>
   <cc:Work rdf:about="">
    <dc:format>image/svg+xml</dc:format>
    <dc:type rdf:resource="http://purl.org/dc/dcmitype/StillImage"/>
    <dc:title/>
   </cc:Work>
  </rdf:RDF>
 </metadata>
 <g stroke-width="0">
  <polygon points="0 0 10 0 10 5 5 5 5 10 0 10"/>
  <polygon points="210 0 200 0 200 5 205 5 205 10 210 10"/>
  <polygon points="210 150 200 150 200 145 205 145 205 140 210 140"/>
  <polygon points="0 150 10 150 10 145 5 145 5 140 0 140"/>
 </g>
 <g stroke="#000">
  <rect x="15" y="5" width="190" height="140" fill="none" stroke-width=".35"/>
  <g stroke-width=".7">
   <rect x="20" y="10" width="180" height="130" fill="none"/>
   <line x1="105" x2="105" y1="5" y2="10"/>
   <line x1="105" x2="105" y1="145" y2="140"/>
   <line x1="15" x2="20" y1="75" y2="75"/>
   <line x1="205" x2="200" y1="75" y2="75"/>
  </g>
  <line x1="55" x2="55" y1="5" y2="10" stroke-width=".35"/>
  <line x1="55" x2="55" y1="145" y2="140" stroke-width=".35"/>
 </g>
 <g fill="#000000" font-family="osifont" font-size="4.8611" text-anchor="middle">
  <text x="30" y="9.25">1</text>
  <text x="80" y="9.25">2</text>
  <text x="130" y="9.25">3</text>
 </g>
 <line x1="155" x2="155" y1="5" y2="10" stroke="#000" stroke-width=".35"/>
 <text x="180" y="9.25" fill="#000000" font-family="osifont" font-size="4.8611" text-anchor="middle">4</text>
 <line x1="155" x2="155" y1="145" y2="140" stroke="#000" stroke-width=".35"/>
 <text x="182.5" y="144.25" fill="#000000" font-family="osifont" font-size="4.8611" text-anchor="middle">210x150</text>
 <line x1="15" x2="20" y1="25" y2="25" stroke="#000" stroke-width=".35"/>
 <line x1="205" x2="200" y1="25" y2="25" stroke="#000" stroke-width=".35"/>
 <g fill="#000000" font-family="osifont" font-size="4.8611" text-anchor="middle">
  <text x="17.5" y="19.25">A</text>
  <text x="17.5" y="51.75">B</text>
  <text x="17.5" y="101.75">C</text>
 </g>
 <line x1="15" x2="20" y1="125" y2="125" stroke="#000" stroke-width=".35"/>
 <text x="17.5" y="134.25" fill="#000000" font-family="osifont" font-size="4.8611" text-anchor="middle">D</text>
 <g stroke="#000">
  <line x1="205" x2="200" y1="125" y2="125" stroke-width=".35"/>
  <rect x="20" y="85" width="180" height="55" fill="none" stroke-width=".7"/>
  <g stroke-width=".35">
   <line x1="100" x2="100" y1="85" y2="140"/>
   <line x1="160" x2="160" y1="85" y2="140"/>
   <line x1="172" x2="172" y1="118" y2="140"/>
  </g>
 </g>
 <g fill="#000000" font-family="osifont">
  <g font-size="2.5">
   <text x="21.5" y="88.3">Created by</text>
   <text x="101.5" y="88.3">Valid from to</text>
   <text x="161.5" y="88.3">Document state</text>
  </g>
  <g font-size="3.4722">
   <text x="21.5" y="93.75" freecad:editable="Created by4"><tspan x="21.5" y="93.75" fill="#000000" font-family="osifont" font-size="3.4722">.</tspan></text>
   <text x="101.5" y="93.75" freecad:editable="Valid from to4"><tspan x="101.5" y="93.75" fill="#000000" font-family="osifont" font-size="3.4722">.</tspan></text>
   <text x="161.5" y="93.75" freecad:editable="Document state4"><tspan x="161.5" y="93.75" fill="#000000" font-family="osifont" font-size="3.4722">.</tspan></text>
  </g>
 </g>
 <line x1="20" x2="200" y1="96" y2="96" stroke="#000" stroke-width=".35"/>
 <g fill="#000000" font-family="osifont">
  <g font-size="2.5">
   <text x="21.5" y="99.3">Approved by</text>
   <text x="101.5" y="99.3">Project</text>
   <text x="161.5" y="99.3">Document type</text>
  </g>
  <g font-size="3.4722">
   <text x="21.5" y="104.75" freecad:editable="Approved by4"><tspan x="21.5" y="104.75" fill="#000000" font-family="osifont" font-size="3.4722">.</tspan></text>
   <text x="101.5" y="104.75" freecad:editable="Project4"><tspan x="101.5" y="104.75" fill="#000000" font-family="osifont" font-size="3.4722"/></text>
   <text x="161.5" y="104.75" freecad:editable="Document type4"><tspan x="161.5" y="104.75" fill="#000000" font-family="osifont" font-size="3.4722">.</tspan></text>
  </g>
 </g>
 <line x1="20" x2="200" y1="107" y2="107" stroke="#000" stroke-width=".35"/>
 <g fill="#000000" font-family="osifont">
  <g font-size="2.5">
   <text x="21.5" y="110.3">Legal owner</text>
   <text x="101.5" y="110.3">Title, Supplementary title</text>
   <text x="161.5" y="110.3">Document number</text>
  </g>
  <text x="21.5" y="121" font-size="6.9444" freecad:editable="Legal owner4"><tspan x="21.5" y="121" fill="#000000" font-family="osifont" font-size="6.9444">.</tspan></text>
  <text x="101.5" y="121" font-size="6.9444" freecad:editable="Title, Supplementary title4"><tspan x="101.5" y="121" fill="#000000" font-family="osifont" font-size="6.9444">.</tspan></text>
  <text x="161.5" y="115.75" font-size="3.4722" freecad:editable="Document number4"><tspan x="161.5" y="115.75" fill="#000000" font-family="osifont" font-size="3.4722">.</tspan></text>
 </g>
 <line x1="160" x2="200" y1="118" y2="118" stroke="#000" stroke-width=".35"/>
 <g fill="#000000" font-family="osifont">
  <text x="161.5" y="121.3" font-size="2.5">Rev.</text>
  <text x="173.5" y="121.3" font-size="2.5">Date of issue</text>
  <text x="161.5" y="126.75" font-size="3.4722" freecad:editable="Rev.4"><tspan x="161.5" y="126.75" fill="#000000" font-family="osifont" font-size="3.4722">.</tspan></text>
  <text x="173.5" y="126.75" font-size="3.4722" freecad:editable="Date of issue4"><tspan x="173.5" y="126.75" fill="#000000" font-family="osifont" font-size="3.4722">.</tspan></text>
 </g>
 <line x1="160" x2="200" y1="129" y2="129" stroke="#000" stroke-width=".35"/>
 <g fill="#000000" font-family="osifont">
  <text x="161.5" y="132.3" font-size="2.5">Lang.</text>
  <text x="173.5" y="132.3" font-size="2.5">Sheet</text>
  <text x="161.5" y="137.75" font-size="3.4722" freecad:editable="Lang.4"><tspan x="161.5" y="137.75" fill="#000000" font-family="osifont" font-size="3.4722">EN</tspan></text>
  <text x="173.5" y="137.75" font-size="3.4722" freecad:editable="Sheet4"><tspan x="173.5" y="137.75" fill="#000000" font-family="osifont" font-size="3.4722">.</tspan></text>
 </g>
 <g stroke="#000" stroke-width=".35">
  <line x1="30" x2="30" y1="10" y2="85"/>
  <line x1="45" x2="45" y1="10" y2="85"/>
  <line x1="55" x2="55" y1="10" y2="85"/>
  <line x1="125" x2="125" y1="10" y2="85"/>
  <line x1="165" x2="165" y1="10" y2="85"/>
 </g>
 <g fill="#000000" font-family="osifont" font-size="2.5" text-anchor="middle">
  <text x="25" y="12.9">1</text>
  <text x="37.5" y="12.9">2</text>
  <text x="50" y="12.9">3</text>
  <text x="90" y="12.9">4</text>
  <text x="145" y="12.9">5</text>
  <text x="182.5" y="12.9">6</text>
 </g>
 <line x1="20" x2="200" y1="14" y2="14" stroke="#000" stroke-width=".35"/>
 <g fill="#000000" font-family="osifont" font-size="2.5" text-anchor="middle">
  <text x="25" y="16.9">Pos.</text>
  <text x="37.5" y="16.9">Qty.</text>
  <text x="50" y="16.9">Unit</text>
  <text x="90" y="16.9">Titel</text>
  <text x="145" y="16.9">Doc. number</text>
  <text x="182.5" y="16.9">Comment</text>
 </g>
 <line x1="20" x2="200" y1="18" y2="18" stroke="#000" stroke-width=".7"/>
 <line x1="20" x2="200" y1="85" y2="85" stroke="#000" stroke-width=".7"/>
 <g fill="#000000" font-family="osifont" font-size="3.4722" text-anchor="middle">
  <text x="25" y="22.625" freecad:editable="Pos.4"><tspan x="25" y="22.625" fill="#000000" font-family="osifont" font-size="3.4722" text-anchor="middle">:0A</tspan></text>
  <text x="37.5" y="22.625" freecad:editable="Qty.4"><tspan x="37.5" y="22.625" fill="#000000" font-family="osifont" font-size="3.4722" text-anchor="middle">:0A</tspan></text>
  <text x="50" y="22.625" freecad:editable="Unit4"><tspan x="50" y="22.625" fill="#000000" font-family="osifont" font-size="3.4722" text-anchor="middle">:0A</tspan></text>
  <text x="90" y="22.625" freecad:editable="Titel4"><tspan x="90" y="22.625" fill="#000000" font-family="osifont" font-size="3.4722" text-anchor="middle">:0A</tspan></text>
  <text x="145" y="22.625" freecad:editable="Doc. number4"><tspan x="145" y="22.625" fill="#000000" font-family="osifont" font-size="3.4722" text-anchor="middle">:0A</tspan></text>
  <text x="182.5" y="22.625" freecad:editable="Comment4"><tspan x="182.5" y="22.625" fill="#000000" font-family="osifont" font-size="3.4722" text-anchor="middle">:0A</tspan></text>
 </g>
 <line x1="20" x2="200" y1="24.75" y2="24.75" stroke="#000" stroke-width=".35"/>
 <g fill="#000000" font-family="osifont" font-size="3.4722" text-anchor="middle">
  <text x="25" y="29.375" freecad:editable="Pos.4"><tspan x="25" y="29.375" fill="#000000" font-family="osifont" font-size="3.4722" text-anchor="middle">:1A</tspan></text>
  <text x="37.5" y="29.375" freecad:editable="Qty.5"><tspan x="37.5" y="29.375" fill="#000000" font-family="osifont" font-size="3.4722" text-anchor="middle">:1A</tspan></text>
  <text x="50" y="29.375" freecad:editable="Unit5"><tspan x="50" y="29.375" fill="#000000" font-family="osifont" font-size="3.4722" text-anchor="middle">:1A</tspan></text>
  <text x="90" y="29.375" freecad:editable="Titel5"><tspan x="90" y="29.375" fill="#000000" font-family="osifont" font-size="3.4722" text-anchor="middle">:1A</tspan></text>
  <text x="145" y="29.375" freecad:editable="Doc. number5"><tspan x="145" y="29.375" fill="#000000" font-family="osifont" font-size="3.4722" text-anchor="middle">:1A</tspan></text>
  <text x="182.5" y="29.375" freecad:editable="Comment5"><tspan x="182.5" y="29.375" fill="#000000" font-family="osifont" font-size="3.4722" text-anchor="middle">:1A</tspan></text>
 </g>
 <line x1="20" x2="200" y1="31.5" y2="31.5" stroke="#000" stroke-width=".35"/>
 <g fill="#000000" font-family="osifont" font-size="3.4722" text-anchor="middle">
  <text x="25" y="36.125" freecad:editable="Pos.4"><tspan x="25" y="36.125" fill="#000000" font-family="osifont" font-size="3.4722" text-anchor="middle">:2A</tspan></text>
  <text x="37.5" y="36.125" freecad:editable="Qty.6"><tspan x="37.5" y="36.125" fill="#000000" font-family="osifont" font-size="3.4722" text-anchor="middle">:2A</tspan></text>
  <text x="50" y="36.125" freecad:editable="Unit6"><tspan x="50" y="36.125" fill="#000000" font-family="osifont" font-size="3.4722" text-anchor="middle">:2A</tspan></text>
  <text x="90" y="36.125" freecad:editable="Titel6"><tspan x="90" y="36.125" fill="#000000" font-family="osifont" font-size="3.4722" text-anchor="middle">:2A</tspan></text>
  <text x="145" y="36.125" freecad:editable="Doc. number6"><tspan x="145" y="36.125" fill="#000000" font-family="osifont" font-size="3.4722" text-anchor="middle">:2A</tspan></text>
  <text x="182.5" y="36.125" freecad:editable="Comment6"><tspan x="182.5" y="36.125" fill="#000000" font-family="osifont" font-size="3.4722" text-anchor="middle">:2A</tspan></text>
 </g>
 <line x1="20" x2="200" y1="38.25" y2="38.25" stroke="#000" stroke-width=".35"/>
 <g fill="#000000" font-family="osifont" font-size="3.4722" text-anchor="middle">
  <text x="25" y="42.875" freecad:editable="Pos.4"><tspan x="25" y="42.875" fill="#000000" font-family="osifont" font-size="3.4722" text-anchor="middle">:3A</tspan></text>
  <text x="37.5" y="42.875" freecad:editable="Qty.7"><tspan x="37.5" y="42.875" fill="#000000" font-family="osifont" font-size="3.4722" text-anchor="middle">:3A</tspan></text>
  <text x="50" y="42.875" freecad:editable="Unit7"><tspan x="50" y="42.875" fill="#000000" font-family="osifont" font-size="3.4722" text-anchor="middle">:3A</tspan></text>
  <text x="90" y="42.875" freecad:editable="Titel7"><tspan x="90" y="42.875" fill="#000000" font-family="osifont" font-size="3.4722" text-anchor="middle">:3A</tspan></text>
  <text x="145" y="42.875" freecad:editable="Doc. number7"><tspan x="145" y="42.875" fill="#000000" font-family="osifont" font-size="3.4722" text-anchor="middle">:3A</tspan></text>
  <text x="182.5" y="42.875" freecad:editable="Comment7"><tspan x="182.5" y="42.875" fill="#000000" font-family="osifont" font-size="3.4722" text-anchor="middle">:3A</tspan></text>
 </g>
 <line x1="20" x2="200" y1="45" y2="45" stroke="#000" stroke-width=".35"/>
 <g fill="#000000" font-family="osifont" font-size="3.4722" text-anchor="middle">
  <text x="25" y="49.625" freecad:editable="Pos.4"><tspan x="25" y="49.625" fill="#000000" font-family="osifont" font-size="3.4722" text-anchor="middle">:4A</tspan></text>
  <text x="37.5" y="49.625" freecad:editable="Qty.8"><tspan x="37.5" y="49.625" fill="#000000" font-family="osifont" font-size="3.4722" text-anchor="middle">:4A</tspan></text>
  <text x="50" y="49.625" freecad:editable="Unit8"><tspan x="50" y="49.625" fill="#000000" font-family="osifont" font-size="3.4722" text-anchor="middle">:4A</tspan></text>
  <text x="90" y="49.625" freecad:editable="Titel8"><tspan x="90" y="49.625" fill="#000000" font-family="osifont" font-size="3.4722" text-anchor="middle">:4A</tspan></text>
  <text x="145" y="49.625" freecad:editable="Doc. number8"><tspan x="145" y="49.625" fill="#000000" font-family="osifont" font-size="3.4722" text-anchor="middle">:4A</tspan></text>
  <text x="182.5" y="49.625" freecad:editable="Comment8"><tspan x="182.5" y="49.625" fill="#000000" font-family="osifont" font-size="3.4722" text-anchor="middle">:4A</tspan></text>
 </g>
 <line x1="20" x2="200" y1="51.75" y2="51.75" stroke="#000" stroke-width=".35"/>
 <g fill="#000000" font-family="osifont" font-size="3.4722" text-anchor="middle">
  <text x="25" y="56.375" freecad:editable="Pos.4"><tspan x="25" y="56.375" fill="#000000" font-family="osifont" font-size="3.4722" text-anchor="middle">:5A</tspan></text>
  <text x="37.5" y="56.375" freecad:editable="Qty.9"><tspan x="37.5" y="56.375" fill="#000000" font-family="osifont" font-size="3.4722" text-anchor="middle">:5A</tspan></text>
  <text x="50" y="56.375" freecad:editable="Unit9"><tspan x="50" y="56.375" fill="#000000" font-family="osifont" font-size="3.4722" text-anchor="middle">:5A</tspan></text>
  <text x="90" y="56.375" freecad:editable="Titel9"><tspan x="90" y="56.375" fill="#000000" font-family="osifont" font-size="3.4722" text-anchor="middle">:5A</tspan></text>
  <text x="145" y="56.375" freecad:editable="Doc. number9"><tspan x="145" y="56.375" fill="#000000" font-family="osifont" font-size="3.4722" text-anchor="middle">:5A</tspan></text>
  <text x="182.5" y="56.375" freecad:editable="Comment9"><tspan x="182.5" y="56.375" fill="#000000" font-family="osifont" font-size="3.4722" text-anchor="middle">:5A</tspan></text>
 </g>
 <line x1="20" x2="200" y1="58.5" y2="58.5" stroke="#000" stroke-width=".35"/>
 <g fill="#000000" font-family="osifont" font-size="3.4722" text-anchor="middle">
  <text x="25" y="63.125" freecad:editable="Pos.4"><tspan x="25" y="63.125" fill="#000000" font-family="osifont" font-size="3.4722" text-anchor="middle">:6A</tspan></text>
  <text x="37.5" y="63.125" freecad:editable="Qty.10"><tspan x="37.5" y="63.125" fill="#000000" font-family="osifont" font-size="3.4722" text-anchor="middle">:6A</tspan></text>
  <text x="50" y="63.125" freecad:editable="Unit10"><tspan x="50" y="63.125" fill="#000000" font-family="osifont" font-size="3.4722" text-anchor="middle">:6A</tspan></text>
  <text x="90" y="63.125" freecad:editable="Titel10"><tspan x="90" y="63.125" fill="#000000" font-family="osifont" font-size="3.4722" text-anchor="middle">:6A</tspan></text>
  <text x="145" y="63.125" freecad:editable="Doc. number10"><tspan x="145" y="63.125" fill="#000000" font-family="osifont" font-size="3.4722" text-anchor="middle">:6A</tspan></text>
  <text x="182.5" y="63.125" freecad:editable="Comment10"><tspan x="182.5" y="63.125" fill="#000000" font-family="osifont" font-size="3.4722" text-anchor="middle">:6A</tspan></text>
 </g>
 <line x1="20" x2="200" y1="65.25" y2="65.25" stroke="#000" stroke-width=".35"/>
 <g fill="#000000" font-family="osifont" font-size="3.4722" text-anchor="middle">
  <text x="25" y="69.875" freecad:editable="Pos.4"><tspan x="25" y="69.875" fill="#000000" font-family="osifont" font-size="3.4722" text-anchor="middle">:7A</tspan></text>
  <text x="37.5" y="69.875" freecad:editable="Qty.11"><tspan x="37.5" y="69.875" fill="#000000" font-family="osifont" font-size="3.4722" text-anchor="middle">:7A</tspan></text>
  <text x="50" y="69.875" freecad:editable="Unit11"><tspan x="50" y="69.875" fill="#000000" font-family="osifont" font-size="3.4722" text-anchor="middle">:7A</tspan></text>
  <text x="90" y="69.875" freecad:editable="Titel11"><tspan x="90" y="69.875" fill="#000000" font-family="osifont" font-size="3.4722" text-anchor="middle">:7A</tspan></text>
  <text x="145" y="69.875" freecad:editable="Doc. number11"><tspan x="145" y="69.875" fill="#000000" font-family="osifont" font-size="3.4722" text-anchor="middle">:7A</tspan></text>
  <text x="182.5" y="69.875" freecad:editable="Comment11"><tspan x="182.5" y="69.875" fill="#000000" font-family="osifont" font-size="3.4722" text-anchor="middle">:7A</tspan></text>
 </g>
 <line x1="20" x2="200" y1="72" y2="72" stroke="#000" stroke-width=".35"/>
 <g fill="#000000" font-family="osifont" font-size="3.4722" text-anchor="middle">
  <text x="25" y="76.625" freecad:editable="Pos.4"><tspan x="25" y="76.625" fill="#000000" font-family="osifont" font-size="3.4722" text-anchor="middle">:8A</tspan></text>
  <text x="37.5" y="76.625" freecad:editable="Qty.12"><tspan x="37.5" y="76.625" fill="#000000" font-family="osifont" font-size="3.4722" text-anchor="middle">:8A</tspan></text>
  <text x="50" y="76.625" freecad:editable="Unit12"><tspan x="50" y="76.625" fill="#000000" font-family="osifont" font-size="3.4722" text-anchor="middle">:8A</tspan></text>
  <text x="90" y="76.625" freecad:editable="Titel12"><tspan x="90" y="76.625" fill="#000000" font-family="osifont" font-size="3.4722" text-anchor="middle">:8A</tspan></text>
  <text x="145" y="76.625" freecad:editable="Doc. number12"><tspan x="145" y="76.625" fill="#000000" font-family="osifont" font-size="3.4722" text-anchor="middle">:8A</tspan></text>
  <text x="182.5" y="76.625" freecad:editable="Comment12"><tspan x="182.5" y="76.625" fill="#000000" font-family="osifont" font-size="3.4722" text-anchor="middle">:8A</tspan></text>
 </g>
 <line x1="20" x2="200" y1="78.75" y2="78.75" stroke="#000" stroke-width=".35"/>
</svg>
