<?xml version="1.0" encoding="UTF-8"?>
<svg width="210mm" height="100mm" version="1.1" viewBox="0 0 210 100" xmlns="http://www.w3.org/2000/svg" xmlns:cc="http://creativecommons.org/ns#" xmlns:dc="http://purl.org/dc/elements/1.1/" xmlns:freecad="http://www.freecadweb.org/wiki/index.php?title=Svg_Namespace" xmlns:rdf="http://www.w3.org/1999/02/22-rdf-syntax-ns#">
 <g stroke-width="0">
  <polygon points="0 0 10 0 10 5 5 5 5 10 0 10"/>
  <polygon points="210 0 200 0 200 5 205 5 205 10 210 10"/>
  <polygon points="210 100 200 100 200 95 205 95 205 90 210 90"/>
  <polygon points="0 100 10 100 10 95 5 95 5 90 0 90"/>
 </g>
 <g stroke="#000">
  <rect x="15" y="5" width="190" height="90" fill="none" stroke-width=".35"/>
  <g stroke-width=".7">
   <rect x="20" y="10" width="180" height="80" fill="none"/>
   <line x1="105" x2="105" y1="5" y2="20"/>
   <line x1="105" x2="105" y1="95" y2="90"/>
   <line x1="15" x2="20" y1="50" y2="50"/>
   <line x1="205" x2="200" y1="50" y2="50"/>
  </g>
  <line x1="55" x2="55" y1="5" y2="10" stroke-width=".35"/>
  <line x1="55" x2="55" y1="95" y2="90" stroke-width=".35"/>
 </g>
 <g fill="#000000" font-family="osifont" font-size="4.8611" text-anchor="middle">
  <text x="30" y="9.25">1</text>
  <text x="80" y="9.25">2</text>
  <text x="130" y="9.25">3</text>
 </g>
 <line x1="155" x2="155" y1="5" y2="10" stroke="#000" stroke-width=".35"/>
 <text x="180" y="9.25" fill="#000000" font-family="osifont" font-size="4.8611" text-anchor="middle">4</text>
 <line x1="155" x2="155" y1="95" y2="90" stroke="#000" stroke-width=".35"/>
 <g fill="#000000" font-family="osifont" font-size="4.8611" text-anchor="middle">
  <text x="182.5" y="94.25">210x100</text>
  <text x="17.5" y="26.75">A</text>
  <text x="17.5" y="76.75">B</text>
 </g>
 <g stroke="#000">
  <rect x="20" y="35" width="180" height="55" fill="none" stroke-width=".7"/>
  <g stroke-width=".35">
   <line x1="100" x2="100" y1="35" y2="90"/>
   <line x1="160" x2="160" y1="35" y2="90"/>
   <line x1="172" x2="172" y1="68" y2="90"/>
  </g>
 </g>
 <g fill="#000000" font-family="osifont">
  <g font-size="2.5">
   <text x="21.5" y="38.3">Created by</text>
   <text x="101.5" y="38.3">Valid from to</text>
   <text x="161.5" y="38.3">Document state</text>
  </g>
  <g font-size="3.4722">
   <text x="21.5" y="43.75" freecad:editable="Created by4"><tspan x="21.5" y="43.75" fill="#000000" font-family="osifont" font-size="3.4722">.</tspan></text>
   <text x="101.5" y="43.75" freecad:editable="Valid from to4"><tspan x="101.5" y="43.75" fill="#000000" font-family="osifont" font-size="3.4722">.</tspan></text>
   <text x="161.5" y="43.75" freecad:editable="Document state4"><tspan x="161.5" y="43.75" fill="#000000" font-family="osifont" font-size="3.4722">.</tspan></text>
  </g>
 </g>
 <line x1="20" x2="200" y1="46" y2="46" stroke="#000" stroke-width=".35"/>
 <g fill="#000000" font-family="osifont">
  <g font-size="2.5">
   <text x="21.5" y="49.3">Approved by</text>
   <text x="101.5" y="49.3">Project</text>
   <text x="161.5" y="49.3">Document type</text>
  </g>
  <g font-size="3.4722">
   <text x="21.5" y="54.75" freecad:editable="Approved by4"><tspan x="21.5" y="54.75" fill="#000000" font-family="osifont" font-size="3.4722">.</tspan></text>
   <text x="101.5" y="54.75" freecad:editable="Project4"><tspan x="101.5" y="54.75" fill="#000000" font-family="osifont" font-size="3.4722"/></text>
   <text x="161.5" y="54.75" freecad:editable="Document type4"><tspan x="161.5" y="54.75" fill="#000000" font-family="osifont" font-size="3.4722">.</tspan></text>
  </g>
 </g>
 <line x1="20" x2="200" y1="57" y2="57" stroke="#000" stroke-width=".35"/>
 <g fill="#000000" font-family="osifont">
  <g font-size="2.5">
   <text x="21.5" y="60.3">Legal owner</text>
   <text x="101.5" y="60.3">Title, Supplementary title</text>
   <text x="161.5" y="60.3">Document number</text>
  </g>
  <text x="21.5" y="71" font-size="6.9444" freecad:editable="Legal owner4"><tspan x="21.5" y="71" fill="#000000" font-family="osifont" font-size="6.9444">.</tspan></text>
  <text x="101.5" y="71" font-size="6.9444" freecad:editable="Title, Supplementary title4"><tspan x="101.5" y="71" fill="#000000" font-family="osifont" font-size="6.9444">.</tspan></text>
  <text x="161.5" y="65.75" font-size="3.4722" freecad:editable="Document number4"><tspan x="161.5" y="65.75" fill="#000000" font-family="osifont" font-size="3.4722">.</tspan></text>
 </g>
 <line x1="160" x2="200" y1="68" y2="68" stroke="#000" stroke-width=".35"/>
 <g fill="#000000" font-family="osifont">
  <text x="161.5" y="71.3" font-size="2.5">Rev.</text>
  <text x="173.5" y="71.3" font-size="2.5">Date of issue</text>
  <text x="161.5" y="76.75" font-size="3.4722" freecad:editable="Rev.4"><tspan x="161.5" y="76.75" fill="#000000" font-family="osifont" font-size="3.4722">.</tspan></text>
  <text x="173.5" y="76.75" font-size="3.4722" freecad:editable="Date of issue4"><tspan x="173.5" y="76.75" fill="#000000" font-family="osifont" font-size="3.4722">.</tspan></text>
 </g>
 <line x1="160" x2="200" y1="79" y2="79" stroke="#000" stroke-width=".35"/>
 <g fill="#000000" font-family="osifont">
  <text x="161.5" y="82.3" font-size="2.5">Lang.</text>
  <text x="173.5" y="82.3" font-size="2.5">Sheet</text>
  <text x="161.5" y="87.75" font-size="3.4722" freecad:editable="Lang.4"><tspan x="161.5" y="87.75" fill="#000000" font-family="osifont" font-size="3.4722">EN</tspan></text>
  <text x="173.5" y="87.75" font-size="3.4722" freecad:editable="Sheet4"><tspan x="173.5" y="87.75" fill="#000000" font-family="osifont" font-size="3.4722">.</tspan></text>
 </g>
 <g transform="translate(74.997 69.812) scale(.24003)" width="100mm" height="80mm" version="1.1" viewBox="0 0 100 79.999999">
  <metadata>
   <rdf:RDF>
    <cc:Work rdf:about="">
     <dc:format>image/svg+xml</dc:format>
     <dc:type rdf:resource="http://purl.org/dc/dcmitype/StillImage"/>
     <dc:title/>
    </cc:Work>
   </rdf:RDF>
  </metadata>
  <g transform="matrix(1.2162 0 0 1.2163 -19.193 -18.338)" stroke="#000">
   <path d="m45.561 16.685c-4.1449 0.71038-8.1598 2.0323-12.106 3.4868-0.09601 0.03539-0.192 0.07087-0.28729 0.10817-0.56798 0.22237-1.1083 0.50862-1.659 0.7709-0.99018 0.47159-2.0332 0.877-2.8726 1.5828-1.2082 1.0159-1.8705 2.5714-2.0711 4.1372-0.0056 0.04348-0.01083 0.08729-0.0083 0.13106 0.0015 0.02658 0.0059 0.05291 8e-3 0.07945 0.0032 0.04139 6.78e-4 0.0836-0.01162 0.12326-0.0123 0.03965-0.03476 0.0767-0.06698 0.10288-0.04257 0.03459-0.09802 0.04777-0.15088 0.06243-0.57548 0.15966-1.0285 0.58888-1.503 0.95158-0.28812 0.22025-0.59156 0.41993-0.90226 0.60696-0.35759 0.21526-0.72508 0.41399-1.0788 0.63547-1.1214 0.70203-2.0927 1.6261-2.9354 2.646-1.4071 1.703-2.4786 3.7126-2.9102 5.8792-0.58787 2.9514 0.0368 6.0373 1.1921 8.8161 0.02347 0.05647 0.04717 0.11285 0.07247 0.16852 0.11007 0.24223 0.24995 0.46981 0.39889 0.69028 0.03045 0.04508 0.06166 0.0903 0.10157 0.12727 0.06632 0.06141 0.15612 0.0972 0.2465 0.09674 0.09038-4.6e-4 0.18032-0.03753 0.24373-0.10194 0.04088-0.04153 0.07053-0.09349 0.08886-0.14881 0.03346-0.10096 0.02951-0.20993 0.02623-0.31625-0.0088-0.28522-0.01014-0.57065-0.02097-0.85579-0.0065-0.17034-0.01627-0.3418 0.0076-0.51058 0.02785-0.19692 0.10063-0.38418 0.16805-0.57128 0.23122-0.64165 0.40478-1.3025 0.56712-1.9649 0.03073-0.12537 0.06123-0.25213 0.06298-0.3812 4.03e-4 -0.02977-7.06e-4 -0.05983 0.0051-0.08904 0.0018-0.0092 0.0044-0.01838 0.0096-0.02614 0.0042-0.0062 0.01-0.01136 0.01685-0.01436 0.0069-3e-3 0.01472-0.0038 0.02193-0.0018 0.0071 0.0019 0.01325 0.0064 0.01925 0.01064 0.22284 0.15924 0.48437 0.25393 0.74372 0.34199 2.2036 0.74822 4.6383 1.1478 6.8445 0.40738 0.02189-0.0073 0.04433-0.01489 0.0674-0.01413 0.0086 2.84e-4 0.01728 0.0018 0.02503 0.0055 7e-3 0.0034 0.01303 0.0085 0.01786 0.01448 0.0048 6e-3 0.0085 0.01297 0.0111 0.02024 0.0052 0.01454 0.0064 0.0302 7e-3 0.04565 0.0051 0.1499-0.04835 0.29662-0.12243 0.42705-0.07407 0.13043-0.16861 0.24784-0.25486 0.37055-0.35953 0.51149-0.57453 1.1188-0.6491 1.7395-0.07457 0.62075-0.01121 1.2545 0.15341 1.8577 0.32924 1.2063 1.0506 2.2709 1.8724 3.2134 0.82172 0.9425 1.7519 1.7847 2.5942 2.7088 0.84234 0.92412 1.6072 1.9508 2.0156 3.1326 0.41908 1.2128 0.4415 2.5198 0.5624 3.7972 0.06501 0.68691 0.15967 1.3719 0.18079 2.0615 0.02113 0.68965-0.0334 1.39-0.25886 2.0421-0.0083 0.02396-0.0168 0.04787-0.02368 0.07227-0.0025 9e-3 -0.0049 0.01823-0.0049 0.0276-2.7e-5 0.01035 0.0028 0.02065 0.0079 0.02966 0.0051 9e-3 0.01233 0.01676 0.02083 0.02265 0.01701 0.01178 0.03865 0.01591 0.0592 0.01356 0.03253-0.0037 0.06116-0.02235 0.08855-0.04029 1.315-0.86114 2.8635-1.2994 4.4128-1.5649 4.0006-0.68549 8.0957-0.29242 12.144 0 15.456 1.1165 31.379 0.66612 45.856-4.8604 0.09624-0.03674 0.19467-0.07505 0.27175-0.14339 0.04036-0.03578 0.07406-0.07948 0.09585-0.12882 0.02179-0.04934 0.03141-0.10439 0.02484-0.15792-0.0059-0.04801-0.02446-0.09375-0.04836-0.1358-0.0239-0.04205-0.05311-0.0808-0.08198-0.1196-0.73965-0.99428-1.3059-2.1073-1.7924-3.2471-1.245-2.9164-1.9824-6.0193-2.9762-9.0305-2.8176-8.5374-7.8614-16.484-15.057-21.874-4.2762-3.2032-9.242-5.4567-14.437-6.7053-5.565-1.3376-11.403-1.528-17.044-0.56115z" fill="none" stroke-width="2"/>
   <path d="m20.203 42.909c0.01142-0.09915 0.04222-0.19603 0.09016-0.28357 0.06284-0.11476 0.15451-0.21252 0.2602-0.28964 0.10569-0.07712 0.22522-0.13406 0.34922-0.1758 0.21377-0.07197 0.44071-0.09926 0.66626-0.10035 0.28455-0.0014 0.56847 0.03823 0.8529 0.02963 0.14428-0.0044 0.28809-0.02114 0.4299-0.04806 0.2395-0.04547 0.47657-0.12144 0.68002-0.25572 0.18393-0.12139 0.33448-0.2862 0.47924-0.45237 0.06651-0.07635 0.13246-0.15359 0.20734-0.22173 0.25107-0.22846 0.58975-0.34146 0.92711-0.37914 0.29823-0.03331 0.59954-0.01247 0.89957-0.01805 1.313-0.02443 2.5625-0.55178 3.731-1.151 0.02651-0.0136 0.05305-0.02726 0.07826-0.04314 0.04594-0.02893 0.08697-0.06488 0.12821-0.1002 0.07515-0.06436 0.15167-0.12714 0.23054-0.18687 0.64688-0.48992 1.4355-0.76212 2.2319-0.91769 0.88955-0.17376 1.8008-0.21083 2.707-0.19422 0.05082 9.31e-4 0.10184 2e-3 0.15199 0.01035 0.08535 0.01413 0.16573 0.04861 0.24664 0.07923 0.3509 0.13279 0.72381 0.19616 1.0953 0.24886 1.1268 0.15984 2.2811 0.22735 3.398 0.0092 0.03331-0.0065 0.06657-0.01326 0.09978-0.02027" fill="none" stroke-width="2"/>
   <g>
    <ellipse cx="30.011" cy="30.351" rx="1.8519" ry="1.3084" stroke-width=".052549"/>
    <ellipse cx="52.579" cy="26.692" rx="6.0435" ry="4.7995" stroke-width=".047625"/>
    <ellipse cx="51.559" cy="26.717" rx=".029351" ry=".10515" stroke-width=".047625"/>
   </g>
  </g>
  <g transform="matrix(1.6517 0 0 1.6517 -3.9556 -46.4)" style="shape-inside:url(#rect1087);white-space:pre" aria-label="wieserfalke">
   <path d="m7.1077 71.404q0.098185-0.37207 0.37207-0.37207 0.35657 0 0.35657 0.34106 0 0.09302-0.025838 0.19637 0 0-1.111 4.563-0.08785 0.3669-0.3824 0.3669-0.28939 0-0.41858-0.34106 0 0-0.78548-2.1136l-0.78031 2.1187q-0.11886 0.3359-0.37207 0.3359-0.31006 0-0.38757-0.32039 0 0-1.1317-4.4597-0.046509-0.18087-0.046509-0.31006 0-0.35657 0.41341-0.35657 0.24805 0 0.32039 0.28939 0 0 0.88883 3.483 0 0 0.74414-1.9275 0.10852-0.28422 0.36173-0.28422 0.27388 0 0.39274 0.31523 0 0 0.69763 1.8758z"/>
   <path d="m10.751 71.435v4.6095q0 0.42891-0.37207 0.42891-0.38757 0-0.38757-0.41858v-4.6147q0-0.42374 0.3824-0.42374 0.37724 0 0.37724 0.41858zm-0.74414-2.4029q0-0.36173 0.35657-0.36173 0.3824 0 0.3824 0.38757v0.3359q0 0.40308-0.39274 0.40308-0.34623 0-0.34623-0.37724z"/>
   <path d="m13.986 73.378h2.3719q0-0.80615-0.25838-1.1575-0.32556-0.44442-0.89917-0.44442-0.54777 0-0.95601 0.45475-0.25838 0.28939-0.25838 1.1472zm-0.77514-0.48576q0-0.81648 0.67696-1.3849 0.58911-0.49609 1.2971-0.49609 0.84232 0 1.4314 0.64595 0.48059 0.5271 0.48059 1.1007v0.98185q0 0.37207-0.34623 0.37207h-2.775v0.68213q0 0.95084 0.80615 0.95084h1.8758q0.45475 0 0.45475 0.3824 0 0.37207-0.44958 0.37207h-1.9017q-0.62528 0-1.1007-0.50126-0.44958-0.47542-0.44958-1.1317 0 0 0-1.974z"/>
   <path d="m22.776 71.404q0.24805 0.13436 0.24805 0.3359 0 0.40308-0.35657 0.40308-0.09302 0-0.29456-0.07751-0.78548-0.30489-1.3591-0.30489-0.72864 0-0.72864 0.63562 0 0.3669 0.38757 0.54777l1.9069 0.894q0.84749 0.38757 0.84749 1.2506 0 0.6873-0.61495 1.1575-0.30489 0.23254-0.77514 0.23254-0.95601 0-2.1704-0.39274-0.3359-0.10852-0.3359-0.36173 0-0.3824 0.34106-0.3824 0.20154 0 0.41341 0.08268 0.77514 0.29972 1.6433 0.29972 0.30489 0 0.46509-0.10335 0.27388-0.1757 0.27388-0.53743 0-0.3514-0.48059-0.57877l-1.8293-0.87333q-0.82682-0.39274-0.82682-1.2971 0-0.52193 0.3669-0.9095 0.39791-0.41858 1.0129-0.41858 1.1214 0 1.8655 0.39791z"/>
   <path d="m26.404 73.378h2.3719q0-0.80615-0.25838-1.1575-0.32556-0.44442-0.89917-0.44442-0.54777 0-0.95601 0.45475-0.25838 0.28939-0.25838 1.1472zm-0.77514-0.48576q0-0.81648 0.67696-1.3849 0.58911-0.49609 1.2971-0.49609 0.84232 0 1.4314 0.64595 0.48059 0.5271 0.48059 1.1007v0.98185q0 0.37207-0.34623 0.37207h-2.775v0.68213q0 0.95084 0.80615 0.95084h1.8758q0.45475 0 0.45475 0.3824 0 0.37207-0.44958 0.37207h-1.9017q-0.62528 0-1.1007-0.50126-0.44958-0.47542-0.44958-1.1317 0 0 0-1.974z"/>
   <path d="m31.814 71.44q0-0.42374 0.43925-0.42374 0 0 2.2479 0 0.43408 0 0.43408 0.35657 0 0 0 0.75964 0 0.42891-0.34106 0.42891-0.41341 0-0.41341-0.40308 0 0 0-0.3824h-1.602v4.2995q0 0.40824-0.39791 0.40824-0.3669 0-0.3669-0.42375 0 0 0-4.6199z"/>
   <path d="m40.01 68.655q0.39274 0 0.39274 0.37724 0 0.38757-0.42374 0.38757h-0.22738q-0.3514 0-0.61495 0.21187-0.29456 0.23771-0.29456 0.63045v0.74931h1.1317q0.43408 0 0.43408 0.3824 0 0.36173-0.43925 0.36173h-1.1317v4.3305q0 0.39274-0.39791 0.39274-0.3514 0-0.3514-0.42891v-4.2943h-0.41858q-0.35657 0-0.35657-0.37724 0-0.3669 0.37724-0.3669h0.39791v-0.78548q0-0.64595 0.42891-1.0594 0.53226-0.5116 1.1162-0.5116z"/>
   <path d="m43.974 74.117q-0.42891 0-0.64595 0.25838-0.21187 0.25321-0.21187 0.56327 0 0.34106 0.24288 0.56327 0.24805 0.21704 0.5426 0.21704h1.5813v-1.602zm-0.82682-2.3461q-0.38757 0-0.38757-0.3824 0-0.37207 0.38757-0.37207h1.6071q0.66662 0 1.0852 0.50126 0.41858 0.49609 0.41858 1.0232v3.4726q0 0.22221-0.11886 0.35657-0.11886 0.12919-0.32556 0.12919h-1.9637q-0.58394 0-1.0439-0.47542-0.45475-0.47542-0.45475-1.0749 0-0.66662 0.43408-1.1214 0.43925-0.45992 1.0852-0.45992h1.6123v-0.95084q0-0.19637-0.23254-0.41858-0.23254-0.22738-0.51676-0.22738z"/>
   <path d="m48.934 69.099q0-0.40824 0.41341-0.40824 0.34623 0 0.34623 0.42374 0 0 0 6.0461 0 0.57361 0.3514 0.57361 0.42891 0 0.42891 0.38757 0 0.37724-0.40308 0.37724-0.47025 0-0.82165-0.3669-0.31522-0.33073-0.31522-0.84749 0 0 0-6.1856z"/>
   <path d="m52.924 69.115q0-0.41858 0.3669-0.41858 0.37724 0 0.37724 0.41858v3.9119l2.4805-1.8707q0.16536-0.10335 0.32039-0.10335 0.3669 0 0.3669 0.36173 0 0.1757-0.1757 0.31006l-1.4986 1.1317 1.602 3.0644q0.06201 0.11369 0.06201 0.21187 0 0.3669-0.40307 0.3669-0.19637 0-0.30489-0.2067l-1.5606-2.9869-0.86299 0.67179v2.1136q0 0.39274-0.3824 0.39274-0.38757 0-0.38757-0.38757z"/>
   <path d="m59.812 73.378h2.3719q0-0.80615-0.25838-1.1575-0.32556-0.44442-0.89917-0.44442-0.54777 0-0.95601 0.45475-0.25838 0.28939-0.25838 1.1472zm-0.77514-0.48576q0-0.81648 0.67696-1.3849 0.58911-0.49609 1.2971-0.49609 0.84232 0 1.4314 0.64595 0.48059 0.5271 0.48059 1.1007v0.98185q0 0.37207-0.34623 0.37207h-2.775v0.68213q0 0.95084 0.80615 0.95084h1.8758q0.45475 0 0.45475 0.3824 0 0.37207-0.44958 0.37207h-1.9017q-0.62528 0-1.1007-0.50126-0.44958-0.47542-0.44958-1.1317 0 0 0-1.974z"/>
  </g>
 </g>
</svg>
