<?xml version="1.0" encoding="UTF-8"?>
<svg width="210mm" height="130mm" version="1.1" viewBox="0 0 210 130" xmlns="http://www.w3.org/2000/svg" xmlns:cc="http://creativecommons.org/ns#" xmlns:dc="http://purl.org/dc/elements/1.1/" xmlns:freecad="http://www.freecadweb.org/wiki/index.php?title=Svg_Namespace" xmlns:rdf="http://www.w3.org/1999/02/22-rdf-syntax-ns#">
 <metadata>
  <rdf:RDF>
   <cc:Work rdf:about="">
    <dc:format>image/svg+xml</dc:format>
    <dc:type rdf:resource="http://purl.org/dc/dcmitype/StillImage"/>
    <dc:title/>
   </cc:Work>
  </rdf:RDF>
 </metadata>
 <g stroke-width="0">
  <polygon points="0 0 10 0 10 5 5 5 5 10 0 10"/>
  <polygon points="210 0 200 0 200 5 205 5 205 10 210 10"/>
  <polygon points="210 130 200 130 200 125 205 125 205 120 210 120"/>
  <polygon points="0 130 10 130 10 125 5 125 5 120 0 120"/>
 </g>
 <g stroke="#000">
  <rect x="15" y="5" width="190" height="120" fill="none" stroke-width=".35"/>
  <g stroke-width=".7">
   <rect x="20" y="10" width="180" height="110" fill="none"/>
   <line x1="105" x2="105" y1="5" y2="20"/>
   <line x1="105" x2="105" y1="125" y2="120"/>
   <line x1="15" x2="20" y1="65" y2="65"/>
   <line x1="205" x2="200" y1="65" y2="65"/>
  </g>
  <line x1="55" x2="55" y1="5" y2="10" stroke-width=".35"/>
  <line x1="55" x2="55" y1="125" y2="120" stroke-width=".35"/>
 </g>
 <g fill="#000000" font-family="osifont" font-size="4.8611" text-anchor="middle">
  <text x="30" y="9.25">1</text>
  <text x="80" y="9.25">2</text>
  <text x="130" y="9.25">3</text>
 </g>
 <line x1="155" x2="155" y1="5" y2="10" stroke="#000" stroke-width=".35"/>
 <text x="180" y="9.25" fill="#000000" font-family="osifont" font-size="4.8611" text-anchor="middle">4</text>
 <line x1="155" x2="155" y1="125" y2="120" stroke="#000" stroke-width=".35"/>
 <text x="182.5" y="124.25" fill="#000000" font-family="osifont" font-size="4.8611" text-anchor="middle">210x130</text>
 <line x1="15" x2="20" y1="15" y2="15" stroke="#000" stroke-width=".35"/>
 <line x1="205" x2="200" y1="15" y2="15" stroke="#000" stroke-width=".35"/>
 <g fill="#000000" font-family="osifont" font-size="4.8611" text-anchor="middle">
  <text x="17.5" y="14.25">A</text>
  <text x="17.5" y="41.75">B</text>
  <text x="17.5" y="91.75">C</text>
 </g>
 <line x1="15" x2="20" y1="115" y2="115" stroke="#000" stroke-width=".35"/>
 <text x="17.5" y="119.25" fill="#000000" font-family="osifont" font-size="4.8611" text-anchor="middle">D</text>
 <g stroke="#000">
  <line x1="205" x2="200" y1="115" y2="115" stroke-width=".35"/>
  <rect x="20" y="65" width="180" height="55" fill="none" stroke-width=".7"/>
  <g stroke-width=".35">
   <line x1="100" x2="100" y1="65" y2="120"/>
   <line x1="160" x2="160" y1="65" y2="120"/>
   <line x1="172" x2="172" y1="98" y2="120"/>
  </g>
 </g>
 <g fill="#000000" font-family="osifont">
  <g font-size="2.5">
   <text x="21.5" y="68.3">Created by</text>
   <text x="101.5" y="68.3">Valid from to</text>
   <text x="161.5" y="68.3">Document state</text>
  </g>
  <g font-size="3.4722">
   <text x="21.5" y="73.75" freecad:editable="Created by4"><tspan x="21.5" y="73.75" fill="#000000" font-family="osifont" font-size="3.4722">.</tspan></text>
   <text x="101.5" y="73.75" freecad:editable="Valid from to4"><tspan x="101.5" y="73.75" fill="#000000" font-family="osifont" font-size="3.4722">.</tspan></text>
   <text x="161.5" y="73.75" freecad:editable="Document state4"><tspan x="161.5" y="73.75" fill="#000000" font-family="osifont" font-size="3.4722">.</tspan></text>
  </g>
 </g>
 <line x1="20" x2="200" y1="76" y2="76" stroke="#000" stroke-width=".35"/>
 <g fill="#000000" font-family="osifont">
  <g font-size="2.5">
   <text x="21.5" y="79.3">Approved by</text>
   <text x="101.5" y="79.3">Project</text>
   <text x="161.5" y="79.3">Document type</text>
  </g>
  <g font-size="3.4722">
   <text x="21.5" y="84.75" freecad:editable="Approved by4"><tspan x="21.5" y="84.75" fill="#000000" font-family="osifont" font-size="3.4722">.</tspan></text>
   <text x="101.5" y="84.75" freecad:editable="Project4"><tspan x="101.5" y="84.75" fill="#000000" font-family="osifont" font-size="3.4722"/></text>
   <text x="161.5" y="84.75" freecad:editable="Document type4"><tspan x="161.5" y="84.75" fill="#000000" font-family="osifont" font-size="3.4722">.</tspan></text>
  </g>
 </g>
 <line x1="20" x2="200" y1="87" y2="87" stroke="#000" stroke-width=".35"/>
 <g fill="#000000" font-family="osifont">
  <g font-size="2.5">
   <text x="21.5" y="90.3">Legal owner</text>
   <text x="101.5" y="90.3">Title, Supplementary title</text>
   <text x="161.5" y="90.3">Document number</text>
  </g>
  <text x="21.5" y="101" font-size="6.9444" freecad:editable="Legal owner4"><tspan x="21.5" y="101" fill="#000000" font-family="osifont" font-size="6.9444">.</tspan></text>
  <text x="101.5" y="101" font-size="6.9444" freecad:editable="Title, Supplementary title4"><tspan x="101.5" y="101" fill="#000000" font-family="osifont" font-size="6.9444">.</tspan></text>
  <text x="161.5" y="95.75" font-size="3.4722" freecad:editable="Document number4"><tspan x="161.5" y="95.75" fill="#000000" font-family="osifont" font-size="3.4722">.</tspan></text>
 </g>
 <line x1="160" x2="200" y1="98" y2="98" stroke="#000" stroke-width=".35"/>
 <g fill="#000000" font-family="osifont">
  <text x="161.5" y="101.3" font-size="2.5">Rev.</text>
  <text x="173.5" y="101.3" font-size="2.5">Date of issue</text>
  <text x="161.5" y="106.75" font-size="3.4722" freecad:editable="Rev.4"><tspan x="161.5" y="106.75" fill="#000000" font-family="osifont" font-size="3.4722">.</tspan></text>
  <text x="173.5" y="106.75" font-size="3.4722" freecad:editable="Date of issue4"><tspan x="173.5" y="106.75" fill="#000000" font-family="osifont" font-size="3.4722">.</tspan></text>
 </g>
 <line x1="160" x2="200" y1="109" y2="109" stroke="#000" stroke-width=".35"/>
 <g fill="#000000" font-family="osifont">
  <text x="161.5" y="112.3" font-size="2.5">Lang.</text>
  <text x="173.5" y="112.3" font-size="2.5">Sheet</text>
  <text x="161.5" y="117.75" font-size="3.4722" freecad:editable="Lang.4"><tspan x="161.5" y="117.75" fill="#000000" font-family="osifont" font-size="3.4722">EN</tspan></text>
  <text x="173.5" y="117.75" font-size="3.4722" freecad:editable="Sheet4"><tspan x="173.5" y="117.75" fill="#000000" font-family="osifont" font-size="3.4722">.</tspan></text>
 </g>
 <g stroke="#000">
  <rect x="20" y="23.25" width="180" height="41.75" fill="none" stroke-width=".7"/>
  <g stroke-width=".35">
   <line x1="30" x2="30" y1="23.25" y2="65"/>
   <line x1="45" x2="45" y1="23.25" y2="65"/>
   <line x1="55" x2="55" y1="23.25" y2="65"/>
   <line x1="125" x2="125" y1="23.25" y2="65"/>
  </g>
 </g>
 <g fill="#000000" font-family="osifont" font-size="3.4722" text-anchor="middle">
  <text x="25" y="28.375" freecad:editable="Pos.4"><tspan x="25" y="28.375" fill="#000000" font-family="osifont" font-size="3.4722" text-anchor="middle">.1A</tspan></text>
  <text x="37.5" y="28.375" freecad:editable="Qty.5"><tspan x="37.5" y="28.375" fill="#000000" font-family="osifont" font-size="3.4722" text-anchor="middle">.1A</tspan></text>
  <text x="50" y="28.375" freecad:editable="Unit5"><tspan x="50" y="28.375" fill="#000000" font-family="osifont" font-size="3.4722" text-anchor="middle">.1A</tspan></text>
  <text x="90" y="28.375" freecad:editable="Titel5"><tspan x="90" y="28.375" fill="#000000" font-family="osifont" font-size="3.4722" text-anchor="middle">.1A</tspan></text>
  <text x="162.5" y="28.375" freecad:editable="Doc. number5"><tspan x="162.5" y="28.375" fill="#000000" font-family="osifont" font-size="3.4722" text-anchor="middle">.1A</tspan></text>
 </g>
 <line x1="20" x2="200" y1="30" y2="30" stroke="#000" stroke-width=".35"/>
 <g fill="#000000" font-family="osifont" font-size="3.4722" text-anchor="middle">
  <text x="25" y="35.125" freecad:editable="Pos.4"><tspan x="25" y="35.125" fill="#000000" font-family="osifont" font-size="3.4722" text-anchor="middle">.2A</tspan></text>
  <text x="37.5" y="35.125" freecad:editable="Qty.6"><tspan x="37.5" y="35.125" fill="#000000" font-family="osifont" font-size="3.4722" text-anchor="middle">.2A</tspan></text>
  <text x="50" y="35.125" freecad:editable="Unit6"><tspan x="50" y="35.125" fill="#000000" font-family="osifont" font-size="3.4722" text-anchor="middle">.2A</tspan></text>
  <text x="90" y="35.125" freecad:editable="Titel6"><tspan x="90" y="35.125" fill="#000000" font-family="osifont" font-size="3.4722" text-anchor="middle">.2A</tspan></text>
  <text x="162.5" y="35.125" freecad:editable="Doc. number6"><tspan x="162.5" y="35.125" fill="#000000" font-family="osifont" font-size="3.4722" text-anchor="middle">.2A</tspan></text>
 </g>
 <line x1="20" x2="200" y1="36.75" y2="36.75" stroke="#000" stroke-width=".35"/>
 <g fill="#000000" font-family="osifont" font-size="3.4722" text-anchor="middle">
  <text x="25" y="41.875" freecad:editable="Pos.4"><tspan x="25" y="41.875" fill="#000000" font-family="osifont" font-size="3.4722" text-anchor="middle">.3A</tspan></text>
  <text x="37.5" y="41.875" freecad:editable="Qty.7"><tspan x="37.5" y="41.875" fill="#000000" font-family="osifont" font-size="3.4722" text-anchor="middle">.3A</tspan></text>
  <text x="50" y="41.875" freecad:editable="Unit7"><tspan x="50" y="41.875" fill="#000000" font-family="osifont" font-size="3.4722" text-anchor="middle">.3A</tspan></text>
  <text x="90" y="41.875" freecad:editable="Titel7"><tspan x="90" y="41.875" fill="#000000" font-family="osifont" font-size="3.4722" text-anchor="middle">.3A</tspan></text>
  <text x="162.5" y="41.875" freecad:editable="Doc. number7"><tspan x="162.5" y="41.875" fill="#000000" font-family="osifont" font-size="3.4722" text-anchor="middle">.3A</tspan></text>
 </g>
 <line x1="20" x2="200" y1="43.5" y2="43.5" stroke="#000" stroke-width=".35"/>
 <g fill="#000000" font-family="osifont" font-size="3.4722" text-anchor="middle">
  <text x="25" y="48.625" freecad:editable="Pos.4"><tspan x="25" y="48.625" fill="#000000" font-family="osifont" font-size="3.4722" text-anchor="middle">.4A</tspan></text>
  <text x="37.5" y="48.625" freecad:editable="Qty.8"><tspan x="37.5" y="48.625" fill="#000000" font-family="osifont" font-size="3.4722" text-anchor="middle">.4A</tspan></text>
  <text x="50" y="48.625" freecad:editable="Unit8"><tspan x="50" y="48.625" fill="#000000" font-family="osifont" font-size="3.4722" text-anchor="middle">.4A</tspan></text>
  <text x="90" y="48.625" freecad:editable="Titel8"><tspan x="90" y="48.625" fill="#000000" font-family="osifont" font-size="3.4722" text-anchor="middle">.4A</tspan></text>
  <text x="162.5" y="48.625" freecad:editable="Doc. number8"><tspan x="162.5" y="48.625" fill="#000000" font-family="osifont" font-size="3.4722" text-anchor="middle">.4A</tspan></text>
 </g>
 <line x1="20" x2="200" y1="50.25" y2="50.25" stroke="#000" stroke-width=".35"/>
 <g fill="#000000" font-family="osifont" font-size="3.4722" text-anchor="middle">
  <text x="25" y="55.375" freecad:editable="Pos.4"><tspan x="25" y="55.375" fill="#000000" font-family="osifont" font-size="3.4722" text-anchor="middle">.5A</tspan></text>
  <text x="37.5" y="55.375" freecad:editable="Qty.9"><tspan x="37.5" y="55.375" fill="#000000" font-family="osifont" font-size="3.4722" text-anchor="middle">.5A</tspan></text>
  <text x="50" y="55.375" freecad:editable="Unit9"><tspan x="50" y="55.375" fill="#000000" font-family="osifont" font-size="3.4722" text-anchor="middle">.5A</tspan></text>
  <text x="90" y="55.375" freecad:editable="Titel9"><tspan x="90" y="55.375" fill="#000000" font-family="osifont" font-size="3.4722" text-anchor="middle">.5A</tspan></text>
  <text x="162.5" y="55.375" freecad:editable="Doc. number9"><tspan x="162.5" y="55.375" fill="#000000" font-family="osifont" font-size="3.4722" text-anchor="middle">.5A</tspan></text>
 </g>
 <line x1="20" x2="200" y1="57" y2="57" stroke="#000" stroke-width=".35"/>
 <g fill="#000000" font-family="osifont" font-size="2.5" text-anchor="middle">
  <text x="25" y="59.9">Pos.</text>
  <text x="37.5" y="59.9">Qty.</text>
  <text x="50" y="59.9">Unit</text>
  <text x="90" y="59.9">Titel</text>
  <text x="162.5" y="59.9">Doc. number</text>
 </g>
 <line x1="20" x2="200" y1="61" y2="61" stroke="#000" stroke-width=".35"/>
 <g fill="#000000" font-family="osifont" font-size="2.5" text-anchor="middle">
  <text x="25" y="63.9">1</text>
  <text x="37.5" y="63.9">2</text>
  <text x="50" y="63.9">3</text>
  <text x="90" y="63.9">4</text>
  <text x="162.5" y="63.9">5</text>
 </g>
</svg>
