  0
SECTION
  2
HEADER
  9
$ACADVER
  1
AC1024
  9
$ACADMAINTVER
 70
6
  9
$DWGCODEPAGE
  3
ANSI_1252
  9
$LASTSAVEDBY
  1
ezdxf
  9
$INSBASE
 10
0.0
 20
0.0
 30
0.0
  9
$EXTMIN
 10
-100
 20
-100
 30
-100
  9
$EXTMAX
 10
100
 20
100
 30
100
  9
$LIMMIN
 10
0.0
 20
0.0
  9
$LIMMAX
 10
420.0
 20
297.0
  9
$ORTHOMODE
 70
0
  9
$REGENMODE
 70
1
  9
$FILLMODE
 70
1
  9
$QTEXTMODE
 70
0
  9
$MIRRTEXT
 70
1
  9
$LTSCALE
 40
1.0
  9
$ATTMODE
 70
1
  9
$TEXTSIZE
 40
2.5
  9
$TRACEWID
 40
1.0
  9
$TEXTSTYLE
  7
OpenSans
  9
$CLAYER
  8
0
  9
$CELTYPE
  6
ByLayer
  9
$CECOLOR
 62
256
  9
$CELTSCALE
 40
1.0
  9
$DISPSILH
 70
0
  9
$DIMSCALE
 40
1.0
  9
$DIMASZ
 40
0.175
  9
$DIMEXO
 40
0.125
  9
$DIMDLI
 40
3.75
  9
$DIMRND
 40
0.0
  9
$DIMDLE
 40
0.0
  9
$DIMEXE
 40
0.375
  9
$DIMTP
 40
0.0
  9
$DIMTM
 40
0.0
  9
$DIMTXT
 40
0.25
  9
$DIMCEN
 40
2.5
  9
$DIMTSZ
 40
0.0
  9
$DIMTOL
 70
0
  9
$DIMLIM
 70
0
  9
$DIMTIH
 70
0
  9
$DIMTOH
 70
0
  9
$DIMSE1
 70
0
  9
$DIMSE2
 70
0
  9
$DIMTAD
 70
1
  9
$DIMZIN
 70
8
  9
$DIMBLK
  1
ARCHTICK
  9
$DIMASO
 70
1
  9
$DIMSHO
 70
1
  9
$DIMPOST
  1

  9
$DIMAPOST
  1

  9
$DIMALT
 70
0
  9
$DIMALTD
 70
3
  9
$DIMALTF
 40
0.03937007874
  9
$DIMLFAC
 40
100.0
  9
$DIMTOFL
 70
1
  9
$DIMTVP
 40
0.0
  9
$DIMTIX
 70
0
  9
$DIMSOXD
 70
0
  9
$DIMSAH
 70
0
  9
$DIMBLK1
  1

  9
$DIMBLK2
  1

  9
$DIMSTYLE
  2
EZDXF
  9
$DIMCLRD
 70
0
  9
$DIMCLRE
 70
0
  9
$DIMCLRT
 70
0
  9
$DIMTFAC
 40
1.0
  9
$DIMGAP
 40
0.1
  9
$DIMJUST
 70
0
  9
$DIMSD1
 70
0
  9
$DIMSD2
 70
0
  9
$DIMTOLJ
 70
0
  9
$DIMTZIN
 70
8
  9
$DIMALTZ
 70
0
  9
$DIMALTTZ
 70
0
  9
$DIMUPT
 70
1
  9
$DIMDEC
 70
2
  9
$DIMTDEC
 70
2
  9
$DIMALTU
 70
2
  9
$DIMALTTD
 70
3
  9
$DIMTXSTY
  7
OpenSansCondensed-Light
  9
$DIMAUNIT
 70
0
  9
$DIMADEC
 70
0
  9
$DIMALTRND
 40
0.0
  9
$DIMAZIN
 70
0
  9
$DIMDSEP
 70
46
  9
$DIMATFIT
 70
3
  9
$DIMFRAC
 70
0
  9
$DIMLDRBLK
  1

  9
$DIMLUNIT
 70
2
  9
$DIMLWD
 70
-2
  9
$DIMLWE
 70
-2
  9
$DIMTMOVE
 70
2
  9
$DIMFXL
 40
1.0
  9
$DIMFXLON
 70
0
  9
$DIMJOGANG
 40
0.785398163397
  9
$DIMTFILL
 70
0
  9
$DIMTFILLCLR
 70
0
  9
$DIMARCSYM
 70
0
  9
$DIMLTYPE
  6

  9
$DIMLTEX1
  6

  9
$DIMLTEX2
  6

  9
$DIMTXTDIRECTION
 70
0
  9
$LUNITS
 70
2
  9
$LUPREC
 70
4
  9
$SKETCHINC
 40
1.0
  9
$FILLETRAD
 40
10.0
  9
$AUNITS
 70
0
  9
$AUPREC
 70
2
  9
$MENU
  1
.
  9
$ELEVATION
 40
0.0
  9
$PELEVATION
 40
0.0
  9
$THICKNESS
 40
0.0
  9
$LIMCHECK
 70
0
  9
$CHAMFERA
 40
0.0
  9
$CHAMFERB
 40
0.0
  9
$CHAMFERC
 40
0.0
  9
$CHAMFERD
 40
0.0
  9
$SKPOLY
 70
0
  9
$TDCREATE
 40
2459787.8108333335
  9
$TDUCREATE
 40
2458532.153996898
  9
$TDUPDATE
 40
2459787.8108449075
  9
$TDUUPDATE
 40
2458532.1544311
  9
$TDINDWG
 40
0.0
  9
$TDUSRTIMER
 40
0.0
  9
$USRTIMER
 70
1
  9
$ANGBASE
 50
0.0
  9
$ANGDIR
 70
0
  9
$PDMODE
 70
0
  9
$PDSIZE
 40
0.0
  9
$PLINEWID
 40
0.0
  9
$SPLFRAME
 70
0
  9
$SPLINETYPE
 70
6
  9
$SPLINESEGS
 70
8
  9
$HANDSEED
  5
15C
  9
$SURFTAB1
 70
6
  9
$SURFTAB2
 70
6
  9
$SURFTYPE
 70
6
  9
$SURFU
 70
6
  9
$SURFV
 70
6
  9
$UCSBASE
  2

  9
$UCSNAME
  2

  9
$UCSORG
 10
0.0
 20
0.0
 30
0.0
  9
$UCSXDIR
 10
1.0
 20
0.0
 30
0.0
  9
$UCSYDIR
 10
0.0
 20
1.0
 30
0.0
  9
$UCSORTHOREF
  2

  9
$UCSORTHOVIEW
 70
0
  9
$UCSORGTOP
 10
0.0
 20
0.0
 30
0.0
  9
$UCSORGBOTTOM
 10
0.0
 20
0.0
 30
0.0
  9
$UCSORGLEFT
 10
0.0
 20
0.0
 30
0.0
  9
$UCSORGRIGHT
 10
0.0
 20
0.0
 30
0.0
  9
$UCSORGFRONT
 10
0.0
 20
0.0
 30
0.0
  9
$UCSORGBACK
 10
0.0
 20
0.0
 30
0.0
  9
$PUCSBASE
  2

  9
$PUCSNAME
  2

  9
$PUCSORG
 10
0.0
 20
0.0
 30
0.0
  9
$PUCSXDIR
 10
1.0
 20
0.0
 30
0.0
  9
$PUCSYDIR
 10
0.0
 20
1.0
 30
0.0
  9
$PUCSORTHOREF
  2

  9
$PUCSORTHOVIEW
 70
0
  9
$PUCSORGTOP
 10
0.0
 20
0.0
 30
0.0
  9
$PUCSORGBOTTOM
 10
0.0
 20
0.0
 30
0.0
  9
$PUCSORGLEFT
 10
0.0
 20
0.0
 30
0.0
  9
$PUCSORGRIGHT
 10
0.0
 20
0.0
 30
0.0
  9
$PUCSORGFRONT
 10
0.0
 20
0.0
 30
0.0
  9
$PUCSORGBACK
 10
0.0
 20
0.0
 30
0.0
  9
$USERI1
 70
0
  9
$USERI2
 70
0
  9
$USERI3
 70
0
  9
$USERI4
 70
0
  9
$USERI5
 70
0
  9
$USERR1
 40
0.0
  9
$USERR2
 40
0.0
  9
$USERR3
 40
0.0
  9
$USERR4
 40
0.0
  9
$USERR5
 40
0.0
  9
$WORLDVIEW
 70
1
  9
$SHADEDGE
 70
3
  9
$SHADEDIF
 70
70
  9
$TILEMODE
 70
1
  9
$MAXACTVP
 70
64
  9
$PINSBASE
 10
0.0
 20
0.0
 30
0.0
  9
$PLIMCHECK
 70
0
  9
$PEXTMIN
 10
1e+20
 20
1e+20
 30
1e+20
  9
$PEXTMAX
 10
-1e+20
 20
-1e+20
 30
-1e+20
  9
$PLIMMIN
 10
0.0
 20
0.0
  9
$PLIMMAX
 10
420.0
 20
297.0
  9
$UNITMODE
 70
0
  9
$VISRETAIN
 70
1
  9
$PLINEGEN
 70
0
  9
$PSLTSCALE
 70
1
  9
$TREEDEPTH
 70
3020
  9
$CMLSTYLE
  2
Standard
  9
$CMLJUST
 70
0
  9
$CMLSCALE
 40
20.0
  9
$PROXYGRAPHICS
 70
1
  9
$MEASUREMENT
 70
1
  9
$CELWEIGHT
370
-1
  9
$ENDCAPS
280
0
  9
$JOINSTYLE
280
0
  9
$LWDISPLAY
290
0
  9
$INSUNITS
 70
4
  9
$HYPERLINKBASE
  1

  9
$STYLESHEET
  1

  9
$XEDIT
290
1
  9
$CEPSNTYPE
380
0
  9
$PSTYLEMODE
290
1
  9
$FINGERPRINTGUID
  2
3DF9C4C8-0D08-11ED-9DE3-08606E47A897
  9
$VERSIONGUID
  2
3E7B040C-0D08-11ED-9DE3-08606E47A897
  9
$EXTNAMES
290
1
  9
$PSVPSCALE
 40
0.0
  9
$OLESTARTUP
290
0
  9
$SORTENTS
280
127
  9
$INDEXCTL
280
0
  9
$HIDETEXT
280
1
  9
$XCLIPFRAME
280
2
  9
$HALOGAP
280
0
  9
$OBSCOLOR
 70
257
  9
$OBSLTYPE
280
0
  9
$INTERSECTIONDISPLAY
280
0
  9
$INTERSECTIONCOLOR
 70
257
  9
$DIMASSOC
280
2
  9
$PROJECTNAME
  1

  9
$CAMERADISPLAY
290
0
  9
$LENSLENGTH
 40
50.0
  9
$CAMERAHEIGHT
 40
0.0
  9
$STEPSPERSEC
 40
24.0
  9
$STEPSIZE
 40
100.0
  9
$3DDWFPREC
 40
2.0
  9
$PSOLWIDTH
 40
0.005
  9
$PSOLHEIGHT
 40
0.08
  9
$LOFTANG1
 40
1.570796326795
  9
$LOFTANG2
 40
1.570796326795
  9
$LOFTMAG1
 40
0.0
  9
$LOFTMAG2
 40
0.0
  9
$LOFTPARAM
 70
7
  9
$LOFTNORMALS
280
1
  9
$LATITUDE
 40
37.795
  9
$LONGITUDE
 40
-122.394
  9
$NORTHDIRECTION
 40
0.0
  9
$TIMEZONE
 70
-8000
  9
$LIGHTGLYPHDISPLAY
280
1
  9
$TILEMODELIGHTSYNCH
280
1
  9
$CMATERIAL
347
20
  9
$SOLIDHIST
280
0
  9
$SHOWHIST
280
1
  9
$DWFFRAME
280
2
  9
$DGNFRAME
280
2
  9
$REALWORLDSCALE
290
1
  9
$INTERFERECOLOR
 62
256
  9
$CSHADOW
280
0
  9
$SHADOWPLANELOCATION
 40
0.0
  0
ENDSEC
  0
SECTION
  2
CLASSES
  0
CLASS
  1
ACDBDICTIONARYWDFLT
  2
AcDbDictionaryWithDefault
  3
ObjectDBX Classes
 90
0
 91
0
280
0
281
0
  0
CLASS
  1
SUN
  2
AcDbSun
  3
SCENEOE
 90
1153
 91
0
280
0
281
0
  0
CLASS
  1
VISUALSTYLE
  2
AcDbVisualStyle
  3
ObjectDBX Classes
 90
4095
 91
0
280
0
281
0
  0
CLASS
  1
MATERIAL
  2
AcDbMaterial
  3
ObjectDBX Classes
 90
1153
 91
0
280
0
281
0
  0
CLASS
  1
SCALE
  2
AcDbScale
  3
ObjectDBX Classes
 90
1153
 91
0
280
0
281
0
  0
CLASS
  1
TABLESTYLE
  2
AcDbTableStyle
  3
ObjectDBX Classes
 90
4095
 91
0
280
0
281
0
  0
CLASS
  1
MLEADERSTYLE
  2
AcDbMLeaderStyle
  3
ACDB_MLEADERSTYLE_CLASS
 90
4095
 91
0
280
0
281
0
  0
CLASS
  1
DICTIONARYVAR
  2
AcDbDictionaryVar
  3
ObjectDBX Classes
 90
0
 91
0
280
0
281
0
  0
CLASS
  1
CELLSTYLEMAP
  2
AcDbCellStyleMap
  3
ObjectDBX Classes
 90
1152
 91
0
280
0
281
0
  0
CLASS
  1
MENTALRAYRENDERSETTINGS
  2
AcDbMentalRayRenderSettings
  3
SCENEOE
 90
1024
 91
0
280
0
281
0
  0
CLASS
  1
ACDBDETAILVIEWSTYLE
  2
AcDbDetailViewStyle
  3
ObjectDBX Classes
 90
1025
 91
0
280
0
281
0
  0
CLASS
  1
ACDBSECTIONVIEWSTYLE
  2
AcDbSectionViewStyle
  3
ObjectDBX Classes
 90
1025
 91
0
280
0
281
0
  0
CLASS
  1
RASTERVARIABLES
  2
AcDbRasterVariables
  3
ISM
 90
0
 91
0
280
0
281
0
  0
CLASS
  1
LAYOUT
  2
AcDbLayout
  3
ObjectDBX Classes
 90
0
 91
0
280
0
281
0
  0
CLASS
  1
ACDBPLACEHOLDER
  2
AcDbPlaceHolder
  3
ObjectDBX Classes
 90
0
 91
0
280
0
281
0
  0
ENDSEC
  0
SECTION
  2
TABLES
  0
TABLE
  2
VPORT
  5
8
330
0
100
AcDbSymbolTable
 70
1
  0
VPORT
  5
23
330
8
100
AcDbSymbolTableRecord
100
AcDbViewportTableRecord
  2
*Active
 70
0
 10
0.0
 20
0.0
 11
1.0
 21
1.0
 12
70.0
 22
50.0
 13
0.0
 23
0.0
 14
0.5
 24
0.5
 15
0.5
 25
0.5
 16
0.0
 26
0.0
 36
1.0
 17
0.0
 27
0.0
 37
0.0
 40
1.0
 41
1.34
 42
50.0
 43
0.0
 44
0.0
 50
0.0
 51
0.0
 71
0
 72
1000
 73
1
 74
3
 75
0
 76
0
 77
0
 78
0
281
0
 65
0
146
0.0
  0
ENDTAB
  0
TABLE
  2
LTYPE
  5
2
330
0
100
AcDbSymbolTable
 70
21
  0
LTYPE
  5
24
330
2
100
AcDbSymbolTableRecord
100
AcDbLinetypeTableRecord
  2
ByBlock
 70
0
  3

 72
65
 73
0
 40
0.0
  0
LTYPE
  5
25
330
2
100
AcDbSymbolTableRecord
100
AcDbLinetypeTableRecord
  2
ByLayer
 70
0
  3

 72
65
 73
0
 40
0.0
  0
LTYPE
  5
26
330
2
100
AcDbSymbolTableRecord
100
AcDbLinetypeTableRecord
  2
Continuous
 70
0
  3

 72
65
 73
0
 40
0.0
  0
LTYPE
  5
2D
330
2
100
AcDbSymbolTableRecord
100
AcDbLinetypeTableRecord
  2
CENTER
 70
0
  3
Center ____ _ ____ _ ____ _ ____ _ ____ _ ____
 72
65
 73
4
 40
5.08
 49
3.175
 74
0
 49
-0.635
 74
0
 49
0.635
 74
0
 49
-0.635
 74
0
  0
LTYPE
  5
2E
330
2
100
AcDbSymbolTableRecord
100
AcDbLinetypeTableRecord
  2
CENTERX2
 70
0
  3
Center (2x) ________  __  ________  __  ________
 72
65
 73
4
 40
8.89
 49
6.35
 74
0
 49
-0.635
 74
0
 49
1.27
 74
0
 49
-0.635
 74
0
  0
LTYPE
  5
2F
330
2
100
AcDbSymbolTableRecord
100
AcDbLinetypeTableRecord
  2
CENTER2
 70
0
  3
Center (.5x) ____ _ ____ _ ____ _ ____ _ ____
 72
65
 73
4
 40
2.54
 49
1.587
 74
0
 49
-0.318
 74
0
 49
0.318
 74
0
 49
-0.318
 74
0
  0
LTYPE
  5
30
330
2
100
AcDbSymbolTableRecord
100
AcDbLinetypeTableRecord
  2
DASHED
 70
0
  3
Dashed __ __ __ __ __ __ __ __ __ __ __ __ __ _
 72
65
 73
2
 40
1.524
 49
1.27
 74
0
 49
-0.254
 74
0
  0
LTYPE
  5
31
330
2
100
AcDbSymbolTableRecord
100
AcDbLinetypeTableRecord
  2
DASHEDX2
 70
0
  3
Dashed (2x) ____  ____  ____  ____  ____  ____
 72
65
 73
2
 40
3.048
 49
2.54
 74
0
 49
-0.508
 74
0
  0
LTYPE
  5
32
330
2
100
AcDbSymbolTableRecord
100
AcDbLinetypeTableRecord
  2
DASHED2
 70
0
  3
Dashed (.5x) _ _ _ _ _ _ _ _ _ _ _ _ _ _
 72
65
 73
2
 40
0.762
 49
0.635
 74
0
 49
-0.127
 74
0
  0
LTYPE
  5
33
330
2
100
AcDbSymbolTableRecord
100
AcDbLinetypeTableRecord
  2
PHANTOM
 70
0
  3
Phantom ______  __  __  ______  __  __  ______
 72
65
 73
6
 40
6.35
 49
3.175
 74
0
 49
-0.635
 74
0
 49
0.635
 74
0
 49
-0.635
 74
0
 49
0.635
 74
0
 49
-0.635
 74
0
  0
LTYPE
  5
34
330
2
100
AcDbSymbolTableRecord
100
AcDbLinetypeTableRecord
  2
PHANTOMX2
 70
0
  3
Phantom (2x)____________    ____    ____    ____________
 72
65
 73
6
 40
10.795
 49
6.35
 74
0
 49
-0.635
 74
0
 49
1.27
 74
0
 49
-0.635
 74
0
 49
1.27
 74
0
 49
-0.635
 74
0
  0
LTYPE
  5
35
330
2
100
AcDbSymbolTableRecord
100
AcDbLinetypeTableRecord
  2
PHANTOM2
 70
0
  3
Phantom (.5x) ___ _ _ ___ _ _ ___ _ _ ___ _ _ ___
 72
65
 73
6
 40
3.175
 49
1.587
 74
0
 49
-0.318
 74
0
 49
0.318
 74
0
 49
-0.318
 74
0
 49
0.318
 74
0
 49
-0.318
 74
0
  0
LTYPE
  5
36
330
2
100
AcDbSymbolTableRecord
100
AcDbLinetypeTableRecord
  2
DASHDOT
 70
0
  3
Dash dot __ . __ . __ . __ . __ . __ . __ . __
 72
65
 73
4
 40
3.556
 49
2.54
 74
0
 49
-0.508
 74
0
 49
0.0
 74
0
 49
-0.508
 74
0
  0
LTYPE
  5
37
330
2
100
AcDbSymbolTableRecord
100
AcDbLinetypeTableRecord
  2
DASHDOTX2
 70
0
  3
Dash dot (2x) ____  .  ____  .  ____  .  ____
 72
65
 73
4
 40
6.096
 49
5.08
 74
0
 49
-0.508
 74
0
 49
0.0
 74
0
 49
-0.508
 74
0
  0
LTYPE
  5
38
330
2
100
AcDbSymbolTableRecord
100
AcDbLinetypeTableRecord
  2
DASHDOT2
 70
0
  3
Dash dot (.5x) _ . _ . _ . _ . _ . _ . _ . _
 72
65
 73
4
 40
1.778
 49
1.27
 74
0
 49
-0.254
 74
0
 49
0.0
 74
0
 49
-0.254
 74
0
  0
LTYPE
  5
39
330
2
100
AcDbSymbolTableRecord
100
AcDbLinetypeTableRecord
  2
DOT
 70
0
  3
Dot .  .  .  .  .  .  .  .  .  .  .  .  .  .  .  .
 72
65
 73
2
 40
0.508
 49
0.0
 74
0
 49
-0.508
 74
0
  0
LTYPE
  5
3A
330
2
100
AcDbSymbolTableRecord
100
AcDbLinetypeTableRecord
  2
DOTX2
 70
0
  3
Dot (2x) .    .    .    .    .    .    .    . 
 72
65
 73
2
 40
1.016
 49
0.0
 74
0
 49
-1.016
 74
0
  0
LTYPE
  5
3B
330
2
100
AcDbSymbolTableRecord
100
AcDbLinetypeTableRecord
  2
DOT2
 70
0
  3
Dot (.5) . . . . . . . . . . . . . . . . . . . 
 72
65
 73
2
 40
0.254
 49
0.0
 74
0
 49
-0.254
 74
0
  0
LTYPE
  5
3C
330
2
100
AcDbSymbolTableRecord
100
AcDbLinetypeTableRecord
  2
DIVIDE
 70
0
  3
Divide __ . . __ . . __ . . __ . . __ . . __
 72
65
 73
6
 40
4.064
 49
2.54
 74
0
 49
-0.508
 74
0
 49
0.0
 74
0
 49
-0.508
 74
0
 49
0.0
 74
0
 49
-0.508
 74
0
  0
LTYPE
  5
3D
330
2
100
AcDbSymbolTableRecord
100
AcDbLinetypeTableRecord
  2
DIVIDEX2
 70
0
  3
Divide (2x) ____  . .  ____  . .  ____  . .  ____
 72
65
 73
6
 40
6.604
 49
5.08
 74
0
 49
-0.508
 74
0
 49
0.0
 74
0
 49
-0.508
 74
0
 49
0.0
 74
0
 49
-0.508
 74
0
  0
LTYPE
  5
3E
330
2
100
AcDbSymbolTableRecord
100
AcDbLinetypeTableRecord
  2
DIVIDE2
 70
0
  3
Divide(.5x) _ . _ . _ . _ . _ . _ . _ . _
 72
65
 73
6
 40
2.032
 49
1.27
 74
0
 49
-0.254
 74
0
 49
0.0
 74
0
 49
-0.254
 74
0
 49
0.0
 74
0
 49
-0.254
 74
0
  0
ENDTAB
  0
TABLE
  2
LAYER
  5
1
330
0
100
AcDbSymbolTable
 70
2
  0
LAYER
  5
27
330
1
100
AcDbSymbolTableRecord
100
AcDbLayerTableRecord
  2
0
 70
0
 62
7
  6
Continuous
370
-3
390
13
347
21
  0
LAYER
  5
28
330
1
100
AcDbSymbolTableRecord
100
AcDbLayerTableRecord
  2
Defpoints
 70
0
 62
7
  6
Continuous
290
0
370
-3
390
13
347
21
  0
ENDTAB
  0
TABLE
  2
STYLE
  5
5
330
0
100
AcDbSymbolTable
 70
27
  0
STYLE
  5
29
330
5
100
AcDbSymbolTableRecord
100
AcDbTextStyleTableRecord
  2
Standard
 70
0
 40
0.0
 41
1.0
 50
0.0
 71
0
 42
2.5
  3
txt
  4

  0
STYLE
  5
3F
330
5
100
AcDbSymbolTableRecord
100
AcDbTextStyleTableRecord
  2
OpenSans-Light
 70
0
 40
0.0
 41
1.0
 50
0.0
 71
0
 42
2.5
  3
OpenSans-Light.ttf
  4

  0
STYLE
  5
40
330
5
100
AcDbSymbolTableRecord
100
AcDbTextStyleTableRecord
  2
OpenSans-Light-Italic
 70
0
 40
0.0
 41
1.0
 50
0.0
 71
0
 42
2.5
  3
OpenSans-LightItalic.ttf
  4

  0
STYLE
  5
41
330
5
100
AcDbSymbolTableRecord
100
AcDbTextStyleTableRecord
  2
OpenSans
 70
0
 40
0.0
 41
1.0
 50
0.0
 71
0
 42
2.5
  3
OpenSans-Regular.ttf
  4

  0
STYLE
  5
42
330
5
100
AcDbSymbolTableRecord
100
AcDbTextStyleTableRecord
  2
OpenSans-Italic
 70
0
 40
0.0
 41
1.0
 50
0.0
 71
0
 42
2.5
  3
OpenSans-Italic.ttf
  4

  0
STYLE
  5
43
330
5
100
AcDbSymbolTableRecord
100
AcDbTextStyleTableRecord
  2
OpenSans-SemiBold
 70
0
 40
0.0
 41
1.0
 50
0.0
 71
0
 42
2.5
  3
OpenSans-SemiBold.ttf
  4

  0
STYLE
  5
44
330
5
100
AcDbSymbolTableRecord
100
AcDbTextStyleTableRecord
  2
OpenSans-SemiBoldItalic
 70
0
 40
0.0
 41
1.0
 50
0.0
 71
0
 42
2.5
  3
OpenSans-SemiBoldItalic.ttf
  4

  0
STYLE
  5
45
330
5
100
AcDbSymbolTableRecord
100
AcDbTextStyleTableRecord
  2
OpenSans-Bold
 70
0
 40
0.0
 41
1.0
 50
0.0
 71
0
 42
2.5
  3
OpenSans-Bold.ttf
  4

  0
STYLE
  5
46
330
5
100
AcDbSymbolTableRecord
100
AcDbTextStyleTableRecord
  2
OpenSans-BoldItalic
 70
0
 40
0.0
 41
1.0
 50
0.0
 71
0
 42
2.5
  3
OpenSans-BoldItalic.ttf
  4

  0
STYLE
  5
47
330
5
100
AcDbSymbolTableRecord
100
AcDbTextStyleTableRecord
  2
OpenSans-ExtraBold
 70
0
 40
0.0
 41
1.0
 50
0.0
 71
0
 42
2.5
  3
OpenSans-ExtraBold.ttf
  4

  0
STYLE
  5
48
330
5
100
AcDbSymbolTableRecord
100
AcDbTextStyleTableRecord
  2
OpenSans-ExtraBoldItalic
 70
0
 40
0.0
 41
1.0
 50
0.0
 71
0
 42
2.5
  3
OpenSans-ExtraBoldItalic.ttf
  4

  0
STYLE
  5
49
330
5
100
AcDbSymbolTableRecord
100
AcDbTextStyleTableRecord
  2
OpenSansCondensed-Bold
 70
0
 40
0.0
 41
1.0
 50
0.0
 71
0
 42
2.5
  3
OpenSansCondensed-Bold.ttf
  4

  0
STYLE
  5
4A
330
5
100
AcDbSymbolTableRecord
100
AcDbTextStyleTableRecord
  2
OpenSansCondensed-Light
 70
0
 40
0.0
 41
1.0
 50
0.0
 71
0
 42
2.5
  3
OpenSansCondensed-Light.ttf
  4

  0
STYLE
  5
4B
330
5
100
AcDbSymbolTableRecord
100
AcDbTextStyleTableRecord
  2
OpenSansCondensed-Italic
 70
0
 40
0.0
 41
1.0
 50
0.0
 71
0
 42
2.5
  3
OpenSansCondensed-LightItalic.ttf
  4

  0
STYLE
  5
4C
330
5
100
AcDbSymbolTableRecord
100
AcDbTextStyleTableRecord
  2
LiberationSans
 70
0
 40
0.0
 41
1.0
 50
0.0
 71
0
 42
2.5
  3
LiberationSans-Regular.ttf
  4

  0
STYLE
  5
4D
330
5
100
AcDbSymbolTableRecord
100
AcDbTextStyleTableRecord
  2
LiberationSans-Bold
 70
0
 40
0.0
 41
1.0
 50
0.0
 71
0
 42
2.5
  3
LiberationSans-Bold.ttf
  4

  0
STYLE
  5
4E
330
5
100
AcDbSymbolTableRecord
100
AcDbTextStyleTableRecord
  2
LiberationSans-BoldItalic
 70
0
 40
0.0
 41
1.0
 50
0.0
 71
0
 42
2.5
  3
LiberationSans-BoldItalic.ttf
  4

  0
STYLE
  5
4F
330
5
100
AcDbSymbolTableRecord
100
AcDbTextStyleTableRecord
  2
LiberationSans-Italic
 70
0
 40
0.0
 41
1.0
 50
0.0
 71
0
 42
2.5
  3
LiberationSans-Italic.ttf
  4

  0
STYLE
  5
50
330
5
100
AcDbSymbolTableRecord
100
AcDbTextStyleTableRecord
  2
LiberationSerif
 70
0
 40
0.0
 41
1.0
 50
0.0
 71
0
 42
2.5
  3
LiberationSerif-Regular.ttf
  4

  0
STYLE
  5
51
330
5
100
AcDbSymbolTableRecord
100
AcDbTextStyleTableRecord
  2
LiberationSerif-Bold
 70
0
 40
0.0
 41
1.0
 50
0.0
 71
0
 42
2.5
  3
LiberationSerif-Bold.ttf
  4

  0
STYLE
  5
52
330
5
100
AcDbSymbolTableRecord
100
AcDbTextStyleTableRecord
  2
LiberationSerif-BoldItalic
 70
0
 40
0.0
 41
1.0
 50
0.0
 71
0
 42
2.5
  3
LiberationSerif-BoldItalic.ttf
  4

  0
STYLE
  5
53
330
5
100
AcDbSymbolTableRecord
100
AcDbTextStyleTableRecord
  2
LiberationSerif-Italic
 70
0
 40
0.0
 41
1.0
 50
0.0
 71
0
 42
2.5
  3
LiberationSerif-Italic.ttf
  4

  0
STYLE
  5
54
330
5
100
AcDbSymbolTableRecord
100
AcDbTextStyleTableRecord
  2
LiberationMono
 70
0
 40
0.0
 41
1.0
 50
0.0
 71
0
 42
2.5
  3
LiberationMono-Regular.ttf
  4

  0
STYLE
  5
55
330
5
100
AcDbSymbolTableRecord
100
AcDbTextStyleTableRecord
  2
LiberationMono-Bold
 70
0
 40
0.0
 41
1.0
 50
0.0
 71
0
 42
2.5
  3
LiberationMono-Bold.ttf
  4

  0
STYLE
  5
56
330
5
100
AcDbSymbolTableRecord
100
AcDbTextStyleTableRecord
  2
LiberationMono-BoldItalic
 70
0
 40
0.0
 41
1.0
 50
0.0
 71
0
 42
2.5
  3
LiberationMono-BoldItalic.ttf
  4

  0
STYLE
  5
57
330
5
100
AcDbSymbolTableRecord
100
AcDbTextStyleTableRecord
  2
LiberationMono-Italic
 70
0
 40
0.0
 41
1.0
 50
0.0
 71
0
 42
2.5
  3
LiberationMono-Italic.ttf
  4

  0
STYLE
  5
87
330
5
100
AcDbSymbolTableRecord
100
AcDbTextStyleTableRecord
  2
osifont
 70
0
 40
0.0
 41
1.0
 50
0.0
 71
0
 42
2.5
  3
osifont.ttf
  4

  0
ENDTAB
  0
TABLE
  2
VIEW
  5
7
330
0
100
AcDbSymbolTable
 70
0
  0
ENDTAB
  0
TABLE
  2
UCS
  5
6
330
0
100
AcDbSymbolTable
 70
0
  0
ENDTAB
  0
TABLE
  2
APPID
  5
3
330
0
100
AcDbSymbolTable
 70
2
  0
APPID
  5
2A
330
3
100
AcDbSymbolTableRecord
100
AcDbRegAppTableRecord
  2
ACAD
 70
0
  0
APPID
  5
15B
330
3
100
AcDbSymbolTableRecord
100
AcDbRegAppTableRecord
  2
HATCHBACKGROUNDCOLOR
 70
0
  0
ENDTAB
  0
TABLE
  2
DIMSTYLE
  5
4
330
0
100
AcDbSymbolTable
 70
11
100
AcDbDimStyleTable
  0
DIMSTYLE
105
2B
330
4
100
AcDbSymbolTableRecord
100
AcDbDimStyleTableRecord
  2
Standard
 70
0
 40
1.0
 41
2.5
 42
0.625
 43
3.75
 44
1.25
 45
0.0
 46
0.0
 47
0.0
 48
0.0
 49
2.5
140
2.5
141
2.5
142
0.0
143
0.03937007874
144
1.0
145
0.0
146
1.0
147
0.625
148
0.0
 69
0
 70
0
 71
0
 72
0
 73
0
 74
0
 75
0
 76
0
 77
1
 78
8
 79
0
170
0
171
3
172
1
173
0
174
0
175
0
176
0
177
0
178
0
179
0
271
0
272
2
273
2
274
3
275
0
276
0
277
2
278
44
279
0
280
0
281
0
282
0
283
0
284
8
285
0
286
0
288
0
289
3
290
0
371
-2
372
-2
  0
DIMSTYLE
105
71
330
4
100
AcDbSymbolTableRecord
100
AcDbDimStyleTableRecord
  2
EZDXF
 70
0
 40
1.0
 41
0.175
 42
0.125
 43
3.75
 44
0.375
 45
0.0
 46
0.0
 47
0.0
 48
0.0
 49
2.5
140
0.25
141
2.5
142
0.0
143
0.03937007874
144
100.0
145
0.0
146
1.0
147
0.1
148
0.0
 69
0
 70
0
 71
0
 72
0
 73
0
 74
0
 75
0
 76
0
 77
1
 78
8
 79
0
170
0
171
3
172
1
173
0
174
0
175
0
176
0
177
0
178
0
179
0
271
2
272
2
273
2
274
3
275
0
276
0
277
2
278
46
279
2
280
0
281
0
282
0
283
0
284
8
285
0
286
0
288
1
289
3
290
0
340
4A
342
72
371
-2
372
-2
  0
DIMSTYLE
105
7A
330
4
100
AcDbSymbolTableRecord
100
AcDbDimStyleTableRecord
  2
EZ_M_100_H25_CM
 70
0
 40
1.0
 41
0.25
 42
0.125
 43
3.75
 44
0.375
 45
0.0
 46
0.0
 47
0.0
 48
0.0
 49
2.5
140
0.25
141
2.5
142
0.125
143
0.03937007874
144
100.0
145
0.0
146
1.0
147
0.1
148
0.0
 69
0
 70
0
 71
0
 72
0
 73
0
 74
0
 75
0
 76
0
 77
1
 78
8
 79
0
170
0
171
3
172
1
173
0
174
0
175
0
176
0
177
0
178
0
179
0
271
2
272
2
273
2
274
3
275
0
276
0
277
2
278
46
279
2
280
0
281
0
282
0
283
0
284
8
285
0
286
0
288
1
289
3
290
0
340
4A
371
-2
372
-2
  0
DIMSTYLE
105
7B
330
4
100
AcDbSymbolTableRecord
100
AcDbDimStyleTableRecord
  2
EZ_M_50_H25_CM
 70
0
 40
1.0
 41
0.125
 42
0.0625
 43
3.75
 44
0.1875
 45
0.0
 46
0.0
 47
0.0
 48
0.0
 49
2.5
140
0.125
141
2.5
142
0.0625
143
0.03937007874
144
100.0
145
0.0
146
1.0
147
0.05
148
0.0
 69
0
 70
0
 71
0
 72
0
 73
0
 74
0
 75
0
 76
0
 77
1
 78
8
 79
0
170
0
171
3
172
1
173
0
174
0
175
0
176
0
177
0
178
0
179
0
271
2
272
2
273
2
274
3
275
0
276
0
277
2
278
46
279
2
280
0
281
0
282
0
283
0
284
8
285
0
286
0
288
1
289
3
290
0
340
4A
371
-2
372
-2
  0
DIMSTYLE
105
7C
330
4
100
AcDbSymbolTableRecord
100
AcDbDimStyleTableRecord
  2
EZ_M_25_H25_CM
 70
0
 40
1.0
 41
0.0625
 42
0.03125
 43
3.75
 44
0.09375
 45
0.0
 46
0.0
 47
0.0
 48
0.0
 49
2.5
140
0.0625
141
2.5
142
0.03125
143
0.03937007874
144
100.0
145
0.0
146
1.0
147
0.025
148
0.0
 69
0
 70
0
 71
0
 72
0
 73
0
 74
0
 75
0
 76
0
 77
1
 78
8
 79
0
170
0
171
3
172
1
173
0
174
0
175
0
176
0
177
0
178
0
179
0
271
2
272
2
273
2
274
3
275
0
276
0
277
2
278
46
279
2
280
0
281
0
282
0
283
0
284
8
285
0
286
0
288
1
289
3
290
0
340
4A
371
-2
372
-2
  0
DIMSTYLE
105
7D
330
4
100
AcDbSymbolTableRecord
100
AcDbDimStyleTableRecord
  2
EZ_M_20_H25_CM
 70
0
 40
1.0
 41
0.05
 42
0.025
 43
3.75
 44
0.07500000000000001
 45
0.0
 46
0.0
 47
0.0
 48
0.0
 49
2.5
140
0.05
141
2.5
142
0.025
143
0.03937007874
144
100.0
145
0.0
146
1.0
147
0.020000000000000004
148
0.0
 69
0
 70
0
 71
0
 72
0
 73
0
 74
0
 75
0
 76
0
 77
1
 78
8
 79
0
170
0
171
3
172
1
173
0
174
0
175
0
176
0
177
0
178
0
179
0
271
2
272
2
273
2
274
3
275
0
276
0
277
2
278
46
279
2
280
0
281
0
282
0
283
0
284
8
285
0
286
0
288
1
289
3
290
0
340
4A
371
-2
372
-2
  0
DIMSTYLE
105
7E
330
4
100
AcDbSymbolTableRecord
100
AcDbDimStyleTableRecord
  2
EZ_M_10_H25_CM
 70
0
 40
1.0
 41
0.025
 42
0.0125
 43
3.75
 44
0.037500000000000006
 45
0.0
 46
0.0
 47
0.0
 48
0.0
 49
2.5
140
0.025
141
2.5
142
0.0125
143
0.03937007874
144
100.0
145
0.0
146
1.0
147
0.010000000000000002
148
0.0
 69
0
 70
0
 71
0
 72
0
 73
0
 74
0
 75
0
 76
0
 77
1
 78
8
 79
0
170
0
171
3
172
1
173
0
174
0
175
0
176
0
177
0
178
0
179
0
271
2
272
2
273
2
274
3
275
0
276
0
277
2
278
46
279
2
280
0
281
0
282
0
283
0
284
8
285
0
286
0
288
1
289
3
290
0
340
4A
371
-2
372
-2
  0
DIMSTYLE
105
7F
330
4
100
AcDbSymbolTableRecord
100
AcDbDimStyleTableRecord
  2
EZ_M_5_H25_CM
 70
0
 40
1.0
 41
0.0125
 42
0.00625
 43
3.75
 44
0.018750000000000003
 45
0.0
 46
0.0
 47
0.0
 48
0.0
 49
2.5
140
0.0125
141
2.5
142
0.00625
143
0.03937007874
144
100.0
145
0.0
146
1.0
147
0.005000000000000001
148
0.0
 69
0
 70
0
 71
0
 72
0
 73
0
 74
0
 75
0
 76
0
 77
1
 78
8
 79
0
170
0
171
3
172
1
173
0
174
0
175
0
176
0
177
0
178
0
179
0
271
2
272
2
273
2
274
3
275
0
276
0
277
2
278
46
279
2
280
0
281
0
282
0
283
0
284
8
285
0
286
0
288
1
289
3
290
0
340
4A
371
-2
372
-2
  0
DIMSTYLE
105
80
330
4
100
AcDbSymbolTableRecord
100
AcDbDimStyleTableRecord
  2
EZ_M_1_H25_CM
 70
0
 40
1.0
 41
0.0025
 42
0.00125
 43
3.75
 44
0.00375
 45
0.0
 46
0.0
 47
0.0
 48
0.0
 49
2.5
140
0.0025
141
2.5
142
0.00125
143
0.03937007874
144
100.0
145
0.0
146
1.0
147
0.001
148
0.0
 69
0
 70
0
 71
0
 72
0
 73
0
 74
0
 75
0
 76
0
 77
1
 78
8
 79
0
170
0
171
3
172
1
173
0
174
0
175
0
176
0
177
0
178
0
179
0
271
2
272
2
273
2
274
3
275
0
276
0
277
2
278
46
279
2
280
0
281
0
282
0
283
0
284
8
285
0
286
0
288
1
289
3
290
0
340
4A
371
-2
372
-2
  0
DIMSTYLE
105
81
330
4
100
AcDbSymbolTableRecord
100
AcDbDimStyleTableRecord
  2
EZ_RADIUS
 70
0
 40
1.0
 41
0.25
 42
0.125
 43
3.75
 44
0.375
 45
0.0
 46
0.0
 47
0.0
 48
0.0
 49
2.5
140
0.25
141
0.0
142
0.0
143
0.03937007874
144
100.0
145
0.0
146
1.0
147
0.1
148
0.0
 69
0
 70
0
 71
0
 72
0
 73
0
 74
0
 75
0
 76
0
 77
1
 78
8
 79
0
170
0
171
3
172
0
173
0
174
0
175
0
176
0
177
0
178
0
179
0
271
2
272
2
273
2
274
3
275
0
276
0
277
2
278
46
279
1
280
0
281
0
282
0
283
0
284
8
285
0
286
0
288
1
289
3
290
0
340
4A
342
82
371
-2
372
-2
  0
DIMSTYLE
105
86
330
4
100
AcDbSymbolTableRecord
100
AcDbDimStyleTableRecord
  2
EZ_RADIUS_INSIDE
 70
0
 40
1.0
 41
0.25
 42
0.125
 43
3.75
 44
0.375
 45
0.0
 46
0.0
 47
0.0
 48
0.0
 49
2.5
140
0.25
141
0.0
142
0.0
143
0.03937007874
144
100.0
145
0.0
146
1.0
147
0.1
148
0.0
 69
0
 70
0
 71
0
 72
0
 73
0
 74
0
 75
0
 76
0
 77
0
 78
8
 79
0
170
0
171
3
172
0
173
0
174
1
175
0
176
0
177
0
178
0
179
0
271
2
272
2
273
2
274
3
275
0
276
0
277
2
278
46
279
0
280
0
281
0
282
0
283
0
284
8
285
0
286
0
288
1
289
0
290
0
340
4A
342
82
371
-2
372
-2
  0
ENDTAB
  0
TABLE
  2
BLOCK_RECORD
  5
9
330
0
100
AcDbSymbolTable
 70
5
  0
BLOCK_RECORD
  5
17
330
9
100
AcDbSymbolTableRecord
100
AcDbBlockTableRecord
  2
*Model_Space
340
1A
 70
0
280
1
281
0
  0
BLOCK_RECORD
  5
1B
330
9
100
AcDbSymbolTableRecord
100
AcDbBlockTableRecord
  2
*Paper_Space
340
1E
 70
0
280
1
281
0
  0
BLOCK_RECORD
  5
72
330
9
100
AcDbSymbolTableRecord
100
AcDbBlockTableRecord
  2
_ARCHTICK
340
0
 70
0
280
1
281
0
  0
BLOCK_RECORD
  5
76
330
9
100
AcDbSymbolTableRecord
100
AcDbBlockTableRecord
  2
_CLOSEDFILLED
340
0
 70
0
280
1
281
0
  0
BLOCK_RECORD
  5
82
330
9
100
AcDbSymbolTableRecord
100
AcDbBlockTableRecord
  2
_CLOSEDBLANK
340
0
 70
0
280
1
281
0
  0
ENDTAB
  0
ENDSEC
  0
SECTION
  2
BLOCKS
  0
BLOCK
  5
18
330
17
100
AcDbEntity
  8
0
100
AcDbBlockBegin
  2
*Model_Space
 70
0
 10
0.0
 20
0.0
 30
0.0
  3
*Model_Space
  1

  0
ENDBLK
  5
19
330
17
100
AcDbEntity
  8
0
100
AcDbBlockEnd
  0
BLOCK
  5
1C
330
1B
100
AcDbEntity
  8
0
100
AcDbBlockBegin
  2
*Paper_Space
 70
0
 10
0.0
 20
0.0
 30
0.0
  3
*Paper_Space
  1

  0
ENDBLK
  5
1D
330
1B
100
AcDbEntity
  8
0
100
AcDbBlockEnd
  0
BLOCK
  5
73
330
72
100
AcDbEntity
  8
0
100
AcDbBlockBegin
  2
_ARCHTICK
 70
0
 10
0.0
 20
0.0
 30
0.0
  3
_ARCHTICK
  1

  0
LWPOLYLINE
  5
75
330
72
100
AcDbEntity
  8
0
  6
BYBLOCK
 62
0
100
AcDbPolyline
 90
2
 70
0
 43
0.15
 10
-0.5
 20
-0.5000000000000001
 10
0.5000000000000001
 20
0.5
  0
ENDBLK
  5
74
330
72
100
AcDbEntity
  8
0
100
AcDbBlockEnd
  0
BLOCK
  5
77
330
76
100
AcDbEntity
  8
0
100
AcDbBlockBegin
  2
_CLOSEDFILLED
 70
0
 10
0.0
 20
0.0
 30
0.0
  3
_CLOSEDFILLED
  1

  0
SOLID
  5
79
330
76
100
AcDbEntity
  8
0
  6
BYBLOCK
 62
0
100
AcDbTrace
 10
-1.0
 20
0.1643989837240255
 30
0.0
 11
0.0
 21
0.0
 31
0.0
 12
-1.0
 22
-0.1643989837240255
 32
0.0
 13
-1.0
 23
-0.1643989837240255
 33
0.0
  0
ENDBLK
  5
78
330
76
100
AcDbEntity
  8
0
100
AcDbBlockEnd
  0
BLOCK
  5
83
330
82
100
AcDbEntity
  8
0
100
AcDbBlockBegin
  2
_CLOSEDBLANK
 70
0
 10
0.0
 20
0.0
 30
0.0
  3
_CLOSEDBLANK
  1

  0
LWPOLYLINE
  5
85
330
82
100
AcDbEntity
  8
0
  6
BYBLOCK
 62
0
100
AcDbPolyline
 90
3
 70
1
 10
-1.0
 20
0.1643989837240255
 10
0.0
 20
0.0
 10
-1.0
 20
-0.1643989837240255
  0
ENDBLK
  5
84
330
82
100
AcDbEntity
  8
0
100
AcDbBlockEnd
  0
ENDSEC
  0
SECTION
  2
ENTITIES
  0
HATCH
  5
88
330
17
100
AcDbEntity
  8
0
 62
7
100
AcDbHatch
 10
0.0
 20
0.0
 30
0.0
210
0.0
220
0.0
230
1.0
  2
SOLID
 70
1
 71
0
 91
1
 92
3
 72
0
 73
1
 93
7
 10
0.0
 20
216.0
 10
10.0
 20
216.0
 10
10.0
 20
211.0
 10
5.0
 20
211.0
 10
5.0
 20
206.0
 10
0.0
 20
206.0
 10
0.0
 20
216.0
 97
0
 75
0
 76
1
 98
0
  0
HATCH
  5
89
330
17
100
AcDbEntity
  8
0
 62
7
100
AcDbHatch
 10
0.0
 20
0.0
 30
0.0
210
0.0
220
0.0
230
1.0
  2
SOLID
 70
1
 71
0
 91
1
 92
3
 72
0
 73
1
 93
7
 10
279.0
 20
216.0
 10
269.0
 20
216.0
 10
269.0
 20
211.0
 10
274.0
 20
211.0
 10
274.0
 20
206.0
 10
279.0
 20
206.0
 10
279.0
 20
216.0
 97
0
 75
0
 76
1
 98
0
  0
HATCH
  5
8A
330
17
100
AcDbEntity
  8
0
 62
7
100
AcDbHatch
 10
0.0
 20
0.0
 30
0.0
210
0.0
220
0.0
230
1.0
  2
SOLID
 70
1
 71
0
 91
1
 92
3
 72
0
 73
1
 93
7
 10
279.0
 20
0.0
 10
269.0
 20
0.0
 10
269.0
 20
5.0
 10
274.0
 20
5.0
 10
274.0
 20
10.0
 10
279.0
 20
10.0
 10
279.0
 20
0.0
 97
0
 75
0
 76
1
 98
0
  0
HATCH
  5
8B
330
17
100
AcDbEntity
  8
0
 62
7
100
AcDbHatch
 10
0.0
 20
0.0
 30
0.0
210
0.0
220
0.0
230
1.0
  2
SOLID
 70
1
 71
0
 91
1
 92
3
 72
0
 73
1
 93
7
 10
0.0
 20
0.0
 10
10.0
 20
0.0
 10
10.0
 20
5.0
 10
5.0
 20
5.0
 10
5.0
 20
10.0
 10
0.0
 20
10.0
 10
0.0
 20
0.0
 97
0
 75
0
 76
1
 98
0
  0
LINE
  5
8C
330
17
100
AcDbEntity
  8
0
 62
7
370
35
100
AcDbLine
 10
0.0
 20
216.0
 30
0.0
 11
0.0
 21
0.0
 31
0.0
  0
LINE
  5
8D
330
17
100
AcDbEntity
  8
0
 62
7
370
35
100
AcDbLine
 10
0.0
 20
0.0
 30
0.0
 11
279.0
 21
0.0
 31
0.0
  0
LINE
  5
8E
330
17
100
AcDbEntity
  8
0
 62
7
370
35
100
AcDbLine
 10
279.0
 20
0.0
 30
0.0
 11
279.0
 21
216.0
 31
0.0
  0
LINE
  5
8F
330
17
100
AcDbEntity
  8
0
 62
7
370
35
100
AcDbLine
 10
279.0
 20
216.0
 30
0.0
 11
0.0
 21
216.0
 31
0.0
  0
LINE
  5
90
330
17
100
AcDbEntity
  8
0
 62
7
370
35
100
AcDbLine
 10
15.0
 20
211.0
 30
0.0
 11
15.0
 21
5.0
 31
0.0
  0
LINE
  5
91
330
17
100
AcDbEntity
  8
0
 62
7
370
35
100
AcDbLine
 10
15.0
 20
5.0
 30
0.0
 11
274.0
 21
5.0
 31
0.0
  0
LINE
  5
92
330
17
100
AcDbEntity
  8
0
 62
7
370
35
100
AcDbLine
 10
274.0
 20
5.0
 30
0.0
 11
274.0
 21
211.0
 31
0.0
  0
LINE
  5
93
330
17
100
AcDbEntity
  8
0
 62
7
370
35
100
AcDbLine
 10
274.0
 20
211.0
 30
0.0
 11
15.0
 21
211.0
 31
0.0
  0
LINE
  5
94
330
17
100
AcDbEntity
  8
0
 62
7
370
70
100
AcDbLine
 10
20.0
 20
206.0
 30
0.0
 11
20.0
 21
10.0
 31
0.0
  0
LINE
  5
95
330
17
100
AcDbEntity
  8
0
 62
7
370
70
100
AcDbLine
 10
20.0
 20
10.0
 30
0.0
 11
269.0
 21
10.0
 31
0.0
  0
LINE
  5
96
330
17
100
AcDbEntity
  8
0
 62
7
370
70
100
AcDbLine
 10
269.0
 20
10.0
 30
0.0
 11
269.0
 21
206.0
 31
0.0
  0
LINE
  5
97
330
17
100
AcDbEntity
  8
0
 62
7
370
70
100
AcDbLine
 10
269.0
 20
206.0
 30
0.0
 11
20.0
 21
206.0
 31
0.0
  0
LINE
  5
98
330
17
100
AcDbEntity
  8
0
 62
7
370
70
100
AcDbLine
 10
139.5
 20
5.0
 30
0.0
 11
139.5
 21
10.0
 31
0.0
  0
LINE
  5
99
330
17
100
AcDbEntity
  8
0
 62
7
370
70
100
AcDbLine
 10
139.5
 20
211.0
 30
0.0
 11
139.5
 21
206.0
 31
0.0
  0
LINE
  5
9A
330
17
100
AcDbEntity
  8
0
 62
7
370
35
100
AcDbLine
 10
89.5
 20
211.0
 30
0.0
 11
89.5
 21
206.0
 31
0.0
  0
LINE
  5
9B
330
17
100
AcDbEntity
  8
0
 62
7
370
35
100
AcDbLine
 10
89.5
 20
5.0
 30
0.0
 11
89.5
 21
10.0
 31
0.0
  0
LINE
  5
9C
330
17
100
AcDbEntity
  8
0
 62
7
370
35
100
AcDbLine
 10
39.5
 20
211.0
 30
0.0
 11
39.5
 21
206.0
 31
0.0
  0
LINE
  5
9D
330
17
100
AcDbEntity
  8
0
 62
7
370
35
100
AcDbLine
 10
39.5
 20
5.0
 30
0.0
 11
39.5
 21
10.0
 31
0.0
  0
LINE
  5
9E
330
17
100
AcDbEntity
  8
0
 62
7
370
35
100
AcDbLine
 10
189.5
 20
211.0
 30
0.0
 11
189.5
 21
206.0
 31
0.0
  0
LINE
  5
9F
330
17
100
AcDbEntity
  8
0
 62
7
370
35
100
AcDbLine
 10
189.5
 20
5.0
 30
0.0
 11
189.5
 21
10.0
 31
0.0
  0
LINE
  5
A0
330
17
100
AcDbEntity
  8
0
 62
7
370
35
100
AcDbLine
 10
239.5
 20
211.0
 30
0.0
 11
239.5
 21
206.0
 31
0.0
  0
LINE
  5
A1
330
17
100
AcDbEntity
  8
0
 62
7
370
35
100
AcDbLine
 10
239.5
 20
5.0
 30
0.0
 11
239.5
 21
10.0
 31
0.0
  0
MTEXT
  5
A2
330
17
100
AcDbEntity
  8
0
 62
7
370
35
100
AcDbMText
 10
64.5
 20
208.25
 30
0.0
 40
3.5
 71
5
  1
1
  7
iso
  0
MTEXT
  5
A3
330
17
100
AcDbEntity
  8
0
 62
7
370
35
100
AcDbMText
 10
114.5
 20
208.25
 30
0.0
 40
3.5
 71
5
  1
2
  7
iso
  0
MTEXT
  5
A4
330
17
100
AcDbEntity
  8
0
 62
7
370
35
100
AcDbMText
 10
164.5
 20
208.25
 30
0.0
 40
3.5
 71
5
  1
3
  7
iso
  0
MTEXT
  5
A5
330
17
100
AcDbEntity
  8
0
 62
7
370
35
100
AcDbMText
 10
214.5
 20
208.25
 30
0.0
 40
3.5
 71
5
  1
4
  7
iso
  0
MTEXT
  5
A6
330
17
100
AcDbEntity
  8
0
 62
7
370
35
100
AcDbMText
 10
264.5
 20
208.25
 30
0.0
 40
3.5
 71
5
  1
5
  7
iso
  0
MTEXT
  5
A7
330
17
100
AcDbEntity
  8
0
 62
7
370
35
100
AcDbMText
 10
254.25
 20
7.25
 30
0.0
 40
3.5
 71
5
  1
ANSI Y14.1 AL (Letter)
  7
iso
  0
LINE
  5
A8
330
17
100
AcDbEntity
  8
0
 62
7
370
70
100
AcDbLine
 10
15.0
 20
108.0
 30
0.0
 11
30.0
 21
108.0
 31
0.0
  0
LINE
  5
A9
330
17
100
AcDbEntity
  8
0
 62
7
370
70
100
AcDbLine
 10
274.0
 20
108.0
 30
0.0
 11
269.0
 21
108.0
 31
0.0
  0
LINE
  5
AA
330
17
100
AcDbEntity
  8
0
 62
7
370
35
100
AcDbLine
 10
15.0
 20
158.0
 30
0.0
 11
20.0
 21
158.0
 31
0.0
  0
LINE
  5
AB
330
17
100
AcDbEntity
  8
0
 62
7
370
35
100
AcDbLine
 10
274.0
 20
158.0
 30
0.0
 11
269.0
 21
158.0
 31
0.0
  0
LINE
  5
AC
330
17
100
AcDbEntity
  8
0
 62
7
370
35
100
AcDbLine
 10
15.0
 20
58.0
 30
0.0
 11
20.0
 21
58.0
 31
0.0
  0
LINE
  5
AD
330
17
100
AcDbEntity
  8
0
 62
7
370
35
100
AcDbLine
 10
274.0
 20
58.0
 30
0.0
 11
269.0
 21
58.0
 31
0.0
  0
MTEXT
  5
AE
330
17
100
AcDbEntity
  8
0
 62
7
370
35
100
AcDbMText
 10
17.25
 20
183.0
 30
0.0
 40
3.5
 71
5
  1
A
  7
iso
  0
MTEXT
  5
AF
330
17
100
AcDbEntity
  8
0
 62
7
370
35
100
AcDbMText
 10
17.25
 20
133.0
 30
0.0
 40
3.5
 71
5
  1
B
  7
iso
  0
MTEXT
  5
B0
330
17
100
AcDbEntity
  8
0
 62
7
370
35
100
AcDbMText
 10
17.25
 20
83.0
 30
0.0
 40
3.5
 71
5
  1
C
  7
iso
  0
MTEXT
  5
B1
330
17
100
AcDbEntity
  8
0
 62
7
370
35
100
AcDbMText
 10
17.25
 20
33.0
 30
0.0
 40
3.5
 71
5
  1
D
  7
iso
  0
LINE
  5
B2
330
17
100
AcDbEntity
  8
0
 62
7
370
70
100
AcDbLine
 10
89.0
 20
98.0
 30
0.0
 11
89.0
 21
10.0
 31
0.0
  0
LINE
  5
B3
330
17
100
AcDbEntity
  8
0
 62
7
370
70
100
AcDbLine
 10
89.0
 20
10.0
 30
0.0
 11
269.0
 21
10.0
 31
0.0
  0
LINE
  5
B4
330
17
100
AcDbEntity
  8
0
 62
7
370
70
100
AcDbLine
 10
269.0
 20
10.0
 30
0.0
 11
269.0
 21
98.0
 31
0.0
  0
LINE
  5
B5
330
17
100
AcDbEntity
  8
0
 62
7
370
70
100
AcDbLine
 10
269.0
 20
98.0
 30
0.0
 11
89.0
 21
98.0
 31
0.0
  0
LINE
  5
B6
330
17
100
AcDbEntity
  8
0
 62
7
370
35
100
AcDbLine
 10
244.0
 20
10.0
 30
0.0
 11
244.0
 21
32.0
 31
0.0
  0
LINE
  5
B7
330
17
100
AcDbEntity
  8
0
 62
7
370
35
100
AcDbLine
 10
229.0
 20
10.0
 30
0.0
 11
229.0
 21
98.0
 31
0.0
  0
LINE
  5
B8
330
17
100
AcDbEntity
  8
0
 62
7
370
35
100
AcDbLine
 10
169.0
 20
10.0
 30
0.0
 11
169.0
 21
98.0
 31
0.0
  0
LINE
  5
B9
330
17
100
AcDbEntity
  8
0
 62
7
370
35
100
AcDbLine
 10
269.0
 20
21.0
 30
0.0
 11
229.0
 21
21.0
 31
0.0
  0
LINE
  5
BA
330
17
100
AcDbEntity
  8
0
 62
7
370
35
100
AcDbLine
 10
269.0
 20
32.0
 30
0.0
 11
229.0
 21
32.0
 31
0.0
  0
LINE
  5
BB
330
17
100
AcDbEntity
  8
0
 62
7
370
35
100
AcDbLine
 10
269.0
 20
43.0
 30
0.0
 11
89.0
 21
43.0
 31
0.0
  0
LINE
  5
BC
330
17
100
AcDbEntity
  8
0
 62
7
370
35
100
AcDbLine
 10
269.0
 20
54.0
 30
0.0
 11
89.0
 21
54.0
 31
0.0
  0
MTEXT
  5
BD
330
17
100
AcDbEntity
  8
0
 62
7
370
35
100
AcDbMText
 10
245.5
 20
17.17999999999998
 30
0.0
 40
1.8
 71
7
  1
Sheet
  7
iso
  0
MTEXT
  5
BE
330
17
100
AcDbEntity
  8
0
 62
7
370
35
100
AcDbMText
 10
245.5
 20
12.429999999999978
 30
0.0
 40
2.5
 71
7
  1
%S/%N
  7
iso
  0
MTEXT
  5
BF
330
17
100
AcDbEntity
  8
0
 62
7
370
35
100
AcDbMText
 10
230.5
 20
17.17999999999998
 30
0.0
 40
1.8
 71
7
  1
Lang.
  7
iso
  0
MTEXT
  5
C0
330
17
100
AcDbEntity
  8
0
 62
7
370
35
100
AcDbMText
 10
230.5
 20
12.429999999999978
 30
0.0
 40
2.5
 71
7
  1
EN
  7
iso
  0
MTEXT
  5
C1
330
17
100
AcDbEntity
  8
0
 62
7
370
35
100
AcDbMText
 10
230.5
 20
28.17999999999998
 30
0.0
 40
1.8
 71
7
  1
Rev.
  7
iso
  0
MTEXT
  5
C2
330
17
100
AcDbEntity
  8
0
 62
7
370
35
100
AcDbMText
 10
230.5
 20
23.42999999999998
 30
0.0
 40
2.5
 71
7
  1
%R
  7
iso
  0
MTEXT
  5
C3
330
17
100
AcDbEntity
  8
0
 62
7
370
35
100
AcDbMText
 10
245.5
 20
28.17999999999998
 30
0.0
 40
1.8
 71
7
  1
Date of issue
  7
iso
  0
MTEXT
  5
C4
330
17
100
AcDbEntity
  8
0
 62
7
370
35
100
AcDbMText
 10
245.5
 20
23.42999999999998
 30
0.0
 40
2.5
 71
7
  1
%D
  7
iso
  0
MTEXT
  5
C5
330
17
100
AcDbEntity
  8
0
 62
7
370
35
100
AcDbMText
 10
230.5
 20
39.17999999999998
 30
0.0
 40
1.8
 71
7
  1
Document number
  7
iso
  0
MTEXT
  5
C6
330
17
100
AcDbEntity
  8
0
 62
7
370
35
100
AcDbMText
 10
230.5
 20
34.42999999999998
 30
0.0
 40
2.5
 71
7
  1
%C6
  7
iso
  0
MTEXT
  5
C7
330
17
100
AcDbEntity
  8
0
 62
7
370
35
100
AcDbMText
 10
170.5
 20
39.17999999999998
 30
0.0
 40
1.8
 71
7
  1
Titel, Supplementary titel
  7
iso
  0
MTEXT
  5
C8
330
17
100
AcDbEntity
  8
0
 62
7
370
35
100
AcDbMText
 10
169.9
 20
35.79999999999998
 30
0.0
 40
5.0
 71
0
  1
%T
  7
iso
  0
MTEXT
  5
C9
330
17
100
AcDbEntity
  8
0
 62
7
370
35
100
AcDbMText
 10
169.9
 20
28.299999999999983
 30
0.0
 40
5.0
 71
0
  1

  7
iso
  0
MTEXT
  5
CA
330
17
100
AcDbEntity
  8
0
 62
7
370
35
100
AcDbMText
 10
169.9
 20
20.799999999999983
 30
0.0
 40
5.0
 71
0
  1

  7
iso
  0
MTEXT
  5
CB
330
17
100
AcDbEntity
  8
0
 62
7
370
35
100
AcDbMText
 10
90.5
 20
39.17999999999998
 30
0.0
 40
1.8
 71
7
  1
Legal owner
  7
iso
  0
MTEXT
  5
CC
330
17
100
AcDbEntity
  8
0
 62
7
370
35
100
AcDbMText
 10
89.9
 20
35.79999999999998
 30
0.0
 40
5.0
 71
0
  1
%Y
  7
iso
  0
MTEXT
  5
CD
330
17
100
AcDbEntity
  8
0
 62
7
370
35
100
AcDbMText
 10
89.9
 20
28.299999999999983
 30
0.0
 40
5.0
 71
0
  1

  7
iso
  0
MTEXT
  5
CE
330
17
100
AcDbEntity
  8
0
 62
7
370
35
100
AcDbMText
 10
89.9
 20
20.799999999999983
 30
0.0
 40
5.0
 71
0
  1

  7
iso
  0
MTEXT
  5
CF
330
17
100
AcDbEntity
  8
0
 62
7
370
35
100
AcDbMText
 10
90.5
 20
50.17999999999998
 30
0.0
 40
1.8
 71
7
  1
Approved by
  7
iso
  0
MTEXT
  5
D0
330
17
100
AcDbEntity
  8
0
 62
7
370
35
100
AcDbMText
 10
90.5
 20
45.42999999999998
 30
0.0
 40
2.5
 71
7
  1
%C1
  7
iso
  0
MTEXT
  5
D1
330
17
100
AcDbEntity
  8
0
 62
7
370
35
100
AcDbMText
 10
170.5
 20
50.17999999999998
 30
0.0
 40
1.8
 71
7
  1
Projekt
  7
iso
  0
MTEXT
  5
D2
330
17
100
AcDbEntity
  8
0
 62
7
370
35
100
AcDbMText
 10
170.5
 20
45.42999999999998
 30
0.0
 40
2.5
 71
7
  1
%C3
  7
iso
  0
MTEXT
  5
D3
330
17
100
AcDbEntity
  8
0
 62
7
370
35
100
AcDbMText
 10
230.5
 20
50.17999999999998
 30
0.0
 40
1.8
 71
7
  1
Document type
  7
iso
  0
MTEXT
  5
D4
330
17
100
AcDbEntity
  8
0
 62
7
370
35
100
AcDbMText
 10
230.5
 20
45.42999999999998
 30
0.0
 40
2.5
 71
7
  1
%C5
  7
iso
  0
MTEXT
  5
D5
330
17
100
AcDbEntity
  8
0
 62
7
370
35
100
AcDbMText
 10
90.5
 20
61.17999999999998
 30
0.0
 40
1.8
 71
7
  1
Created by
  7
iso
  0
MTEXT
  5
D6
330
17
100
AcDbEntity
  8
0
 62
7
370
35
100
AcDbMText
 10
90.5
 20
56.42999999999998
 30
0.0
 40
2.5
 71
7
  1
%C0
  7
iso
  0
MTEXT
  5
D7
330
17
100
AcDbEntity
  8
0
 62
7
370
35
100
AcDbMText
 10
170.5
 20
61.17999999999998
 30
0.0
 40
1.8
 71
7
  1
Valid from to
  7
iso
  0
MTEXT
  5
D8
330
17
100
AcDbEntity
  8
0
 62
7
370
35
100
AcDbMText
 10
170.5
 20
56.42999999999998
 30
0.0
 40
2.5
 71
7
  1
%C2
  7
iso
  0
MTEXT
  5
D9
330
17
100
AcDbEntity
  8
0
 62
7
370
35
100
AcDbMText
 10
230.5
 20
61.17999999999998
 30
0.0
 40
1.8
 71
7
  1
Document state
  7
iso
  0
MTEXT
  5
DA
330
17
100
AcDbEntity
  8
0
 62
7
370
35
100
AcDbMText
 10
230.5
 20
56.42999999999998
 30
0.0
 40
2.5
 71
7
  1
%C4
  7
iso
  0
LINE
  5
DB
330
17
100
AcDbEntity
  8
0
 62
7
370
35
100
AcDbLine
 10
269.0
 20
65.0
 30
0.0
 11
89.0
 21
65.0
 31
0.0
  0
MTEXT
  5
DC
330
17
100
AcDbEntity
  8
0
 62
7
370
35
100
AcDbMText
 10
90.5
 20
72.17999999999998
 30
0.0
 40
1.8
 71
7
  1
A
  7
iso
  0
MTEXT
  5
DD
330
17
100
AcDbEntity
  8
0
 62
7
370
35
100
AcDbMText
 10
90.5
 20
67.42999999999998
 30
0.0
 40
2.5
 71
7
  1
a_value
  7
iso
  0
MTEXT
  5
DE
330
17
100
AcDbEntity
  8
0
 62
7
370
35
100
AcDbMText
 10
170.5
 20
72.17999999999998
 30
0.0
 40
1.8
 71
7
  1
Raw dimensions
  7
iso
  0
MTEXT
  5
DF
330
17
100
AcDbEntity
  8
0
 62
7
370
35
100
AcDbMText
 10
170.5
 20
67.42999999999998
 30
0.0
 40
2.5
 71
7
  1
b_value
  7
iso
  0
MTEXT
  5
E0
330
17
100
AcDbEntity
  8
0
 62
7
370
35
100
AcDbMText
 10
230.5
 20
72.17999999999998
 30
0.0
 40
1.8
 71
7
  1
Scale
  7
iso
  0
MTEXT
  5
E1
330
17
100
AcDbEntity
  8
0
 62
7
370
35
100
AcDbMText
 10
230.5
 20
67.42999999999998
 30
0.0
 40
2.5
 71
7
  1
1:1
  7
iso
  0
LINE
  5
E2
330
17
100
AcDbEntity
  8
0
 62
7
370
35
100
AcDbLine
 10
269.0
 20
76.0
 30
0.0
 11
89.0
 21
76.0
 31
0.0
  0
MTEXT
  5
E3
330
17
100
AcDbEntity
  8
0
 62
7
370
35
100
AcDbMText
 10
90.5
 20
83.17999999999998
 30
0.0
 40
1.8
 71
7
  1
Surface treatment
  7
iso
  0
MTEXT
  5
E4
330
17
100
AcDbEntity
  8
0
 62
7
370
35
100
AcDbMText
 10
90.5
 20
78.42999999999998
 30
0.0
 40
2.5
 71
7
  1
Surface treatment
  7
iso
  0
MTEXT
  5
E5
330
17
100
AcDbEntity
  8
0
 62
7
370
35
100
AcDbMText
 10
170.5
 20
83.17999999999998
 30
0.0
 40
1.8
 71
7
  1
Weight
  7
iso
  0
MTEXT
  5
E6
330
17
100
AcDbEntity
  8
0
 62
7
370
35
100
AcDbMText
 10
170.5
 20
78.42999999999998
 30
0.0
 40
2.5
 71
7
  1
Weight
  7
iso
  0
MTEXT
  5
E7
330
17
100
AcDbEntity
  8
0
 62
7
370
35
100
AcDbMText
 10
230.5
 20
83.17999999999998
 30
0.0
 40
1.8
 71
7
  1
Standard
  7
iso
  0
MTEXT
  5
E8
330
17
100
AcDbEntity
  8
0
 62
7
370
35
100
AcDbMText
 10
230.5
 20
78.42999999999998
 30
0.0
 40
2.5
 71
7
  1
Standard
  7
iso
  0
LINE
  5
E9
330
17
100
AcDbEntity
  8
0
 62
7
370
35
100
AcDbLine
 10
269.0
 20
87.0
 30
0.0
 11
89.0
 21
87.0
 31
0.0
  0
MTEXT
  5
EA
330
17
100
AcDbEntity
  8
0
 62
7
370
35
100
AcDbMText
 10
90.5
 20
94.17999999999999
 30
0.0
 40
1.8
 71
7
  1
Option G
  7
iso
  0
MTEXT
  5
EB
330
17
100
AcDbEntity
  8
0
 62
7
370
35
100
AcDbMText
 10
90.5
 20
89.42999999999999
 30
0.0
 40
2.5
 71
7
  1
Option G Value
  7
iso
  0
MTEXT
  5
EC
330
17
100
AcDbEntity
  8
0
 62
7
370
35
100
AcDbMText
 10
170.5
 20
94.17999999999999
 30
0.0
 40
1.8
 71
7
  1
Option H
  7
iso
  0
MTEXT
  5
ED
330
17
100
AcDbEntity
  8
0
 62
7
370
35
100
AcDbMText
 10
170.5
 20
89.42999999999999
 30
0.0
 40
2.5
 71
7
  1
Option H Value
  7
iso
  0
MTEXT
  5
EE
330
17
100
AcDbEntity
  8
0
 62
7
370
35
100
AcDbMText
 10
230.5
 20
94.17999999999999
 30
0.0
 40
1.8
 71
7
  1
Option I
  7
iso
  0
MTEXT
  5
EF
330
17
100
AcDbEntity
  8
0
 62
7
370
35
100
AcDbMText
 10
230.5
 20
89.42999999999999
 30
0.0
 40
2.5
 71
7
  1
Option I Value
  7
iso
  0
LINE
  5
F0
330
17
100
AcDbEntity
  8
0
 62
7
370
70
100
AcDbLine
 10
89.0
 20
206.0
 30
0.0
 11
89.0
 21
151.0
 31
0.0
  0
LINE
  5
F1
330
17
100
AcDbEntity
  8
0
 62
7
370
70
100
AcDbLine
 10
89.0
 20
151.0
 30
0.0
 11
269.0
 21
151.0
 31
0.0
  0
LINE
  5
F2
330
17
100
AcDbEntity
  8
0
 62
7
370
70
100
AcDbLine
 10
269.0
 20
151.0
 30
0.0
 11
269.0
 21
206.0
 31
0.0
  0
LINE
  5
F3
330
17
100
AcDbEntity
  8
0
 62
7
370
70
100
AcDbLine
 10
269.0
 20
206.0
 30
0.0
 11
89.0
 21
206.0
 31
0.0
  0
LINE
  5
F4
330
17
100
AcDbEntity
  8
0
 62
7
370
35
100
AcDbLine
 10
89.0
 20
201.0
 30
0.0
 11
269.0
 21
201.0
 31
0.0
  0
LINE
  5
F5
330
17
100
AcDbEntity
  8
0
 62
7
370
70
100
AcDbLine
 10
89.0
 20
196.0
 30
0.0
 11
269.0
 21
196.0
 31
0.0
  0
LINE
  5
F6
330
17
100
AcDbEntity
  8
0
 62
7
370
35
100
AcDbLine
 10
104.0
 20
201.0
 30
0.0
 11
104.0
 21
151.0
 31
0.0
  0
LINE
  5
F7
330
17
100
AcDbEntity
  8
0
 62
7
370
35
100
AcDbLine
 10
124.0
 20
201.0
 30
0.0
 11
124.0
 21
151.0
 31
0.0
  0
LINE
  5
F8
330
17
100
AcDbEntity
  8
0
 62
7
370
35
100
AcDbLine
 10
219.0
 20
201.0
 30
0.0
 11
219.0
 21
151.0
 31
0.0
  0
LINE
  5
F9
330
17
100
AcDbEntity
  8
0
 62
7
370
35
100
AcDbLine
 10
239.0
 20
201.0
 30
0.0
 11
239.0
 21
151.0
 31
0.0
  0
MTEXT
  5
FA
330
17
100
AcDbEntity
  8
0
 62
7
370
35
100
AcDbMText
 10
179.0
 20
203.25
 30
0.0
 40
1.8
 71
5
  1
Revision History
  7
iso
  0
MTEXT
  5
FB
330
17
100
AcDbEntity
  8
0
 62
7
370
35
100
AcDbMText
 10
96.5
 20
198.25
 30
0.0
 40
1.8
 71
5
  1
Zone
  7
iso
  0
MTEXT
  5
FC
330
17
100
AcDbEntity
  8
0
 62
7
370
35
100
AcDbMText
 10
114.0
 20
198.25
 30
0.0
 40
1.8
 71
5
  1
Rev.
  7
iso
  0
MTEXT
  5
FD
330
17
100
AcDbEntity
  8
0
 62
7
370
35
100
AcDbMText
 10
171.5
 20
198.25
 30
0.0
 40
1.8
 71
5
  1
Description
  7
iso
  0
MTEXT
  5
FE
330
17
100
AcDbEntity
  8
0
 62
7
370
35
100
AcDbMText
 10
229.0
 20
198.25
 30
0.0
 40
1.8
 71
5
  1
Date
  7
iso
  0
MTEXT
  5
FF
330
17
100
AcDbEntity
  8
0
 62
7
370
35
100
AcDbMText
 10
254.0
 20
198.25
 30
0.0
 40
1.8
 71
5
  1
Created by
  7
iso
  0
LINE
  5
100
330
17
100
AcDbEntity
  8
0
 62
7
370
35
100
AcDbLine
 10
89.0
 20
196.0
 30
0.0
 11
269.0
 21
196.0
 31
0.0
  0
MTEXT
  5
101
330
17
100
AcDbEntity
  8
0
 62
7
370
35
100
AcDbMText
 10
96.5
 20
183.25
 30
0.0
 40
1.8
 71
5
  1
ZoneA
  7
iso
  0
MTEXT
  5
102
330
17
100
AcDbEntity
  8
0
 62
7
370
35
100
AcDbMText
 10
114.0
 20
183.25
 30
0.0
 40
1.8
 71
5
  1
Rev.A
  7
iso
  0
MTEXT
  5
103
330
17
100
AcDbEntity
  8
0
 62
7
370
35
100
AcDbMText
 10
171.5
 20
183.25
 30
0.0
 40
1.8
 71
5
  1
DescriptionA
  7
iso
  0
MTEXT
  5
104
330
17
100
AcDbEntity
  8
0
 62
7
370
35
100
AcDbMText
 10
229.0
 20
183.25
 30
0.0
 40
1.8
 71
5
  1
DateA
  7
iso
  0
MTEXT
  5
105
330
17
100
AcDbEntity
  8
0
 62
7
370
35
100
AcDbMText
 10
254.0
 20
183.25
 30
0.0
 40
1.8
 71
5
  1
Created byA
  7
iso
  0
MTEXT
  5
106
330
17
100
AcDbEntity
  8
0
 62
7
370
35
100
AcDbMText
 10
96.5
 20
188.0
 30
0.0
 40
1.8
 71
5
  1
ZoneB
  7
iso
  0
MTEXT
  5
107
330
17
100
AcDbEntity
  8
0
 62
7
370
35
100
AcDbMText
 10
114.0
 20
188.0
 30
0.0
 40
1.8
 71
5
  1
Rev.B
  7
iso
  0
MTEXT
  5
108
330
17
100
AcDbEntity
  8
0
 62
7
370
35
100
AcDbMText
 10
171.5
 20
188.0
 30
0.0
 40
1.8
 71
5
  1
DescriptionB
  7
iso
  0
MTEXT
  5
109
330
17
100
AcDbEntity
  8
0
 62
7
370
35
100
AcDbMText
 10
229.0
 20
188.0
 30
0.0
 40
1.8
 71
5
  1
DateB
  7
iso
  0
MTEXT
  5
10A
330
17
100
AcDbEntity
  8
0
 62
7
370
35
100
AcDbMText
 10
254.0
 20
188.0
 30
0.0
 40
1.8
 71
5
  1
Created byB
  7
iso
  0
MTEXT
  5
10B
330
17
100
AcDbEntity
  8
0
 62
7
370
35
100
AcDbMText
 10
96.5
 20
192.75
 30
0.0
 40
1.8
 71
5
  1
ZoneC
  7
iso
  0
MTEXT
  5
10C
330
17
100
AcDbEntity
  8
0
 62
7
370
35
100
AcDbMText
 10
114.0
 20
192.75
 30
0.0
 40
1.8
 71
5
  1
Rev.C
  7
iso
  0
MTEXT
  5
10D
330
17
100
AcDbEntity
  8
0
 62
7
370
35
100
AcDbMText
 10
171.5
 20
192.75
 30
0.0
 40
1.8
 71
5
  1
DescriptionC
  7
iso
  0
MTEXT
  5
10E
330
17
100
AcDbEntity
  8
0
 62
7
370
35
100
AcDbMText
 10
229.0
 20
192.75
 30
0.0
 40
1.8
 71
5
  1
DateC
  7
iso
  0
MTEXT
  5
10F
330
17
100
AcDbEntity
  8
0
 62
7
370
35
100
AcDbMText
 10
254.0
 20
192.75
 30
0.0
 40
1.8
 71
5
  1
Created byC
  7
iso
  0
LINE
  5
110
330
17
100
AcDbEntity
  8
0
 62
7
370
35
100
AcDbLine
 10
89.0
 20
181.0
 30
0.0
 11
269.0
 21
181.0
 31
0.0
  0
MTEXT
  5
111
330
17
100
AcDbEntity
  8
0
 62
7
370
35
100
AcDbMText
 10
96.5
 20
168.25
 30
0.0
 40
1.8
 71
5
  1
ZoneA
  7
iso
  0
MTEXT
  5
112
330
17
100
AcDbEntity
  8
0
 62
7
370
35
100
AcDbMText
 10
114.0
 20
168.25
 30
0.0
 40
1.8
 71
5
  1
Rev.A
  7
iso
  0
MTEXT
  5
113
330
17
100
AcDbEntity
  8
0
 62
7
370
35
100
AcDbMText
 10
171.5
 20
168.25
 30
0.0
 40
1.8
 71
5
  1
DescriptionA
  7
iso
  0
MTEXT
  5
114
330
17
100
AcDbEntity
  8
0
 62
7
370
35
100
AcDbMText
 10
229.0
 20
168.25
 30
0.0
 40
1.8
 71
5
  1
DateA
  7
iso
  0
MTEXT
  5
115
330
17
100
AcDbEntity
  8
0
 62
7
370
35
100
AcDbMText
 10
254.0
 20
168.25
 30
0.0
 40
1.8
 71
5
  1
Created byA
  7
iso
  0
MTEXT
  5
116
330
17
100
AcDbEntity
  8
0
 62
7
370
35
100
AcDbMText
 10
96.5
 20
173.0
 30
0.0
 40
1.8
 71
5
  1
ZoneB
  7
iso
  0
MTEXT
  5
117
330
17
100
AcDbEntity
  8
0
 62
7
370
35
100
AcDbMText
 10
114.0
 20
173.0
 30
0.0
 40
1.8
 71
5
  1
Rev.B
  7
iso
  0
MTEXT
  5
118
330
17
100
AcDbEntity
  8
0
 62
7
370
35
100
AcDbMText
 10
171.5
 20
173.0
 30
0.0
 40
1.8
 71
5
  1
DescriptionB
  7
iso
  0
MTEXT
  5
119
330
17
100
AcDbEntity
  8
0
 62
7
370
35
100
AcDbMText
 10
229.0
 20
173.0
 30
0.0
 40
1.8
 71
5
  1
DateB
  7
iso
  0
MTEXT
  5
11A
330
17
100
AcDbEntity
  8
0
 62
7
370
35
100
AcDbMText
 10
254.0
 20
173.0
 30
0.0
 40
1.8
 71
5
  1
Created byB
  7
iso
  0
MTEXT
  5
11B
330
17
100
AcDbEntity
  8
0
 62
7
370
35
100
AcDbMText
 10
96.5
 20
177.75
 30
0.0
 40
1.8
 71
5
  1
ZoneC
  7
iso
  0
MTEXT
  5
11C
330
17
100
AcDbEntity
  8
0
 62
7
370
35
100
AcDbMText
 10
114.0
 20
177.75
 30
0.0
 40
1.8
 71
5
  1
Rev.C
  7
iso
  0
MTEXT
  5
11D
330
17
100
AcDbEntity
  8
0
 62
7
370
35
100
AcDbMText
 10
171.5
 20
177.75
 30
0.0
 40
1.8
 71
5
  1
DescriptionC
  7
iso
  0
MTEXT
  5
11E
330
17
100
AcDbEntity
  8
0
 62
7
370
35
100
AcDbMText
 10
229.0
 20
177.75
 30
0.0
 40
1.8
 71
5
  1
DateC
  7
iso
  0
MTEXT
  5
11F
330
17
100
AcDbEntity
  8
0
 62
7
370
35
100
AcDbMText
 10
254.0
 20
177.75
 30
0.0
 40
1.8
 71
5
  1
Created byC
  7
iso
  0
LINE
  5
120
330
17
100
AcDbEntity
  8
0
 62
7
370
35
100
AcDbLine
 10
89.0
 20
166.0
 30
0.0
 11
269.0
 21
166.0
 31
0.0
  0
MTEXT
  5
121
330
17
100
AcDbEntity
  8
0
 62
7
370
35
100
AcDbMText
 10
96.5
 20
153.25
 30
0.0
 40
1.8
 71
5
  1
ZoneA
  7
iso
  0
MTEXT
  5
122
330
17
100
AcDbEntity
  8
0
 62
7
370
35
100
AcDbMText
 10
114.0
 20
153.25
 30
0.0
 40
1.8
 71
5
  1
Rev.A
  7
iso
  0
MTEXT
  5
123
330
17
100
AcDbEntity
  8
0
 62
7
370
35
100
AcDbMText
 10
171.5
 20
153.25
 30
0.0
 40
1.8
 71
5
  1
DescriptionA
  7
iso
  0
MTEXT
  5
124
330
17
100
AcDbEntity
  8
0
 62
7
370
35
100
AcDbMText
 10
229.0
 20
153.25
 30
0.0
 40
1.8
 71
5
  1
DateA
  7
iso
  0
MTEXT
  5
125
330
17
100
AcDbEntity
  8
0
 62
7
370
35
100
AcDbMText
 10
254.0
 20
153.25
 30
0.0
 40
1.8
 71
5
  1
Created byA
  7
iso
  0
MTEXT
  5
126
330
17
100
AcDbEntity
  8
0
 62
7
370
35
100
AcDbMText
 10
96.5
 20
158.0
 30
0.0
 40
1.8
 71
5
  1
ZoneB
  7
iso
  0
MTEXT
  5
127
330
17
100
AcDbEntity
  8
0
 62
7
370
35
100
AcDbMText
 10
114.0
 20
158.0
 30
0.0
 40
1.8
 71
5
  1
Rev.B
  7
iso
  0
MTEXT
  5
128
330
17
100
AcDbEntity
  8
0
 62
7
370
35
100
AcDbMText
 10
171.5
 20
158.0
 30
0.0
 40
1.8
 71
5
  1
DescriptionB
  7
iso
  0
MTEXT
  5
129
330
17
100
AcDbEntity
  8
0
 62
7
370
35
100
AcDbMText
 10
229.0
 20
158.0
 30
0.0
 40
1.8
 71
5
  1
DateB
  7
iso
  0
MTEXT
  5
12A
330
17
100
AcDbEntity
  8
0
 62
7
370
35
100
AcDbMText
 10
254.0
 20
158.0
 30
0.0
 40
1.8
 71
5
  1
Created byB
  7
iso
  0
MTEXT
  5
12B
330
17
100
AcDbEntity
  8
0
 62
7
370
35
100
AcDbMText
 10
96.5
 20
162.75
 30
0.0
 40
1.8
 71
5
  1
ZoneC
  7
iso
  0
MTEXT
  5
12C
330
17
100
AcDbEntity
  8
0
 62
7
370
35
100
AcDbMText
 10
114.0
 20
162.75
 30
0.0
 40
1.8
 71
5
  1
Rev.C
  7
iso
  0
MTEXT
  5
12D
330
17
100
AcDbEntity
  8
0
 62
7
370
35
100
AcDbMText
 10
171.5
 20
162.75
 30
0.0
 40
1.8
 71
5
  1
DescriptionC
  7
iso
  0
MTEXT
  5
12E
330
17
100
AcDbEntity
  8
0
 62
7
370
35
100
AcDbMText
 10
229.0
 20
162.75
 30
0.0
 40
1.8
 71
5
  1
DateC
  7
iso
  0
MTEXT
  5
12F
330
17
100
AcDbEntity
  8
0
 62
7
370
35
100
AcDbMText
 10
254.0
 20
162.75
 30
0.0
 40
1.8
 71
5
  1
Created byC
  7
iso
  0
LINE
  5
130
330
17
100
AcDbEntity
  8
0
 62
7
370
70
100
AcDbLine
 10
89.0
 20
141.0
 30
0.0
 11
89.0
 21
98.0
 31
0.0
  0
LINE
  5
131
330
17
100
AcDbEntity
  8
0
 62
7
370
70
100
AcDbLine
 10
89.0
 20
98.0
 30
0.0
 11
269.0
 21
98.0
 31
0.0
  0
LINE
  5
132
330
17
100
AcDbEntity
  8
0
 62
7
370
70
100
AcDbLine
 10
269.0
 20
98.0
 30
0.0
 11
269.0
 21
141.0
 31
0.0
  0
LINE
  5
133
330
17
100
AcDbEntity
  8
0
 62
7
370
70
100
AcDbLine
 10
269.0
 20
141.0
 30
0.0
 11
89.0
 21
141.0
 31
0.0
  0
LINE
  5
134
330
17
100
AcDbEntity
  8
0
 62
7
370
35
100
AcDbLine
 10
89.0
 20
136.0
 30
0.0
 11
269.0
 21
136.0
 31
0.0
  0
MTEXT
  5
135
330
17
100
AcDbEntity
  8
0
 62
7
370
35
100
AcDbMText
 10
96.5
 20
138.25
 30
0.0
 40
1.8
 71
5
  1
1
  7
iso
  0
MTEXT
  5
136
330
17
100
AcDbEntity
  8
0
 62
7
370
35
100
AcDbMText
 10
114.0
 20
138.25
 30
0.0
 40
1.8
 71
5
  1
2
  7
iso
  0
MTEXT
  5
137
330
17
100
AcDbEntity
  8
0
 62
7
370
35
100
AcDbMText
 10
131.5
 20
138.25
 30
0.0
 40
1.8
 71
5
  1
3
  7
iso
  0
MTEXT
  5
138
330
17
100
AcDbEntity
  8
0
 62
7
370
35
100
AcDbMText
 10
169.0
 20
138.25
 30
0.0
 40
1.8
 71
5
  1
4
  7
iso
  0
MTEXT
  5
139
330
17
100
AcDbEntity
  8
0
 62
7
370
35
100
AcDbMText
 10
216.5
 20
138.25
 30
0.0
 40
1.8
 71
5
  1
5
  7
iso
  0
MTEXT
  5
13A
330
17
100
AcDbEntity
  8
0
 62
7
370
35
100
AcDbMText
 10
251.5
 20
138.25
 30
0.0
 40
1.8
 71
5
  1
6
  7
iso
  0
MTEXT
  5
13B
330
17
100
AcDbEntity
  8
0
 62
7
370
35
100
AcDbMText
 10
96.5
 20
133.25
 30
0.0
 40
1.8
 71
5
  1
Pos.
  7
iso
  0
MTEXT
  5
13C
330
17
100
AcDbEntity
  8
0
 62
7
370
35
100
AcDbMText
 10
114.0
 20
133.25
 30
0.0
 40
1.8
 71
5
  1
Qty.
  7
iso
  0
MTEXT
  5
13D
330
17
100
AcDbEntity
  8
0
 62
7
370
35
100
AcDbMText
 10
131.5
 20
133.25
 30
0.0
 40
1.8
 71
5
  1
Unit
  7
iso
  0
MTEXT
  5
13E
330
17
100
AcDbEntity
  8
0
 62
7
370
35
100
AcDbMText
 10
169.0
 20
133.25
 30
0.0
 40
1.8
 71
5
  1
Titel
  7
iso
  0
MTEXT
  5
13F
330
17
100
AcDbEntity
  8
0
 62
7
370
35
100
AcDbMText
 10
216.5
 20
133.25
 30
0.0
 40
1.8
 71
5
  1
Doc. number
  7
iso
  0
MTEXT
  5
140
330
17
100
AcDbEntity
  8
0
 62
7
370
35
100
AcDbMText
 10
251.5
 20
133.25
 30
0.0
 40
1.8
 71
5
  1
Comment
  7
iso
  0
LINE
  5
141
330
17
100
AcDbEntity
  8
0
 62
7
370
35
100
AcDbLine
 10
89.0
 20
108.0
 30
0.0
 11
269.0
 21
108.0
 31
0.0
  0
MTEXT
  5
142
330
17
100
AcDbEntity
  8
0
 62
7
370
35
100
AcDbMText
 10
96.5
 20
102.5
 30
0.0
 40
2.5
 71
5
  1
Pos.0A
  7
iso
  0
MTEXT
  5
143
330
17
100
AcDbEntity
  8
0
 62
7
370
35
100
AcDbMText
 10
114.0
 20
102.5
 30
0.0
 40
2.5
 71
5
  1
Qty.0A
  7
iso
  0
MTEXT
  5
144
330
17
100
AcDbEntity
  8
0
 62
7
370
35
100
AcDbMText
 10
131.5
 20
102.5
 30
0.0
 40
2.5
 71
5
  1
Unit0A
  7
iso
  0
MTEXT
  5
145
330
17
100
AcDbEntity
  8
0
 62
7
370
35
100
AcDbMText
 10
169.0
 20
102.5
 30
0.0
 40
2.5
 71
5
  1
Titel0A
  7
iso
  0
MTEXT
  5
146
330
17
100
AcDbEntity
  8
0
 62
7
370
35
100
AcDbMText
 10
216.5
 20
102.5
 30
0.0
 40
2.5
 71
5
  1
Doc. number0A
  7
iso
  0
MTEXT
  5
147
330
17
100
AcDbEntity
  8
0
 62
7
370
35
100
AcDbMText
 10
251.5
 20
102.5
 30
0.0
 40
2.5
 71
5
  1
Comment0A
  7
iso
  0
LINE
  5
148
330
17
100
AcDbEntity
  8
0
 62
7
370
35
100
AcDbLine
 10
89.0
 20
119.0
 30
0.0
 11
269.0
 21
119.0
 31
0.0
  0
MTEXT
  5
149
330
17
100
AcDbEntity
  8
0
 62
7
370
35
100
AcDbMText
 10
96.5
 20
113.5
 30
0.0
 40
2.5
 71
5
  1
Pos.1A
  7
iso
  0
MTEXT
  5
14A
330
17
100
AcDbEntity
  8
0
 62
7
370
35
100
AcDbMText
 10
114.0
 20
113.5
 30
0.0
 40
2.5
 71
5
  1
Qty.1A
  7
iso
  0
MTEXT
  5
14B
330
17
100
AcDbEntity
  8
0
 62
7
370
35
100
AcDbMText
 10
131.5
 20
113.5
 30
0.0
 40
2.5
 71
5
  1
Unit1A
  7
iso
  0
MTEXT
  5
14C
330
17
100
AcDbEntity
  8
0
 62
7
370
35
100
AcDbMText
 10
169.0
 20
113.5
 30
0.0
 40
2.5
 71
5
  1
Titel1A
  7
iso
  0
MTEXT
  5
14D
330
17
100
AcDbEntity
  8
0
 62
7
370
35
100
AcDbMText
 10
216.5
 20
113.5
 30
0.0
 40
2.5
 71
5
  1
Doc. number1A
  7
iso
  0
MTEXT
  5
14E
330
17
100
AcDbEntity
  8
0
 62
7
370
35
100
AcDbMText
 10
251.5
 20
113.5
 30
0.0
 40
2.5
 71
5
  1
Comment1A
  7
iso
  0
LINE
  5
14F
330
17
100
AcDbEntity
  8
0
 62
7
370
70
100
AcDbLine
 10
89.0
 20
130.0
 30
0.0
 11
269.0
 21
130.0
 31
0.0
  0
MTEXT
  5
150
330
17
100
AcDbEntity
  8
0
 62
7
370
35
100
AcDbMText
 10
96.5
 20
124.5
 30
0.0
 40
2.5
 71
5
  1
Pos.2A
  7
iso
  0
MTEXT
  5
151
330
17
100
AcDbEntity
  8
0
 62
7
370
35
100
AcDbMText
 10
114.0
 20
124.5
 30
0.0
 40
2.5
 71
5
  1
Qty.2A
  7
iso
  0
MTEXT
  5
152
330
17
100
AcDbEntity
  8
0
 62
7
370
35
100
AcDbMText
 10
131.5
 20
124.5
 30
0.0
 40
2.5
 71
5
  1
Unit2A
  7
iso
  0
MTEXT
  5
153
330
17
100
AcDbEntity
  8
0
 62
7
370
35
100
AcDbMText
 10
169.0
 20
124.5
 30
0.0
 40
2.5
 71
5
  1
Titel2A
  7
iso
  0
MTEXT
  5
154
330
17
100
AcDbEntity
  8
0
 62
7
370
35
100
AcDbMText
 10
216.5
 20
124.5
 30
0.0
 40
2.5
 71
5
  1
Doc. number2A
  7
iso
  0
MTEXT
  5
155
330
17
100
AcDbEntity
  8
0
 62
7
370
35
100
AcDbMText
 10
251.5
 20
124.5
 30
0.0
 40
2.5
 71
5
  1
Comment2A
  7
iso
  0
LINE
  5
156
330
17
100
AcDbEntity
  8
0
 62
7
370
35
100
AcDbLine
 10
104.0
 20
141.0
 30
0.0
 11
104.0
 21
98.0
 31
0.0
  0
LINE
  5
157
330
17
100
AcDbEntity
  8
0
 62
7
370
35
100
AcDbLine
 10
124.0
 20
141.0
 30
0.0
 11
124.0
 21
98.0
 31
0.0
  0
LINE
  5
158
330
17
100
AcDbEntity
  8
0
 62
7
370
35
100
AcDbLine
 10
139.0
 20
141.0
 30
0.0
 11
139.0
 21
98.0
 31
0.0
  0
LINE
  5
159
330
17
100
AcDbEntity
  8
0
 62
7
370
35
100
AcDbLine
 10
199.0
 20
141.0
 30
0.0
 11
199.0
 21
98.0
 31
0.0
  0
LINE
  5
15A
330
17
100
AcDbEntity
  8
0
 62
7
370
35
100
AcDbLine
 10
234.0
 20
141.0
 30
0.0
 11
234.0
 21
98.0
 31
0.0
  0
ENDSEC
  0
SECTION
  2
OBJECTS
  0
DICTIONARY
  5
A
330
0
100
AcDbDictionary
281
1
  3
ACAD_COLOR
350
B
  3
ACAD_GROUP
350
C
  3
ACAD_LAYOUT
350
D
  3
ACAD_MATERIAL
350
E
  3
ACAD_MLEADERSTYLE
350
F
  3
ACAD_MLINESTYLE
350
10
  3
ACAD_PLOTSETTINGS
350
11
  3
ACAD_PLOTSTYLENAME
350
12
  3
ACAD_SCALELIST
350
14
  3
ACAD_TABLESTYLE
350
15
  3
ACAD_VISUALSTYLE
350
16
  0
DICTIONARY
  5
B
330
A
100
AcDbDictionary
281
1
  0
DICTIONARY
  5
C
330
A
100
AcDbDictionary
281
1
  0
DICTIONARY
  5
D
330
A
100
AcDbDictionary
281
1
  3
Model
350
1A
  3
Layout1
350
1E
  0
DICTIONARY
  5
E
330
A
100
AcDbDictionary
281
1
  3
ByBlock
350
1F
  3
ByLayer
350
20
  3
Global
350
21
  0
DICTIONARY
  5
F
330
A
100
AcDbDictionary
281
1
  3
Standard
350
2C
  0
DICTIONARY
  5
10
330
A
100
AcDbDictionary
281
1
  3
Standard
350
22
  0
DICTIONARY
  5
11
330
A
100
AcDbDictionary
281
1
  0
ACDBDICTIONARYWDFLT
  5
12
330
A
100
AcDbDictionary
281
1
  3
Normal
350
13
100
AcDbDictionaryWithDefault
340
13
  0
ACDBPLACEHOLDER
  5
13
330
12
  0
DICTIONARY
  5
14
330
A
100
AcDbDictionary
281
1
  0
DICTIONARY
  5
15
330
A
100
AcDbDictionary
281
1
  0
DICTIONARY
  5
16
330
A
100
AcDbDictionary
281
1
  3
2dWireframe
350
58
  3
Basic
350
59
  3
Brighten
350
5A
  3
ColorChange
350
5B
  3
Conceptual
350
5C
  3
Dim
350
5D
  3
EdgeColorOff
350
5E
  3
Facepattern
350
5F
  3
Flat
350
60
  3
FlatWithEdges
350
61
  3
Gouraud
350
62
  3
GouraudWithEdges
350
63
  3
Hidden
350
64
  3
JitterOff
350
65
  3
Linepattern
350
66
  3
Modeling
350
67
  3
OverhangOff
350
68
  3
Realistic
350
69
  3
Shaded
350
6A
  3
Shaded with edges
350
6B
  3
Shades of Gray
350
6C
  3
Sketchy
350
6D
  3
Thicken
350
6E
  3
Wireframe
350
6F
  3
X-Ray
350
70
  0
LAYOUT
  5
1A
330
D
100
AcDbPlotSettings
  1

  2
Adobe PDF
  4
A4
  6

 40
3.175
 41
3.175
 42
3.175
 43
3.175
 44
209.91
 45
297.03
 46
0.0
 47
0.0
 48
0.0
 49
0.0
140
0.0
141
0.0
142
1.0
143
1.0
 70
1024
 72
0
 73
1
 74
5
  7

 75
16
 76
0
 77
2
 78
300
147
1.0
148
0.0
149
0.0
100
AcDbLayout
  1
Model
 70
1
 71
0
 10
-3.175
 20
-3.175
 11
293.857
 21
206.735
 12
0.0
 22
0.0
 32
0.0
 14
29.068
 24
20.356
 34
0.0
 15
261.614
 25
183.204
 35
0.0
146
0.0
 13
0.0
 23
0.0
 33
0.0
 16
1.0
 26
0.0
 36
0.0
 17
0.0
 27
1.0
 37
0.0
 76
1
330
17
  0
LAYOUT
  5
1E
330
D
100
AcDbPlotSettings
  1

  2
Adobe PDF
  4
A4
  6

 40
3.175
 41
3.175
 42
3.175
 43
3.175
 44
209.91
 45
297.03
 46
0.0
 47
0.0
 48
0.0
 49
0.0
140
0.0
141
0.0
142
1.0
143
1.0
 70
0
 72
0
 73
1
 74
5
  7

 75
16
 76
0
 77
2
 78
300
147
1.0
148
0.0
149
0.0
100
AcDbLayout
  1
Layout1
 70
1
 71
1
 10
-3.175
 20
-3.175
 11
293.857
 21
206.735
 12
0.0
 22
0.0
 32
0.0
 14
29.068
 24
20.356
 34
0.0
 15
261.614
 25
183.204
 35
0.0
146
0.0
 13
0.0
 23
0.0
 33
0.0
 16
1.0
 26
0.0
 36
0.0
 17
0.0
 27
1.0
 37
0.0
 76
1
330
1B
  0
MATERIAL
  5
1F
102
{ACAD_REACTORS
330
E
102
}
330
E
100
AcDbMaterial
  1
ByBlock
  2

 70
0
 40
1.0
 71
1
 41
1.0
 91
-1023410177
 42
1.0
 72
1
  3

 73
1
 74
1
 75
1
 44
0.5
 73
0
 45
1.0
 46
1.0
 77
1
  4

 78
1
 79
1
170
1
 48
1.0
171
1
  6

172
1
173
1
174
1
140
1.0
141
1.0
175
1
  7

176
1
177
1
178
1
143
1.0
179
1
  8

270
1
271
1
272
1
145
1.0
146
1.0
273
1
  9

274
1
275
1
276
1
 42
1.0
 72
1
  3

 73
1
 74
1
 75
1
 94
63
  0
MATERIAL
  5
20
102
{ACAD_REACTORS
330
E
102
}
330
E
100
AcDbMaterial
  1
ByLayer
  2

 70
0
 40
1.0
 71
1
 41
1.0
 91
-1023410177
 42
1.0
 72
1
  3

 73
1
 74
1
 75
1
 44
0.5
 73
0
 45
1.0
 46
1.0
 77
1
  4

 78
1
 79
1
170
1
 48
1.0
171
1
  6

172
1
173
1
174
1
140
1.0
141
1.0
175
1
  7

176
1
177
1
178
1
143
1.0
179
1
  8

270
1
271
1
272
1
145
1.0
146
1.0
273
1
  9

274
1
275
1
276
1
 42
1.0
 72
1
  3

 73
1
 74
1
 75
1
 94
63
  0
MATERIAL
  5
21
102
{ACAD_REACTORS
330
E
102
}
330
E
100
AcDbMaterial
  1
Global
  2

 70
0
 40
1.0
 71
1
 41
1.0
 91
-1023410177
 42
1.0
 72
1
  3

 73
1
 74
1
 75
1
 44
0.5
 73
0
 45
1.0
 46
1.0
 77
1
  4

 78
1
 79
1
170
1
 48
1.0
171
1
  6

172
1
173
1
174
1
140
1.0
141
1.0
175
1
  7

176
1
177
1
178
1
143
1.0
179
1
  8

270
1
271
1
272
1
145
1.0
146
1.0
273
1
  9

274
1
275
1
276
1
 42
1.0
 72
1
  3

 73
1
 74
1
 75
1
 94
63
  0
MLINESTYLE
  5
22
102
{ACAD_REACTORS
330
10
102
}
330
10
100
AcDbMlineStyle
  2
Standard
 70
0
  3

 62
256
 51
90.0
 52
90.0
 71
2
 49
0.5
 62
256
  6
BYLAYER
 49
-0.5
 62
256
  6
BYLAYER
  0
MLEADERSTYLE
  5
2C
102
{ACAD_REACTORS
330
F
102
}
330
F
100
AcDbMLeaderStyle
179
2
170
2
171
1
172
0
 90
2
 40
0.0
 41
0.0
173
1
 91
-1056964608
 92
-2
290
1
 42
2.0
291
1
 43
8.0
  3
Standard
 44
4.0
300

342
29
174
1
175
1
176
0
178
1
 93
-1056964608
 45
4.0
292
0
297
0
 46
4.0
 94
-1056964608
 47
1.0
 49
1.0
140
1.0
294
1
141
0.0
177
0
142
1.0
295
0
296
0
143
3.75
271
0
272
9
273
9
  0
VISUALSTYLE
  5
58
102
{ACAD_REACTORS
330
16
102
}
330
16
100
AcDbVisualStyle
  2
2dWireframe
 70
4
 90
0
 40
0.6
 62
7
290
0
291
0
  0
VISUALSTYLE
  5
59
102
{ACAD_REACTORS
330
16
102
}
330
16
100
AcDbVisualStyle
  2
Basic
 70
7
 90
1
 40
0.6
 62
7
290
0
291
1
  0
VISUALSTYLE
  5
5A
102
{ACAD_REACTORS
330
16
102
}
330
16
100
AcDbVisualStyle
  2
Brighten
 70
12
 90
2
 40
0.6
 62
7
290
0
291
1
  0
VISUALSTYLE
  5
5B
102
{ACAD_REACTORS
330
16
102
}
330
16
100
AcDbVisualStyle
  2
ColorChange
 70
16
 90
2
 40
0.6
 62
8
290
0
291
1
  0
VISUALSTYLE
  5
5C
102
{ACAD_REACTORS
330
16
102
}
330
16
100
AcDbVisualStyle
  2
Conceptual
 70
9
 90
3
 40
0.6
 62
7
290
0
291
0
  0
VISUALSTYLE
  5
5D
102
{ACAD_REACTORS
330
16
102
}
330
16
100
AcDbVisualStyle
  2
Dim
 70
11
 90
2
 40
0.6
 62
7
290
0
291
1
  0
VISUALSTYLE
  5
5E
102
{ACAD_REACTORS
330
16
102
}
330
16
100
AcDbVisualStyle
  2
EdgeColorOff
 70
22
 90
2
 40
0.6
 62
7
290
0
291
1
  0
VISUALSTYLE
  5
5F
102
{ACAD_REACTORS
330
16
102
}
330
16
100
AcDbVisualStyle
  2
Facepattern
 70
15
 90
2
 40
0.6
 62
7
290
0
291
1
  0
VISUALSTYLE
  5
60
102
{ACAD_REACTORS
330
16
102
}
330
16
100
AcDbVisualStyle
  2
Flat
 70
0
 90
2
 40
0.6
 62
7
290
0
291
1
  0
VISUALSTYLE
  5
61
102
{ACAD_REACTORS
330
16
102
}
330
16
100
AcDbVisualStyle
  2
FlatWithEdges
 70
1
 90
2
 40
0.6
 62
7
290
0
291
1
  0
VISUALSTYLE
  5
62
102
{ACAD_REACTORS
330
16
102
}
330
16
100
AcDbVisualStyle
  2
Gouraud
 70
2
 90
2
 40
0.6
 62
7
290
0
291
1
  0
VISUALSTYLE
  5
63
102
{ACAD_REACTORS
330
16
102
}
330
16
100
AcDbVisualStyle
  2
GouraudWithEdges
 70
3
 90
2
 40
0.6
 62
7
290
0
291
1
  0
VISUALSTYLE
  5
64
102
{ACAD_REACTORS
330
16
102
}
330
16
100
AcDbVisualStyle
  2
Hidden
 70
6
 90
1
 40
0.6
 62
7
290
0
291
0
  0
VISUALSTYLE
  5
65
102
{ACAD_REACTORS
330
16
102
}
330
16
100
AcDbVisualStyle
  2
JitterOff
 70
20
 90
2
 40
0.6
 62
7
290
0
291
1
  0
VISUALSTYLE
  5
66
102
{ACAD_REACTORS
330
16
102
}
330
16
100
AcDbVisualStyle
  2
Linepattern
 70
14
 90
2
 40
0.6
 62
7
290
0
291
1
  0
VISUALSTYLE
  5
67
102
{ACAD_REACTORS
330
16
102
}
330
16
100
AcDbVisualStyle
  2
Modeling
 70
10
 90
2
 40
0.6
 62
7
290
0
291
0
  0
VISUALSTYLE
  5
68
102
{ACAD_REACTORS
330
16
102
}
330
16
100
AcDbVisualStyle
  2
OverhangOff
 70
21
 90
2
 40
0.6
 62
7
290
0
291
1
  0
VISUALSTYLE
  5
69
102
{ACAD_REACTORS
330
16
102
}
330
16
100
AcDbVisualStyle
  2
Realistic
 70
8
 90
2
 40
0.6
 62
7
290
0
291
0
  0
VISUALSTYLE
  5
6A
102
{ACAD_REACTORS
330
16
102
}
330
16
100
AcDbVisualStyle
  2
Shaded
 70
27
 90
2
 40
0.6
 62
7
290
0
291
0
  0
VISUALSTYLE
  5
6B
102
{ACAD_REACTORS
330
16
102
}
330
16
100
AcDbVisualStyle
  2
Shaded with edges
 70
26
 90
2
 40
0.6
 62
7
290
0
291
0
  0
VISUALSTYLE
  5
6C
102
{ACAD_REACTORS
330
16
102
}
330
16
100
AcDbVisualStyle
  2
Shades of Gray
 70
23
 90
2
 40
0.6
 62
7
290
0
291
0
  0
VISUALSTYLE
  5
6D
102
{ACAD_REACTORS
330
16
102
}
330
16
100
AcDbVisualStyle
  2
Sketchy
 70
24
 90
1
 40
0.6
 62
7
290
0
291
0
  0
VISUALSTYLE
  5
6E
102
{ACAD_REACTORS
330
16
102
}
330
16
100
AcDbVisualStyle
  2
Thicken
 70
13
 90
2
 40
0.6
 62
7
290
0
291
1
  0
VISUALSTYLE
  5
6F
102
{ACAD_REACTORS
330
16
102
}
330
16
100
AcDbVisualStyle
  2
Wireframe
 70
5
 90
0
 40
0.6
 62
7
290
0
291
0
  0
VISUALSTYLE
  5
70
102
{ACAD_REACTORS
330
16
102
}
330
16
100
AcDbVisualStyle
  2
X-Ray
 70
25
 90
2
 40
0.5
 62
7
290
0
291
0
  0
ENDSEC
  0
EOF
